<svg width="44" height="44" viewBox="0 0 44 44" fill="none" xmlns="http://www.w3.org/2000/svg">
<g clip-path="url(#clip0_283_2029)">
<path d="M31.44 1.57266L26.7621 6.36797L37.2769 17.1273L41.9548 12.3406C43.7941 10.4586 43.7941 7.41641 41.9548 5.53437L38.0916 1.57266C36.2523 -0.309375 33.2793 -0.309375 31.44 1.57266ZM24.6877 8.12969L23.915 8.37031L11.8129 12.0828C10.1416 12.5984 8.81461 13.9047 8.26031 15.6062L0.819297 38.3109C0.500157 39.282 0.735313 40.3648 1.43238 41.0953L14.3324 27.9039C14.0804 27.3625 13.9377 26.7609 13.9377 26.125C13.9377 23.8477 15.7433 22 17.9689 22C20.1945 22 22.0002 23.8477 22.0002 26.125C22.0002 28.4023 20.1945 30.25 17.9689 30.25C17.3474 30.25 16.7595 30.1039 16.2304 29.8461L3.33043 43.0461C4.0527 43.7594 5.1025 44.0086 6.05152 43.6734L28.2486 36.0594C29.9031 35.4922 31.188 34.1344 31.692 32.4242L35.3201 20.0406L35.5552 19.25L24.6877 8.12969Z" fill="#333333"/>
</g>
<defs>
<clipPath id="clip0_283_2029">
<rect width="43" height="44" fill="white" transform="translate(0.5)"/>
</clipPath>
</defs>
</svg>
