<svg width="58" height="40" viewBox="0 0 58 40" fill="none" xmlns="http://www.w3.org/2000/svg">
<path d="M6.2 5.71429C6.2 2.5625 8.75609 0 11.9 0H46.1C49.2439 0 51.8 2.5625 51.8 5.71429V28.5714H46.1V5.71429H11.9V28.5714H6.2V5.71429ZM0.5 33.1429C0.5 32.1964 1.26594 31.4286 2.21 31.4286H55.79C56.7341 31.4286 57.5 32.1964 57.5 33.1429C57.5 36.9286 54.4363 40 50.66 40H7.34C3.56375 40 0.5 36.9286 0.5 33.1429ZM25.5266 15.8036L22.7656 18.5714L25.5266 21.3393C26.3637 22.1786 26.3637 23.5357 25.5266 24.3661C24.6894 25.1964 23.3356 25.2054 22.5073 24.3661L18.2323 20.0804C17.3952 19.2411 17.3952 17.8839 18.2323 17.0536L22.5073 12.7679C23.3445 11.9286 24.6983 11.9286 25.5266 12.7679C26.3548 13.6071 26.3637 14.9643 25.5266 15.7946V15.8036ZM35.5016 12.7679L39.7766 17.0536C40.6138 17.8929 40.6138 19.25 39.7766 20.0804L35.5016 24.3661C34.6644 25.2054 33.3106 25.2054 32.4823 24.3661C31.6541 23.5268 31.6452 22.1696 32.4823 21.3393L35.2433 18.5714L32.4823 15.8036C31.6452 14.9643 31.6452 13.6071 32.4823 12.7768C33.3195 11.9464 34.6733 11.9375 35.5016 12.7768V12.7679Z" fill="#333333"/>
</svg>
