<svg width="54" height="42" viewBox="0 0 54 42" fill="none" xmlns="http://www.w3.org/2000/svg">
<path d="M33.0292 0.102856C31.6213 -0.299012 30.1554 0.512926 29.7496 1.90716L19.1488 38.6494C18.743 40.0436 19.5629 41.4953 20.9708 41.8971C22.3787 42.299 23.8446 41.4871 24.2504 40.0928L34.8512 3.35061C35.2571 1.95637 34.4371 0.504724 33.0292 0.102856ZM39.7044 9.95273C38.6692 10.9779 38.6692 12.6428 39.7044 13.668L47.1002 21L39.6962 28.332C38.6609 29.3572 38.6609 31.0221 39.6962 32.0473C40.7314 33.0724 42.4126 33.0724 43.4478 32.0473L52.7236 22.8617C53.7588 21.8365 53.7588 20.1717 52.7236 19.1465L43.4478 9.96093C42.4126 8.93575 40.7314 8.93575 39.6962 9.96093L39.7044 9.95273ZM14.3039 9.95273C13.2686 8.92755 11.5874 8.92755 10.5522 9.95273L1.27643 19.1383C0.241191 20.1635 0.241191 21.8283 1.27643 22.8535L10.5522 32.0391C11.5874 33.0642 13.2686 33.0642 14.3039 32.0391C15.3391 31.0139 15.3391 29.349 14.3039 28.3238L6.89984 21L14.3039 13.668C15.3391 12.6428 15.3391 10.9779 14.3039 9.95273Z" fill="#333333"/>
</svg>
