<svg width="48" height="38" viewBox="0 0 48 38" fill="none" xmlns="http://www.w3.org/2000/svg">
<path d="M4.82528 3.1246C5.0456 2.67187 5.53028 2.4121 6.02232 2.4789L23.9998 4.74999L41.9773 2.4789C42.4693 2.41953 42.954 2.67929 43.1743 3.1246L46.2367 9.31445C46.8976 10.643 46.1926 12.2535 44.7826 12.6617L32.7829 16.1277C31.7622 16.4246 30.6679 15.9867 30.1245 15.0664L23.9998 4.74999L17.8751 15.0664C17.3317 15.9867 16.2375 16.4246 15.2167 16.1277L3.22435 12.6617C1.807 12.2535 1.10935 10.643 1.77028 9.31445L4.82528 3.1246ZM24.0806 9.49999L28.1123 16.2836C29.2065 18.1242 31.3876 19 33.4365 18.4062L42.7998 15.7047V28.0992C42.7998 29.732 41.6982 31.157 40.1267 31.5578L25.1381 35.343C24.389 35.5359 23.6033 35.5359 22.8615 35.343L7.87294 31.5578C6.30138 31.1496 5.19982 29.7246 5.19982 28.0918V15.6973L14.5704 18.4062C16.612 19 18.8004 18.1242 19.8947 16.2836L23.919 9.49999H24.0806Z" fill="#333333"/>
</svg>
