<svg width="200" height="68" viewBox="0 0 200 68" fill="none" xmlns="http://www.w3.org/2000/svg">
<rect x="0.5" y="0.5" width="199" height="67" fill="white"/>
<g clip-path="url(#clip0_283_1881)">
<path d="M79.4441 31.9891C79.1931 32.108 78.1735 32.5716 77.9186 32.7459C77.6079 32.9599 77.2853 33.1897 77.2893 33.4156C77.2893 33.5305 77.6119 33.7365 77.7553 34.0376C77.8629 34.2674 78.1417 35.7058 78.1735 36.1099C78.1735 36.1495 78.1815 36.2407 78.1895 36.3635C77.9823 36.415 77.3809 36.5656 77.1181 36.5933C76.7795 36.629 75.9471 36.629 75.1147 36.419C74.8438 36.3516 74.0632 36.0227 73.9477 36.0227C73.8322 36.0227 73.8561 36.0901 73.8561 36.205C73.8561 36.205 73.864 37.0173 73.9955 37.4175C74.2504 38.1941 74.8836 38.7409 75.0987 38.7211C75.2461 38.7052 76.3175 38.3763 76.5246 38.309C76.6879 38.2535 77.8031 37.786 78.2731 37.5561C78.3089 38.1346 78.3528 38.8043 78.3926 39.4184C78.1178 39.9375 77.7434 40.5675 77.4407 40.8211C76.891 41.2847 75.8595 42.1643 75.3138 42.2832C74.7681 42.402 74.2424 42.505 74.1707 42.5011C74.103 42.4971 73.9755 42.5407 73.9755 42.5407C73.9118 42.6913 74.1548 43.242 74.2304 43.4045C74.3061 43.5669 75.4452 44.4188 75.5607 44.51C75.6762 44.6051 75.9232 44.5179 75.9989 44.4703C76.0705 44.4228 76.8114 43.7492 77.2336 43.4124C77.6557 43.0796 78.3089 42.0732 78.4882 41.6096C78.4922 41.5977 78.4961 41.5858 78.5041 41.5739C78.4643 42.0335 78.3488 43.2103 78.1337 43.983C78.1337 43.983 77.9505 45.2945 77.7155 45.556C77.4805 45.8175 76.9428 46.0949 76.6919 46.186C76.5126 46.2494 76.2976 46.3366 76.3135 46.4238C76.3533 46.6456 77.1658 47.0419 77.3969 47.1766C77.6279 47.3113 78.528 47.7987 78.5957 47.8462C78.6634 47.8938 79.2051 48.0879 79.464 47.9294C79.7189 47.7709 79.9419 46.7447 79.9977 46.1107C80.0614 45.4054 80.0455 43.7294 80.0057 43.2024C79.9618 42.616 79.8185 38.4556 79.8065 38.1148C79.7508 36.5973 79.9778 34.529 80.0694 34.2397C80.1729 33.9188 80.4239 33.5305 80.4438 33.4156C80.4637 33.3006 80.3442 33.0114 80.1729 32.6072C80.0017 32.2031 79.699 31.8703 79.4481 31.9891H79.4441Z" fill="#231815"/>
<path d="M95.4195 39.8543C95.1247 39.886 94.2405 39.9137 93.2687 39.9335C93.2767 39.8741 93.2846 39.8226 93.2926 39.7869C93.4121 39.3392 93.4678 38.9628 93.4678 38.733C93.4678 38.5031 93.659 38.2931 92.7668 38.1109C92.3008 38.0158 91.4843 38.1663 91.3091 38.408C91.1338 38.6497 90.9626 38.6616 90.9865 38.9826C90.9944 39.0975 91.0542 39.4779 91.1259 39.9692C90.5523 39.9771 90.1302 39.9811 90.0306 39.985C89.696 39.989 85.0161 40.2743 84.3151 40.3971C83.6141 40.5199 81.9333 39.989 81.6147 40.1118C81.543 40.1396 81.1726 40.6349 81.0929 40.7458C80.9257 40.9796 80.8858 42.4377 81.1367 42.5526C81.3797 42.6675 82.24 42.2673 82.7817 42.1405C83.638 41.9424 84.2354 41.8632 84.4943 41.8315C85.6374 41.6849 88.7441 41.5026 89.1304 41.4511C89.3535 41.4234 90.405 41.4471 91.3131 41.4828C91.3688 42.0018 91.4047 42.5051 91.3967 42.8735C91.3848 43.2737 91.3649 44.3277 91.2215 45.0488C91.1697 45.3064 91.0781 45.6551 90.9506 45.7264C90.5643 45.9404 89.8115 45.9205 88.9313 45.9998C88.7202 46.0196 87.9077 46.0949 87.1111 46.0711C86.912 46.0632 86.426 46.0156 86.199 46.0315C86.0955 46.0394 86.0875 46.1464 86.0875 46.19C86.0875 46.3604 88.1945 47.1251 88.5649 47.2836C89.2221 47.5649 89.8713 47.8423 90.6121 47.9453C91.2653 48.0364 91.8468 48.1632 92.1176 48.0879C92.4721 47.9889 93.0178 47.1211 93.2408 46.5783C93.4001 46.19 93.6471 45.8968 93.5674 45.3856C93.4838 44.8468 93.3085 44.0939 93.2607 43.8007C93.2129 43.5154 93.189 42.6358 93.189 41.7681C93.6988 41.9979 94.4118 42.3585 94.5751 42.4456C94.8101 42.5724 95.1287 42.406 95.2044 42.3624C95.2801 42.3188 95.9691 41.5105 96.2439 41.2966C96.5187 41.0826 96.8055 40.6388 96.8931 40.3932C96.9768 40.1475 97.1281 39.5532 96.9887 39.4977C96.8493 39.4462 96.1324 39.783 95.4115 39.8582L95.4195 39.8543Z" fill="#231815"/>
<path d="M83.4431 33.8079C83.0647 33.7643 82.296 33.6018 82.2163 33.8435C82.1287 34.0971 82.758 34.6994 82.8576 34.8341C83.1484 35.2145 84.5105 35.1154 85.3628 34.9886C86.0081 34.8935 88.9953 34.1684 89.5091 34.0496C90.0587 33.9228 92.8547 33.4869 93.1614 33.4631C94.0615 33.3918 94.2567 33.0075 94.2646 32.7856C94.2726 32.5637 93.9181 32.1199 93.492 31.7079C93.0658 31.2958 92.4285 30.8401 92.094 31.1214C91.608 31.5295 90.4849 31.902 89.8715 32.223C89.2581 32.5439 86.5298 33.4988 85.3708 33.685C84.5105 33.8237 83.8971 33.8554 83.4471 33.8039L83.4431 33.8079Z" fill="#231815"/>
<path d="M84.0685 36.1297C84.0168 35.9593 83.5468 35.8206 83.3237 35.892C83.1007 35.9633 82.3878 36.6052 82.1807 37.5839C82.105 37.9523 82.2484 38.0514 82.7303 38.412C83.2122 38.7725 83.5229 38.9271 83.6981 39.0618C83.8814 39.1965 84.5186 39.1925 84.7417 39.2361C85.1001 39.3035 85.0444 38.8201 84.9408 38.5942C84.7456 38.1623 84.5106 37.992 84.4151 37.5125C84.3155 37.0331 84.196 36.5497 84.0685 36.1337V36.1297Z" fill="#231815"/>
<path d="M87.6291 36.1852C87.5972 36.0069 87.2189 35.373 86.9321 35.3413C86.7688 35.3215 86.2351 35.8247 85.9403 36.1416C85.797 36.2962 85.4146 36.7083 85.4903 37.1164C85.562 37.4928 85.7293 37.8018 85.9403 38.0515C86.4024 38.6022 86.9918 38.6815 87.2428 38.7647C87.6092 38.8875 87.7805 38.8875 87.8641 38.8519C87.9477 38.8122 88.0115 38.6577 87.896 38.4754C87.8521 38.4081 87.7287 38.2298 87.5694 37.7543C87.41 37.2788 87.6689 36.423 87.6291 36.1852V36.1852Z" fill="#231815"/>
<path d="M90.5804 36.9974C90.3613 37.1797 89.9311 37.7186 89.7041 37.8572C89.1624 38.1861 88.7044 38.5704 88.7403 38.6655C88.8 38.8121 90.2378 38.4793 91.0543 38.0672C91.1897 37.9999 92.751 37.2233 93.221 36.9618C93.7428 36.6685 94.6867 36.1416 94.7863 36.0029C94.8819 35.8642 94.392 35.0163 94.2168 34.7785C94.0096 34.4972 93.3325 34.0693 93.0776 34.0534C92.7271 34.0336 91.0225 34.3744 90.8791 34.7191C90.8552 34.7785 91.6876 34.9965 91.608 35.3808C91.4646 36.0742 90.7676 36.8468 90.5843 37.0014L90.5804 36.9974Z" fill="#231815"/>
<path d="M87.1072 43.7214C87.2307 43.5986 87.3582 43.4203 87.4936 43.3213C87.6171 43.2262 87.7007 43.1033 87.6967 43.0756C87.6609 42.8656 86.7567 42.8933 85.9761 43.032C85.6575 43.0875 84.0205 43.3926 83.4947 43.5035C83.3275 43.5392 83.1084 43.6541 83.1084 43.9196C83.1084 44.185 83.2239 44.3514 83.4549 44.7675C83.7735 45.3539 84.6139 45.9086 84.7613 45.9324C84.9087 45.9562 85.06 45.6194 85.2632 45.4332C85.522 45.1954 85.7252 44.9973 86.1195 44.6882C86.7926 44.1573 86.9081 43.9156 87.1072 43.7175V43.7214Z" fill="#231815"/>
<path d="M106.524 38.4873C106.608 38.5507 106.687 38.6102 106.731 38.6577C106.87 38.7964 107.886 39.7909 107.974 39.8702C108.165 40.0406 108.388 39.8464 108.388 39.8464C108.388 39.8464 108.671 39.676 109.085 39.3313C109.499 38.9866 110.144 38.6696 110.304 38.4279C110.375 38.3209 110.292 38.1426 110.037 38.1149C109.567 38.0673 108.695 37.9604 107.994 37.7187C107.619 37.5919 106.739 37.2511 106.536 36.9896C106.536 36.7321 106.536 36.5022 106.54 36.32C106.719 36.3279 106.87 36.3437 106.954 36.3596C107.245 36.4151 107.496 36.6092 107.699 36.5419C107.906 36.4745 108.288 35.9753 108.496 35.7692C108.703 35.5632 109.041 35.2383 109.041 35.2383C109.041 35.2383 109.073 35.1313 108.981 34.9252C108.89 34.7192 108.806 34.5171 108.643 34.5171C108.48 34.5171 107.52 34.7549 107.325 34.7905C107.121 34.8262 106.874 34.8619 106.616 34.8975C106.687 34.1368 106.787 33.2175 106.843 33.0511C106.934 32.7777 107.321 32.5439 107.205 32.3379C107.09 32.1318 106.568 31.3552 106.361 31.2799C106.002 31.1492 105.321 31.4741 104.329 31.6643C104.186 31.692 104.003 31.8941 104.134 31.9971C104.23 32.0764 104.871 32.8213 104.939 33.0709C104.971 33.1937 105.026 34.0654 105.066 35.1154C104.907 35.1392 104.779 35.159 104.716 35.1749C104.417 35.2422 101.972 35.5632 101.744 35.5632C101.517 35.5632 100.82 35.3968 100.705 35.4641C100.585 35.5354 100.657 35.9317 100.972 36.3279C101.231 36.6528 101.354 36.8628 101.677 37.0926C101.999 37.3224 102.445 37.0371 102.868 36.9064C103.123 36.8271 104.393 36.4468 105.11 36.3556C105.118 36.6251 105.122 36.8905 105.126 37.1481C105.07 37.3145 104.967 37.5522 104.775 37.8177C104.194 38.63 102.613 39.577 102.063 39.8068C101.549 40.0208 100.279 40.6745 99.6973 40.6508C99.3667 40.6389 99.3229 41.0232 99.3468 41.1183C99.3866 41.2768 99.769 41.7364 100.111 42.0019C100.462 42.2713 101.051 42.7032 101.235 42.6834C101.418 42.6596 102.88 41.4987 103.373 41.0113C103.824 40.5715 104.632 39.7315 104.823 39.5096C104.923 39.3947 105.022 39.3194 105.09 39.3709C105.046 40.3774 104.979 41.8276 104.959 42.196C104.907 43.1272 104.696 45.2589 104.696 45.5085C104.696 45.7581 104.935 46.9112 105.102 47.3114C105.273 47.7116 105.56 48.1514 105.731 48.1276C105.887 48.1038 105.99 47.9097 106.166 47.5253C106.444 46.9231 106.588 45.7225 106.6 44.7002C106.604 44.2881 106.492 40.3892 106.504 39.8781C106.508 39.6166 106.516 39.0777 106.52 38.4794L106.524 38.4873Z" fill="#231815"/>
<path d="M122.34 41.7126C121.528 41.9305 120.659 41.8473 119.775 41.7958C119.532 41.7839 119.221 41.7721 118.871 41.7681C118.843 41.0153 118.712 37.6949 118.712 37.3303C118.712 37.156 118.72 36.526 118.732 35.8484C119.126 35.8603 119.429 35.8722 119.588 35.8801C120.094 35.9039 120.52 35.892 120.843 35.6622C121.165 35.4324 121.611 34.8262 121.536 34.7033C121.392 34.4735 120.353 34.4379 119.763 34.3824C119.62 34.3705 119.253 34.3586 118.755 34.3547C118.759 34.0535 118.763 33.8396 118.763 33.788C118.763 33.582 119.225 33.2412 119.317 33.055C119.409 32.8688 119.456 32.4131 119.269 32.2546C119.086 32.0961 118.301 31.6127 118.07 31.478C117.839 31.3393 117.541 31.5929 117.445 31.7514C117.353 31.9099 116.708 32.528 116.545 32.6429C116.433 32.7222 116.593 32.9877 116.593 32.9877C116.593 32.9877 116.963 33.5146 116.987 33.7405C116.991 33.788 116.999 34.0297 117.003 34.3824C116.402 34.4022 115.768 34.4418 115.167 34.4973C114.609 34.5488 114.056 34.6003 113.542 34.6518C113.542 34.422 113.55 34.2397 113.554 34.1367C113.582 33.582 113.538 33.2412 113.673 33.1026C113.809 32.9639 113.872 32.8292 113.837 32.738C113.769 32.5756 113.522 32.0882 113.144 31.9495C112.765 31.8109 112.498 31.8069 112.068 32.0565C111.638 32.3061 110.666 32.6231 110.666 32.7658C110.666 32.9361 110.929 33.2611 111.092 33.3997C111.256 33.5384 111.658 33.8356 111.738 34.0416C111.761 34.105 111.805 34.4062 111.845 34.8182C111.487 34.8539 111.22 34.8856 111.088 34.9094C110.65 34.9767 109.953 34.7231 109.786 34.9014C109.706 34.9847 109.965 35.6622 110.172 35.8445C110.379 36.0267 110.77 36.6369 111.068 36.6369C111.188 36.6369 111.491 36.522 111.981 36.3794C112.016 36.9539 112.04 37.5086 112.028 37.885C112.024 38.0911 112.104 40.94 112.112 41.3956C112.12 41.6888 112.08 41.9107 112.036 42.0534C111.315 42.1247 110.73 42.1841 110.499 42.2079C110.196 42.2356 109.157 42.3466 108.842 42.3545C108.631 42.3585 108.077 42.2555 107.91 42.3545C107.743 42.4536 107.639 43.353 107.564 43.7215C107.536 43.8523 107.52 44.1891 107.587 44.3555C107.683 44.5892 107.779 44.6328 107.998 44.5694C108.348 44.4664 109.431 43.9038 110.973 43.5749C111.124 43.5432 111.754 43.4679 112.582 43.3887C112.466 43.559 112.291 43.8166 112.092 44.086C111.534 44.8428 111.228 45.3698 110.403 45.9443C110.16 46.1147 109.129 46.6734 109.065 46.6893C108.866 46.7368 108.858 46.8953 108.922 46.9428C108.985 46.9904 110.674 47.5253 110.822 47.5451C111.443 47.6244 111.949 47.1449 112.08 46.9944C112.474 46.5308 113.112 45.7185 113.323 45.5125C113.657 45.1836 114.231 44.9736 114.565 44.6011C114.888 44.2406 114.49 44.0266 114.315 43.6819C114.235 43.5234 114.131 43.3807 114.036 43.2658C115.004 43.1945 116.019 43.143 116.8 43.1589C118.465 43.1866 121.396 43.9355 121.647 43.987C121.894 44.0345 122.161 43.876 122.444 43.5907C122.571 43.464 122.814 43.0638 122.961 42.7111C123.109 42.3664 123.34 41.5938 123.153 41.4709C123.101 41.4353 122.503 41.669 122.34 41.7126V41.7126ZM116.915 41.7641C116.915 41.7641 116.915 41.7721 116.915 41.776C116.39 41.7839 115.852 41.7958 115.35 41.8117C114.888 41.8236 114.334 41.8592 113.765 41.9028C113.753 41.7126 113.737 41.4353 113.721 41.1064C114.028 41.0271 114.697 40.8726 115.545 40.7973C115.844 40.7696 116.513 40.8053 116.979 40.837C116.971 41.3164 116.955 41.7007 116.923 41.7641H116.915ZM117.007 38.6101C116.995 38.7013 116.987 38.9826 116.983 39.3432C116.672 39.3432 116.175 39.3511 115.744 39.3828C114.769 39.4502 114.004 39.5294 113.641 39.5651C113.625 39.1966 113.61 38.8518 113.594 38.5745C113.789 38.5269 114.418 38.3684 115.43 38.2932C115.621 38.2773 116.565 38.2773 117.023 38.2813C117.023 38.4517 117.015 38.5705 117.007 38.6141V38.6101ZM115.41 36.946C115.127 36.9698 113.685 37.0926 113.542 37.1045C113.538 36.7598 113.534 36.3873 113.534 36.0307C114.076 35.9435 114.705 35.8722 115.43 35.8445C115.952 35.8247 116.497 35.8207 117.019 35.8207C117.019 36.1813 117.023 36.5498 117.027 36.8945C116.625 36.9024 115.649 36.9222 115.414 36.946H115.41Z" fill="#231815"/>
<path d="M121.922 45.5797C121.719 45.4846 121.094 45.659 120.707 45.5837C120.389 45.5243 119.966 45.4252 119.369 45.1637C119.058 45.029 118.21 44.3158 118.063 44.2246C117.911 44.1335 117.608 44.078 117.354 44.0582C117.095 44.0344 116.824 44.1177 116.609 44.189C116.549 44.2088 116.246 44.3514 116.314 44.4663C116.378 44.5812 117.541 45.6035 117.688 45.8571C117.839 46.1067 118.234 47.1092 118.525 47.3192C119.034 47.6837 119.859 47.0735 120.074 46.9784C120.289 46.8873 121.428 46.4435 121.802 46.1186C121.99 45.9562 122.145 45.6828 121.926 45.5758L121.922 45.5797Z" fill="#231815"/>
<path d="M71.1636 41.4115C71.0641 41.3916 70.3073 41.4471 70.0803 41.5264C69.8373 41.6096 68.5508 41.8671 68.2043 41.776C67.8777 41.6888 66.4718 41.1262 65.9261 40.7141C65.7588 40.5873 65.3765 40.2941 64.9184 39.9454C63.9108 39.1767 62.5327 38.1267 62.3256 37.9801C62.1423 37.8494 60.8957 36.942 60.7882 36.7518C60.7882 36.7518 60.7882 36.7439 60.7882 36.7399C60.7762 36.6527 60.7443 36.308 60.8479 36.2407C60.9913 36.1456 62.9987 36.1614 63.8669 36.2922C64.0701 36.3239 64.329 36.3635 64.6157 36.4071C65.5676 36.5497 66.7506 36.732 66.9418 36.7478C67.1887 36.7677 67.6786 36.6092 67.8976 36.3912C68.0251 36.2644 68.0371 35.9593 68.053 35.6661C68.0609 35.4601 68.0689 35.2699 68.1167 35.1273C68.284 34.6122 68.3557 34.2358 68.3079 34.1446C68.3039 34.1327 68.2959 34.1327 68.2959 34.1327C68.2681 34.1248 68.1964 34.1763 68.1167 34.2397C67.9614 34.3546 67.7264 34.529 67.356 34.6518C66.5992 34.8975 65.5876 34.842 64.7751 34.7944C64.5918 34.7825 64.4126 34.7746 64.2493 34.7667C63.9785 34.7588 63.5045 34.739 62.9788 34.7192C61.8237 34.6756 60.3819 34.6201 60.2106 34.6201C60.2106 34.6201 60.2067 34.6201 60.2027 34.6201C60.123 34.6201 60.0593 34.5963 60.0155 34.5527C59.9199 34.4576 59.9279 34.2833 59.9318 34.1525C59.9358 33.9584 60.0354 32.8133 60.1071 32.635C60.1748 32.4567 60.2544 32.1555 60.2146 32.0486C60.1907 31.9852 59.9398 31.7554 59.7407 31.5691C59.5853 31.4265 59.438 31.2918 59.3822 31.2204C59.2707 31.0857 59.0755 30.9669 58.8923 31.0659C58.7011 31.1689 57.2155 31.5889 57.096 31.6088C57.0283 31.6206 56.9845 31.684 56.9685 31.7355C56.9526 31.7831 56.9566 31.8267 56.9805 31.8505C56.9924 31.8623 57.0203 31.8901 57.0602 31.9257C57.3868 32.2189 57.7213 32.5399 57.7611 32.7261C57.8089 32.9678 57.9045 34.1288 57.8926 34.4299C57.8846 34.6042 57.7811 34.6954 57.5501 34.7271C57.4823 34.735 57.3429 34.7548 57.1597 34.7825C56.4747 34.8816 55.2041 35.0639 54.7501 35.0916C53.5791 35.1629 51.7748 35.0124 51.7549 35.0084C51.747 35.0084 51.743 35.0084 51.735 35.0084C51.5478 35.0084 51.273 35.2224 50.9862 35.4522C50.9384 35.4878 50.8906 35.5275 50.8428 35.5671C50.5322 35.8088 50.1379 36.2526 50.0502 36.6963C50.0224 36.8311 50.6078 37.366 50.8866 37.5443C51.1416 37.7067 51.3765 37.8612 51.5637 37.7701C51.6076 37.7503 51.6912 37.7028 51.7987 37.6433C52.1891 37.4294 52.9219 37.0331 53.2844 36.9539C53.7543 36.8469 56.2516 36.4427 57.2394 36.4863C57.2991 36.4863 57.3549 36.522 57.3748 36.5695C57.3868 36.5973 57.3947 36.6488 57.339 36.7122C56.9685 37.1282 56.1998 37.9445 55.6781 38.3763C54.4115 39.4303 52.1333 40.6586 51.046 41.1064C50.2135 41.4471 48.4571 41.9543 48.0309 41.8869C47.6246 41.8235 46.5771 41.5699 46.4099 41.4986C46.3422 41.4709 46.2665 41.4432 46.2306 41.4749C46.1948 41.5066 46.1629 41.6056 46.2306 41.9067C46.2545 42.0137 46.2824 42.1524 46.3143 42.3109C46.4457 42.9845 46.6449 44.0028 46.9037 44.2841C47.2781 44.6962 47.6326 44.8943 47.7322 44.9419C47.7919 44.9736 48.1026 44.9498 49.7117 44.1058C50.3012 43.7968 52.3484 42.6001 53.4636 41.7879C53.9615 41.4233 55.2599 40.2981 56.0326 39.6245C56.3273 39.3709 56.5583 39.1688 56.6619 39.0816C57.0801 38.7329 57.4465 38.4358 57.6974 38.3605C57.7572 38.3407 57.8129 38.3486 57.8647 38.3803C58.0161 38.4714 58.0638 38.7567 58.0638 38.7686C58.0678 38.8796 58.1953 41.3718 58.1953 41.5145C58.1953 41.78 58.1196 41.9543 57.9563 42.0335C57.8249 42.0969 57.092 42.2118 56.3791 42.3228C55.9529 42.3901 55.5546 42.4496 55.3595 42.4932C54.9532 42.5764 54.6226 42.6318 54.4235 42.6635C54.3757 42.6715 54.3358 42.6754 54.304 42.6834C54.2363 42.6952 54.1845 42.7309 54.1646 42.7824C54.1487 42.83 54.1566 42.8815 54.1925 42.9251C54.2124 42.9488 54.2482 42.9964 54.292 43.0558C54.4792 43.3054 54.8297 43.769 55.001 43.9394C55.2161 44.1454 55.3395 44.189 55.5586 44.2326C55.6343 44.2445 55.7538 44.193 55.937 44.1058C56.2437 43.9592 56.7614 43.7175 57.6417 43.559C57.7373 43.5432 57.8169 43.5313 57.8886 43.5313C57.9683 43.5313 58.032 43.5471 58.0798 43.5788C58.1276 43.6145 58.1555 43.67 58.1674 43.7452C58.1833 43.876 58.1754 44.6724 58.1674 45.3777C58.1634 45.8453 58.1555 46.2494 58.1634 46.3485C58.1674 46.4634 58.1634 46.6536 58.1555 46.8755C58.1355 47.446 58.1077 48.3098 58.267 48.4366C58.4781 48.6109 58.9879 48.3455 59.187 48.1513C59.2985 48.0404 59.9119 47.2836 60.0434 46.9983C60.119 46.8279 60.0832 46.2613 60.0434 45.659C60.0155 45.243 59.9876 44.8151 59.9876 44.4466C59.9876 44.3436 59.9836 44.0424 59.9717 43.5035C59.9717 43.4877 59.9836 43.4718 59.9995 43.4718C60.2823 43.452 60.6727 43.4956 61.055 43.5432C61.3657 43.5828 61.6843 43.6581 61.9392 43.7215C62.1623 43.7769 62.3574 43.8205 62.4212 43.8126C62.5486 43.7928 62.8274 43.4718 62.9788 43.2222C63.0106 43.1668 63.0544 43.0994 63.1022 43.0281C63.2416 42.8181 63.4527 42.4971 63.389 42.402C63.3093 42.2792 62.6402 42.0811 62.1344 42.0256C61.6803 41.9781 61.2064 41.9741 60.828 41.9662C60.4735 41.9622 60.2186 41.9583 60.1031 41.9266C60.0354 41.9067 59.9796 41.8592 59.9358 41.7918C59.9358 41.7879 59.9318 41.7839 59.9318 41.776C59.9239 41.352 59.9159 40.9994 59.9119 40.833C59.9119 40.7418 59.9119 40.6111 59.904 40.4565C59.8761 39.0935 59.8721 38.2892 59.9239 38.2139C59.9438 38.1822 59.9717 38.1505 60.0155 38.1426C60.0752 38.1346 60.1469 38.1822 60.2943 38.2971C60.5094 38.4675 63.859 41.3956 63.9984 41.5145L64.0342 41.5462C64.8308 42.2435 66.6988 43.8879 66.8661 44.0939C67.2245 44.5377 67.6467 44.7517 68.1127 44.7358C69.0447 44.7002 69.8851 43.773 70.0006 43.6066C70.0405 43.5471 70.156 43.3966 70.3033 43.2024C70.6339 42.7705 71.1318 42.1167 71.1915 41.9662C71.2632 41.7879 71.2831 41.5184 71.2313 41.4273C71.2234 41.4115 71.2154 41.4035 71.2035 41.4035L71.1636 41.4115Z" fill="#231815"/>
<path d="M154.068 34.0733C154.207 34.212 154.418 34.5726 154.418 34.7707C154.418 34.9688 154.494 38.2971 154.418 38.7211C154.335 39.2045 154.052 39.256 154.084 39.5492C154.104 39.7275 154.586 40.4883 154.852 40.5873C155.119 40.6864 155.629 40.1198 156.621 39.9811C157.804 39.8186 160.823 39.6483 160.99 39.7473C161.157 39.8464 161.253 40.1119 161.492 40.1475C161.623 40.1673 162.448 39.6324 162.595 39.2917C162.711 39.0183 162.587 38.8083 162.527 38.3883C162.476 38.0356 162.46 34.838 162.559 34.5052C162.659 34.1724 162.926 33.8395 162.962 33.6097C162.994 33.376 162.762 33.1461 162.46 32.8807C162.161 32.6152 161.659 32.1516 161.424 32.1833C161.189 32.215 160.922 32.4488 160.289 32.6152C159.656 32.7816 155.753 32.9797 155.553 32.948C155.354 32.9163 154.562 32.5597 154.371 32.6231C154.108 32.7103 153.753 33.5701 153.753 33.5701C153.721 33.7682 153.984 33.9941 154.072 34.0773L154.068 34.0733ZM160.831 38.2694C160.799 38.5349 160.46 38.4279 159.194 38.3605C157.927 38.2932 156.342 38.6775 156.342 38.6775C156.342 38.6775 155.984 38.626 156.007 38.4517C156.039 38.206 156.055 37.9881 156.043 37.3501C156.573 37.2313 157.545 37.0767 158.537 37.0332C159.353 36.9975 160.341 37.0411 160.863 37.0688C160.855 37.6632 160.843 38.1664 160.831 38.2694V38.2694ZM155.988 34.3348C156.139 34.1605 157.115 34.1684 157.501 34.1407C157.856 34.1169 160.421 34.0694 160.62 34.1407C160.819 34.208 160.879 34.3903 160.879 34.7746C160.879 34.8539 160.879 35.1114 160.879 35.4522C160.389 35.4641 158.752 35.5116 158.385 35.5354C157.218 35.6147 156.45 35.7018 156.011 35.7573C156.011 35.6107 156.004 35.4879 156.004 35.4046C155.988 35.0005 155.88 34.4577 155.988 34.3348Z" fill="#231815"/>
<path d="M164.503 40.5438C165.129 40.4645 165.69 40.2545 165.905 39.779C165.977 39.6166 166.156 39.042 166.244 38.0237C166.746 37.9366 167.618 37.8177 168.753 37.8018C169.916 37.79 170.824 37.9683 171.234 38.0634C171.211 38.3328 171.179 38.5666 171.139 38.6934C171.067 38.9232 170.553 39.0777 170.585 39.3551C170.653 39.886 171.685 41.1975 171.912 41.1975C172.047 41.1975 172.565 40.5675 172.748 40.0405C172.911 39.577 172.816 38.1822 172.748 37.782C172.68 37.3818 172.78 34.6637 172.816 34.4973C172.852 34.3309 173.381 33.6692 173.417 33.4354C173.449 33.2016 172.915 32.639 172.648 32.4726C172.382 32.3062 171.947 31.9416 171.613 32.1397C171.278 32.3378 170.577 32.4924 170.044 32.5597C169.51 32.6271 167.315 32.8212 166.574 32.8728C166.308 32.8886 166.029 32.8926 165.575 32.7063C165.419 32.6429 165.172 32.3418 164.973 32.4409C164.774 32.5399 164.173 33.1065 164.141 33.5028C164.125 33.7009 164.34 33.7365 164.475 34.1011C164.607 34.4656 164.691 36.6211 164.675 37.1203C164.655 37.8177 164.655 38.4636 163.563 39.9375C163.456 40.0802 163.121 40.1634 163.241 40.3734C163.3 40.4764 164.165 40.5834 164.507 40.5398L164.503 40.5438ZM171.29 36.5418C171.29 36.5894 171.29 36.6528 171.29 36.7281C170.796 36.6726 169.825 36.5854 168.845 36.6132C168.307 36.629 167.001 36.7637 166.288 36.8509C166.288 36.5973 166.284 36.3279 166.272 36.0426C166.754 35.9752 167.594 35.8643 168.45 35.8009C169.482 35.7216 170.792 35.8603 171.294 35.9237C171.29 36.205 171.286 36.4388 171.286 36.5458L171.29 36.5418ZM166.24 34.105C166.339 34.006 167.319 33.9941 169.092 33.8633C170.191 33.7801 170.78 33.5662 171.115 33.8277C171.219 33.9109 171.266 34.2794 171.29 34.7231C169.41 34.743 169.374 34.743 168.43 34.7865C167.686 34.8182 166.614 34.9213 166.204 34.9648C166.2 34.9094 166.196 34.8539 166.188 34.7945C166.156 34.4814 166.144 34.208 166.244 34.109L166.24 34.105Z" fill="#231815"/>
<path d="M175.389 45.6908C175.054 45.4372 173.684 45.4768 173.114 45.4134C172.975 45.3976 171.876 45.2827 170.47 45.148C170.518 44.7319 170.585 44.1534 170.613 43.8919C170.661 43.46 170.82 42.8023 170.96 42.6755C171.099 42.5487 171.342 42.2911 171.282 42.1247C171.222 41.9583 170.251 40.7894 170.036 40.6508C169.836 40.524 169.534 40.6309 169.331 40.726C169.127 40.8172 168.789 40.9717 168.554 40.9955C168.319 41.0192 163.599 41.1183 162.659 41.1342C161.695 41.15 158.68 41.356 158.246 41.3719C157.812 41.3877 157.366 41.1104 157.063 41.1302C156.761 41.154 156.171 41.7602 156.06 42.0574C155.964 42.307 156.179 42.3942 156.306 42.5645C156.434 42.7349 156.534 42.9172 156.589 43.1866C156.645 43.4561 156.713 45.037 156.713 45.037L156.705 45.2272C155.462 45.3897 154.821 45.4451 153.953 45.4887C153.013 45.5363 152.109 45.0608 151.885 45.1876C151.798 45.2391 152.049 45.7581 152.312 46.1306C152.575 46.5031 153.224 47.4183 153.833 47.6719C154.443 47.9216 154.427 47.3629 155.159 47.2123C156.733 46.8795 160.433 46.1227 162.934 46.1742C166.391 46.2495 168.371 46.5387 169.908 46.7408C171.039 46.8914 172.051 47.3391 172.342 47.4778C172.836 47.7116 173.521 47.7314 173.827 47.4778C174.114 47.2361 174.739 46.7725 174.974 46.5585C175.257 46.301 175.703 45.9365 175.385 45.6948L175.389 45.6908ZM160.986 44.7993C160.15 44.8429 159.322 44.9063 158.557 44.9855C158.565 44.7319 158.573 44.3555 158.557 44.0068C158.533 43.464 158.449 42.9528 158.449 42.9528C158.449 42.9528 159.692 42.834 160.907 42.7151C160.978 42.9251 161.09 43.3134 161.094 43.7215C161.094 44.2644 161.042 44.6012 160.986 44.8032V44.7993ZM165.025 44.1851C164.957 44.4229 164.89 44.6012 164.83 44.72C164.683 44.7161 164.543 44.7121 164.42 44.7121C163.858 44.7121 163.257 44.7161 162.639 44.7319C162.635 44.3793 162.627 43.8047 162.655 43.563C162.695 43.2302 162.548 42.8102 162.185 42.6042C162.173 42.5962 162.161 42.5923 162.145 42.5883C162.663 42.5368 163.058 42.4932 163.161 42.4813C163.316 42.4576 164.153 42.4377 165.089 42.4259C165.157 42.5883 165.232 42.8023 165.248 42.9925C165.284 43.3649 165.101 43.9196 165.025 44.1851V44.1851ZM168.98 43.8959C168.9 44.407 168.793 44.7636 168.713 44.9855C167.98 44.9221 167.236 44.8627 166.551 44.8151C166.698 44.3238 167.009 43.3293 167.025 43.2223C167.072 42.9251 167.1 42.6279 167.088 42.4259C167.566 42.4338 167.929 42.4457 168.032 42.4655C168.43 42.5487 168.896 42.5962 169.056 42.7706C169.215 42.941 169.064 43.3491 168.98 43.8959V43.8959Z" fill="#231815"/>
<path d="M148.655 45.8453C148.122 45.9126 144.079 45.5917 141.303 45.0607C138.714 44.5654 134.44 43.8681 133.512 43.7769C131.632 43.5867 131.258 43.5867 130.481 43.7571C129.86 43.8918 129.736 43.88 129.736 43.88C129.665 43.7334 129.725 43.7215 129.983 43.3847C130.342 42.9171 130.724 42.4615 131.015 42.2079C131.25 42.0018 131.688 41.5937 131.76 41.1737C131.812 40.8686 131.612 40.2663 131.517 39.9731C131.377 39.5452 131.322 39.2956 131.206 39.149C130.804 38.9826 129.736 39.1331 128.896 38.939C127.936 38.7171 127.426 38.4714 127.036 38.2535C126.936 38.1624 126.817 38.3129 126.793 38.4635C126.849 38.7171 127.076 40.096 127.343 40.3892C127.598 40.6705 128.115 40.4922 128.454 40.4645C128.677 40.4447 129.593 40.3892 129.8 40.4565C129.956 40.5952 129.852 40.8845 129.713 41.245C129.541 41.7522 129.207 42.1326 128.757 42.7507C128.534 43.0558 128.08 43.5273 127.868 43.6184C127.402 43.8166 126.765 43.6462 126.698 43.8126C126.63 43.979 126.407 45.0013 126.391 45.2707C126.375 45.5441 126.391 45.7502 126.594 45.7739C127.327 45.8611 127.414 46.1028 127.693 46.2653C127.809 46.3326 128.008 46.2851 128.414 46.0077C128.785 45.7541 130.406 44.9696 131.808 44.9022C133.21 44.8349 135.281 45.4213 136.033 45.5679C136.83 45.7224 142.287 47.2122 143.446 47.6838C143.884 47.8621 144.955 48.3811 145.365 48.4009C145.664 48.4128 147.046 47.7353 147.56 47.4619C148.141 47.1568 148.811 46.8953 149.077 46.6654C149.344 46.4317 149.683 46.0592 149.583 45.8928C149.484 45.7264 149.193 45.7739 148.659 45.8413L148.655 45.8453Z" fill="#231815"/>
<path d="M132.899 42.7309C133.17 42.9845 133.592 43.3767 134.285 43.1588C134.874 42.9726 137.507 42.8062 139.148 42.7309C139.132 43.1192 139.156 43.5313 139.311 43.6977C139.614 44.0265 139.98 44.5139 140.311 44.5099C140.626 44.5099 140.801 43.4916 140.853 42.6992C143.167 42.7863 145.094 43.2697 145.556 43.3252C146.098 43.3886 146.365 43.4877 146.672 43.3648C146.787 43.3173 148.221 42.0216 147.815 41.8988C147.544 41.8156 146.843 41.7205 146.046 41.6571C145.568 41.6175 143.824 41.5065 140.865 41.4986C140.865 41.2133 140.865 40.8646 140.865 40.4724C142.267 40.5358 143.796 40.6309 144.17 40.6626C144.605 40.6982 144.824 41.1143 145.102 41.1856C145.361 41.2529 146.078 40.5675 146.321 40.092C146.564 39.6165 146.273 38.9627 146.245 38.301C146.218 37.6354 146.361 36.8944 146.385 36.7003C146.421 36.4031 146.715 36.201 146.7 35.9474C146.684 35.7137 145.74 34.8459 145.437 34.7469C145.138 34.6438 144.995 34.7706 144.995 34.7706C144.995 34.7706 144.441 35.1193 143.792 35.0282C143.453 34.9806 142.028 34.9727 140.888 34.9727C140.888 34.8182 140.892 34.7072 140.896 34.6557C140.904 34.4933 140.92 34.2278 140.944 33.9267C141.502 33.9385 141.968 33.9544 142.251 33.9623C142.856 33.9821 144.732 34.0099 145.23 34.1525C145.728 34.2952 145.975 34.2872 146.198 34.2714C146.421 34.2555 146.604 34.2159 146.795 33.9108C146.942 33.677 147.166 32.3655 147.074 32.1793C146.827 31.9891 146.604 32.421 144.346 32.6548C143.792 32.7142 142.31 32.6785 141.088 32.6468C141.131 32.417 141.179 32.2348 141.239 32.1516C141.406 31.9217 141.115 31.4859 140.944 31.2838C140.821 31.1372 140.462 31.1174 139.905 31.1412C139.176 31.1768 138.77 31.3472 138.67 31.4146C138.511 31.5216 138.722 31.7157 138.853 31.9772C138.909 32.0882 138.989 32.3378 139.052 32.6112C137.734 32.635 135.34 32.734 134.982 32.7261C134.58 32.7142 134.086 32.734 133.779 32.738C133.552 32.738 132.935 32.7578 133.154 33.0589C133.52 33.5621 133.811 34.0336 134.281 34.1723C134.655 34.2793 136.408 34.0455 136.786 34.0099C137.487 33.9465 138.347 33.9227 139.188 33.9187C139.192 34.1961 139.204 34.5725 139.212 35.0004C138.355 35.048 135.603 35.2184 135.205 35.1193C134.862 35.0321 134.599 34.8578 134.4 34.7904C134.201 34.7231 133.958 34.8736 133.835 35.0084C133.711 35.1431 133.209 35.7771 133.245 35.8761C133.345 36.1852 133.691 36.2288 133.791 36.4942C133.89 36.7597 133.93 38.614 133.914 38.9588C133.894 39.3075 133.62 39.458 133.644 39.7869C133.655 39.9533 134.572 40.7259 134.727 40.9161C134.854 41.0746 135.189 41.138 135.308 41.0746C135.727 40.8488 137.909 40.5754 139.291 40.4842C139.279 40.8686 139.263 41.2529 139.251 41.5343C137.646 41.5818 135.061 41.6888 134.727 41.7165C134.444 41.7403 132.512 41.9661 132.512 41.9661C132.11 42.1484 132.68 42.5486 132.887 42.7428L132.899 42.7309ZM140.877 36.1059C141.928 36.0703 143.517 36.0465 144.282 36.1891C144.501 36.2288 144.76 36.3238 144.784 36.3952C144.836 36.5537 144.74 36.934 144.744 37.1044C144.744 37.1757 144.744 37.2471 144.744 37.3223C143.927 37.2708 142.115 37.1757 140.873 37.1401C140.873 36.7716 140.873 36.4229 140.877 36.1099V36.1059ZM140.869 38.2257C142.271 38.2456 143.935 38.3882 144.676 38.4595C144.676 38.5071 144.668 38.5546 144.664 38.5982C144.644 38.8359 144.66 39.1054 144.489 39.2242C144.154 39.4541 142.322 39.248 140.869 39.1727C140.869 38.8597 140.869 38.5427 140.869 38.2257V38.2257ZM135.571 36.4031C135.571 36.4031 137.583 36.2644 139.255 36.1772C139.263 36.4942 139.271 36.8191 139.279 37.1361C137.834 37.1916 136.029 37.3897 135.496 37.461C135.432 36.8667 135.396 36.4903 135.571 36.4031ZM136.404 39.4501C136.137 39.4818 135.806 39.4818 135.695 39.359C135.567 39.2163 135.587 39.0301 135.575 38.5744C136.26 38.5031 137.893 38.3407 139.299 38.2614C139.307 38.5982 139.311 38.9073 139.315 39.1727C138.041 39.2401 136.607 39.4224 136.4 39.4501H136.404Z" fill="#231815"/>
<path d="M127.841 33.0114C128.223 33.166 128.793 33.5345 129.286 33.8316C129.744 34.109 130.103 34.5052 130.394 34.4299C130.864 34.3032 130.764 33.7286 130.645 33.2135C130.517 32.6826 129.948 32.5875 129.661 32.5479C129.374 32.5082 128.641 32.3696 128.275 32.4052C127.992 32.433 127.327 32.4924 127.267 32.639C127.203 32.7935 127.681 32.9441 127.833 33.0075L127.841 33.0114Z" fill="#231815"/>
<path d="M127.35 36.316C127.9 36.6211 128.896 37.0609 129.278 37.2946C129.748 37.5839 130.389 37.996 130.684 37.893C130.979 37.7899 130.983 37.0609 130.891 36.4269C130.804 35.8405 129.724 35.678 129.418 35.6741C129.111 35.6701 128.111 35.6146 127.741 35.7137C127.454 35.789 126.829 35.8603 126.869 35.9752C126.884 36.0228 127.171 36.2129 127.354 36.316H127.35Z" fill="#231815"/>
<path d="M42.1761 35.3966C42.0765 35.3412 41.7897 35.3768 41.491 35.4125C41.1644 35.4521 40.798 35.4997 40.5033 35.46C39.9855 35.3887 35.8393 35.0519 34.1346 35.1153C32.9079 35.1589 29.6459 35.2738 28.0885 35.6185C28.0288 35.6304 27.9611 35.6463 27.8894 35.6621C27.1406 35.8325 26.4595 35.9751 26.3241 35.8919C26.1051 35.7572 25.3642 35.3332 25.2846 35.3332C25.2368 35.3491 25.0177 35.5749 24.95 35.8048C24.9261 35.9355 24.7071 37.1202 24.6115 37.2391C24.5318 37.3421 24.4322 37.8731 24.5756 38.0038C24.6274 38.0514 24.7469 38.1187 24.8704 38.1901C25.1213 38.3287 25.4041 38.4912 25.4638 38.6536C25.5514 38.8953 25.6669 41.5501 25.6351 42.1365C25.5594 43.5114 25.3921 44.4465 25.1492 44.8348C24.6832 45.5797 25.0018 46.0275 25.1731 46.2692C25.197 46.3009 25.2169 46.3326 25.2328 46.3603C25.3722 46.5862 25.7864 47.1686 25.8502 47.2003C25.9019 47.2003 26.2644 46.9903 26.5033 46.8516C26.6189 46.7843 26.7264 46.7209 26.81 46.6773C27.1287 46.5029 30.5022 45.7422 33.0393 45.6867C34.5966 45.655 36.5482 45.762 38.5357 45.9918L38.6154 45.9997C39.0654 46.0473 39.8501 46.4633 40.0213 46.5624C40.0492 46.5782 40.0771 46.598 40.109 46.6179C40.2324 46.6971 40.3997 46.8041 40.4754 46.7605C40.5789 46.6971 41.1604 46.1265 41.2799 45.9839C41.3875 45.8531 41.8654 45.3816 41.9291 45.3182C41.9491 45.235 41.9929 45.0369 41.9769 44.9656C41.973 44.9418 41.9252 44.8269 41.8694 44.6961C41.726 44.3593 41.5109 43.8522 41.499 43.6541C41.4791 43.3688 41.7101 41.0905 41.8176 40.298C41.8415 40.1237 41.8654 39.8938 41.8893 39.6521C41.957 38.9469 42.0367 38.1465 42.2119 37.8889C42.3991 37.6116 42.7456 37.0767 42.8134 36.9657C42.8811 36.8548 42.9169 36.7874 42.7536 36.3833C42.5784 35.9514 42.3912 35.5195 42.1841 35.4046L42.1761 35.3966ZM40.2125 37.9167C40.1528 38.4278 39.9855 40.2901 39.9218 41.241C39.9098 41.4273 39.8979 41.6927 39.8859 41.974C39.8461 42.8497 39.8142 43.4322 39.7664 43.5114C39.7545 43.5352 39.7386 43.5669 39.7226 43.6025C39.6589 43.7412 39.5673 43.9473 39.3363 44.0503C39.1491 44.1335 38.6671 44.0859 37.8745 44.0067C36.9465 43.9156 35.5485 43.7729 33.812 43.7848C30.773 43.8046 28.9648 44.082 28.4829 44.1652C28.4749 44.1652 27.9093 44.2603 27.6106 44.2563C27.527 44.2563 27.4632 44.2444 27.4433 44.2246C27.3915 44.1692 27.3716 43.9037 27.3796 43.3133C27.3796 43.3054 27.3915 42.4812 27.507 42.2514C27.6186 42.0256 28.8294 41.8037 29.8251 41.6571C31.5099 41.4114 35.6202 41.3916 36.0265 41.4035C36.2137 41.4074 36.5044 41.4431 36.8151 41.4748C37.4006 41.5382 38.1295 41.6174 38.3007 41.5342C38.4839 41.4431 38.9101 41.1023 39.0097 40.9478C39.1451 40.7339 39.0654 40.5674 38.8902 40.1989C38.6871 39.775 38.3724 39.3827 38.2211 39.3589C38.1494 39.347 37.775 39.3708 37.3408 39.3946C36.7554 39.4263 36.0225 39.4659 35.6919 39.4501C35.0029 39.4104 30.534 39.5055 29.1719 39.7948C28.2399 39.9929 27.6385 40.0761 27.5429 39.882C27.4353 39.6601 27.4234 38.9865 27.4154 38.4436C27.4154 38.3486 27.4115 38.2535 27.4075 38.1702C27.3955 37.8493 27.3955 37.6908 27.4553 37.6433C27.6982 37.4451 28.1363 37.3738 28.686 37.2827C28.7776 37.2668 28.8692 37.251 28.9648 37.2351C30.2592 37.0133 31.7807 36.8706 32.2786 36.8389C33.1508 36.7834 36.5522 36.7557 38.2171 37.0212C39.8063 37.2708 40.0333 37.3699 40.1368 37.4531C40.2444 37.5402 40.2284 37.8136 40.2125 37.9246V37.9167Z" fill="#231815"/>
<path d="M75.2223 21.2315C75.3258 21.0492 75.4294 20.8986 75.3697 20.8154C75.3139 20.7322 75.1785 20.4747 75.0749 20.4588C74.9714 20.439 74.7284 20.5222 74.6607 20.5539C74.6089 20.5777 74.5651 20.6134 74.6049 20.6688C74.6408 20.7243 74.7005 20.7322 74.7125 20.8352C74.7204 20.9383 74.5014 21.2671 74.0712 21.5366C73.5933 21.8337 73.1671 21.8179 73.1392 21.8258C73.1113 21.8337 73.0277 21.8654 73.0078 21.9486C72.9719 22.0834 72.8724 22.2854 72.7608 22.4558C72.6692 22.5985 72.5776 22.6896 72.5498 22.7688C72.5259 22.8362 72.6533 22.8956 72.8405 22.8758C73.0994 22.8481 73.8482 22.543 74.2624 22.2419C74.7404 21.8971 75.1028 21.4534 75.2263 21.2354L75.2223 21.2315Z" fill="#231815"/>
<path d="M76.7998 20.653C76.8595 20.6887 77.4131 21.18 77.5725 21.3504C77.7318 21.5207 78.4089 22.1151 78.5523 22.2696C78.7713 22.4994 78.7554 22.6817 78.8788 22.7609C79.0581 22.8758 79.4086 22.753 79.54 22.7015C79.6794 22.65 80.1375 22.4638 80.245 22.2894C80.3207 22.1745 80.2928 22.1111 80.233 22.0953C80.01 22.0319 79.2771 21.7426 78.7554 21.3821C78.5761 21.2592 78.1779 21.0453 77.7636 20.6768C77.6402 20.5658 77.5525 20.3994 77.441 20.4192C77.3892 20.4271 77.3414 20.443 77.1702 20.4628C76.9591 20.4826 76.8595 20.4628 76.7838 20.4668C76.7002 20.4747 76.7121 20.5975 76.8038 20.653H76.7998Z" fill="#231815"/>
<path d="M75.0868 23.0819C74.8876 23.3791 74.565 23.7436 74.4814 23.7991C74.3977 23.8546 74.0871 24.021 74.0552 24.12C74.0154 24.2429 74.103 24.5717 74.1189 24.6114C74.1588 24.7144 74.2982 24.7936 74.3619 24.8055C74.4296 24.8134 75.0469 24.6233 75.493 24.5717C76.0387 24.5083 77.1141 24.5242 77.3889 24.5995C77.5562 24.647 77.7991 24.8016 77.9943 24.8016C78.1456 24.8016 78.309 24.5797 78.3886 24.4925C78.4683 24.4093 78.5758 24.2825 78.5718 24.1557C78.5678 24.0883 78.3289 23.9655 78.1934 23.8268C78.1178 23.7515 77.8987 23.4702 77.7513 23.1651C77.6796 23.0185 77.6836 22.8719 77.5641 22.7372C77.4686 22.6263 77.1818 22.6381 76.9787 22.6857C76.8472 22.7174 76.7437 22.761 76.7636 22.8917C76.7835 23.0225 76.8831 23.0502 76.9667 23.2364C76.9986 23.3078 77.2893 23.6446 77.3212 23.704C77.365 23.7912 77.4566 23.9536 77.361 23.9536C77.2296 23.9536 76.9428 23.8189 76.2418 23.8466C76.0626 23.8546 75.6444 23.8902 75.5528 23.9219C75.3855 23.9814 75.1346 23.9774 75.2859 23.8546C75.5886 23.6049 75.8276 23.1929 75.9272 23.07C76.0068 22.971 76.1542 22.8997 76.1821 22.7689C76.202 22.6778 76.1223 22.5232 76.0068 22.3647C75.9112 22.23 75.7519 21.9764 75.6563 22.0042C75.5607 22.0319 75.4452 22.1429 75.4452 22.1429C75.3974 22.1983 75.3974 22.341 75.3855 22.4281C75.3775 22.5113 75.3218 22.7332 75.0908 23.0819H75.0868Z" fill="#231815"/>
<path d="M83.2078 21.9209C82.7697 22.2339 82.4551 22.226 82.3356 22.2339C82.2798 22.2339 82.1165 22.2815 82.0568 22.3805C82.0289 22.4241 81.8975 22.6262 81.7621 22.8085C81.6227 22.9987 81.4912 23.0898 81.4912 23.1571C81.4912 23.2602 81.6704 23.2879 81.8019 23.2681C81.9333 23.2483 82.4551 23.1888 82.8096 22.9788C82.8096 22.9788 82.8096 22.9788 82.8135 22.9788C82.8135 22.9868 82.8056 23.0026 82.8016 23.0066C82.7737 23.062 82.7936 23.1453 82.8215 23.1651C82.8494 23.1849 82.9729 23.276 83.0127 23.3315C83.0525 23.387 83.0963 23.589 83.1202 23.7871C83.1282 23.8505 83.1441 24.0249 83.1481 24.1041C82.9848 24.1239 82.8613 24.1398 82.8135 24.1477C82.5706 24.1794 82.0966 24.2547 81.9373 24.2587C81.778 24.2587 81.6426 24.2507 81.5908 24.2745C81.539 24.2983 81.6147 24.4211 81.6505 24.4568C81.8059 24.6073 81.9851 24.857 82.2081 24.8609C82.4909 24.8609 82.5108 24.7421 82.8653 24.6826C83.2238 24.6232 84.2554 24.4528 85.502 24.4766C86.1393 24.4885 86.9478 24.6747 87.0633 24.7302C87.1788 24.7856 87.5373 24.9045 87.593 24.8847C87.6488 24.8649 87.9395 24.6549 88.0232 24.5717C88.1068 24.4845 88.2821 24.326 88.3538 24.2507C88.4294 24.1755 88.5449 24.12 88.4852 24.0487C88.4255 23.9773 88.2303 24.0328 87.9196 24.0645C87.7444 24.0843 87.2226 24.0922 87.0832 24.0922C87.0514 24.0922 86.9637 24.0843 86.8403 24.0724C86.8761 23.9734 86.9279 23.8109 86.9916 23.597C87.0513 23.3949 87.1191 23.2087 87.1509 23.1532C87.1868 23.0937 87.3142 23.0462 87.3421 22.9868C87.4935 23.1334 87.6289 23.2602 87.6807 23.2919C87.8041 23.3671 88.0471 23.2839 88.0471 23.2839C88.0471 23.2839 88.7999 23.062 88.8755 23.0462C88.9512 23.0264 89.1742 22.9392 89.1981 22.8837C89.23 22.7966 89.1105 22.86 88.8715 22.7728C88.7481 22.7292 87.9953 22.4994 87.4656 22.0596C87.0115 21.6792 86.5774 21.3385 86.211 21.1998C86.7805 21.2315 87.3023 21.2711 87.37 21.279C87.4935 21.2988 87.7603 21.4058 87.9117 21.3503C88.0272 21.3068 88.1506 21.1205 88.2263 21.0373C88.3418 20.9145 88.4374 20.8392 88.4454 20.7837C88.4533 20.7283 88.4294 20.6332 88.3179 20.6411C88.1387 20.653 87.2465 20.6886 87.1708 20.6807C87.131 20.6767 86.7765 20.6649 86.3344 20.653C86.4858 20.55 86.6849 20.3875 86.7885 20.2171C86.8681 20.0824 86.7487 19.9517 86.665 19.8288C86.5814 19.706 86.3344 19.4405 86.2428 19.5198C86.1313 19.6149 86.1353 19.8922 85.8246 20.2845C85.725 20.4113 85.6454 20.542 85.5339 20.6371C85.3467 20.6371 85.1674 20.6332 85.0081 20.6332C84.8408 20.6332 84.6258 20.6411 84.3987 20.6569C84.3788 20.6252 84.3589 20.5856 84.327 20.542C84.2036 20.3439 84.092 20.0745 84.0363 19.8962C83.9805 19.7179 83.9128 19.5871 83.8571 19.6069C83.8013 19.6267 83.5743 19.8883 83.5185 19.9517C83.4627 20.019 83.3791 20.122 83.3791 20.122C83.3791 20.1775 83.4428 20.3083 83.5783 20.4786C83.63 20.546 83.7097 20.6332 83.7894 20.7045C83.3194 20.7441 82.9051 20.7877 82.8175 20.7996C82.5746 20.8313 81.8178 20.8947 81.7541 20.9026C81.6864 20.9105 81.6147 20.9541 81.6147 21.0254C81.6147 21.0968 81.8696 21.4018 81.9612 21.4573C82.0887 21.5326 82.244 21.4098 82.5945 21.3503C82.7857 21.3186 83.2795 21.2671 83.7973 21.2275C83.7973 21.2671 83.7893 21.3028 83.7694 21.3345C83.6898 21.4811 83.5384 21.6951 83.2078 21.9328V21.9209ZM83.7296 24.0368C83.7177 23.91 83.6977 23.6802 83.6858 23.4821C83.6738 23.3275 83.5703 23.0977 83.5703 23.0977C83.5703 23.0977 83.8053 23.0303 84.1558 22.9749C84.1876 23.0383 84.2195 23.1254 84.2315 23.2126C84.2673 23.4662 84.2713 23.8347 84.2713 23.9892C84.0881 24.0051 83.9049 24.0209 83.7336 24.0368H83.7296ZM85.3268 23.9575C85.2431 23.9575 85.1635 23.9536 85.0838 23.9536C84.9962 23.9536 84.9046 23.9536 84.809 23.9575C84.8169 23.906 84.8249 23.8307 84.8369 23.7198C84.8488 23.5692 84.8647 23.1571 84.8289 23.0541C84.813 23.0105 84.7891 22.9551 84.7612 22.9075C84.8448 22.9036 84.9324 22.8956 85.0201 22.8956C85.1316 22.8956 85.2272 22.8917 85.3228 22.8917C85.3546 22.9749 85.3865 23.0858 85.3865 23.2047C85.3865 23.4226 85.3467 23.7792 85.3268 23.9615V23.9575ZM86.5097 23.4702C86.4738 23.7039 86.4221 23.9258 86.3782 24.0249C86.211 24.009 86.0238 23.9932 85.8286 23.9813C85.8565 23.8505 85.9083 23.6445 85.9202 23.5613C85.9361 23.4504 85.9999 23.1334 85.9322 22.9749C85.9162 22.9432 85.8923 22.9115 85.8684 22.8837C86.3344 22.8917 86.5097 22.9273 86.5415 23.0264C86.5535 23.0581 86.5256 23.3513 86.5097 23.4662V23.4702ZM84.1757 21.8377C84.2434 21.7981 84.2753 21.7545 84.3948 21.7188C84.4903 21.6911 84.5899 21.4652 84.57 21.4098C84.5501 21.3385 84.4505 21.2354 84.3948 21.176C84.6098 21.1641 84.805 21.1562 84.9683 21.1522C85.1037 21.1522 85.275 21.1522 85.4622 21.1601C85.4184 21.2354 85.3546 21.3345 85.3427 21.3583C85.3228 21.3939 85.259 21.4811 85.2869 21.5168C85.3148 21.5524 85.4184 21.5524 85.4662 21.5445C85.514 21.5366 85.7768 21.489 85.964 21.6277C86.1074 21.7347 86.43 22.119 86.6451 22.3369C86.6172 22.3568 86.5814 22.3766 86.5176 22.3766C86.2588 22.3686 85.5856 22.3568 85.3467 22.3607C85.1674 22.3607 83.9606 22.4241 83.7455 22.4677C83.6659 22.4836 83.5623 22.4875 83.4667 22.4875C83.4986 22.4558 83.5344 22.4281 83.5663 22.3964C83.7854 22.1983 84.0881 21.8813 84.1717 21.8298L84.1757 21.8377Z" fill="#231815"/>
<path d="M91.5563 20.6767C91.6121 20.756 91.7435 20.9026 91.8312 20.9026C92.0303 20.8947 92.1896 20.8313 92.6078 20.8075C92.7433 20.7996 92.7672 20.8273 92.9026 20.76C92.9743 20.7243 93.034 20.6292 93.03 20.5856C93.0221 20.5301 93.026 20.439 92.8189 20.3796C92.6716 20.336 92.3928 20.2686 92.106 20.2132C91.9068 20.1775 91.409 20.1498 91.3413 20.1735C91.2855 20.1894 91.3094 20.2488 91.3333 20.3162C91.3612 20.3875 91.5046 20.6015 91.5563 20.6807V20.6767Z" fill="#231815"/>
<path d="M90.6559 24.021C90.7993 24.0052 91.5401 23.9338 92.1017 23.2999C92.1017 23.2999 92.1057 23.2919 92.1097 23.2919C92.1177 23.4267 92.1256 23.6406 92.1256 23.8268C92.1256 24.3023 92.042 24.5123 92.0659 24.6748C92.0818 24.7897 92.1455 24.8967 92.1774 24.9284C92.2451 24.9997 92.3367 25.1106 92.4403 25.1106C92.5438 25.1106 92.6593 24.857 92.6753 24.5955C92.6952 24.334 92.6514 23.7516 92.6514 23.601C92.6514 23.4861 92.6394 23.1097 92.6315 22.9155C92.7868 23.0502 92.9979 23.2365 93.0935 23.3395C93.1692 23.4227 93.4639 23.7516 93.5436 23.7476C93.7268 23.7436 93.7467 23.601 93.7387 23.3831C93.7347 23.2602 93.6949 22.9116 93.5276 22.8363C93.3564 22.761 93.2807 22.7253 93.0775 22.5589C92.962 22.4638 92.8465 22.3767 92.7629 22.3133C92.8784 22.131 92.962 21.9963 92.962 21.9963C93.1014 21.818 93.3962 21.8616 93.4719 21.8536C93.5475 21.8457 93.679 21.8616 93.6989 21.7982C93.7188 21.7348 93.6989 21.6199 93.5953 21.4217C93.4918 21.2236 93.3125 21.0374 93.2169 21.0651C93.1214 21.0929 93.0576 21.1483 92.8784 21.2514C92.6992 21.3544 91.345 21.5366 90.9427 21.5287C90.8033 21.5287 90.6241 21.5287 90.5882 21.5565C90.5404 21.5961 90.6121 21.6912 90.6838 21.7863C90.8232 21.9646 90.9188 22.1706 91.0741 22.1746C91.2016 22.1746 91.6676 22.028 91.7512 22.0002C91.8787 21.9606 92.277 21.8695 92.3248 21.8814C92.3845 21.8972 92.3248 22.0676 92.2611 22.1825C92.1495 22.3806 91.8787 22.7491 91.5282 22.9987C91.3569 23.1176 91.1458 23.2285 90.8312 23.3355C90.7515 23.3633 90.632 23.3831 90.5683 23.4544C90.5046 23.5257 90.401 23.6763 90.3453 23.815C90.2895 23.9536 90.413 24.0448 90.6559 24.017V24.021Z" fill="#231815"/>
<path d="M98.2237 23.9774C98.1481 23.9496 96.4474 23.6802 96.2681 23.6762C96.2442 23.6762 96.2203 23.6762 96.1885 23.6762C96.1765 23.4464 96.1606 23.074 96.1566 22.9274C96.1566 22.8283 96.1486 22.4479 96.1486 22.0556C96.3717 22.0556 96.5668 22.0675 96.6306 22.0755C96.985 22.119 97.1165 22.1745 97.1802 22.1666C97.2718 22.1547 97.5666 21.7347 97.5307 21.6039C97.4949 21.4732 97.3754 21.39 97.3196 21.4098C97.228 21.4455 96.5947 21.4098 96.1447 21.3939C96.1447 21.2117 96.1447 21.077 96.1486 21.0492C96.1606 20.9462 96.1885 20.5936 96.2283 20.5064C96.3279 20.2845 96.3358 20.2251 96.2442 20.1339C96.1924 20.0824 95.7264 19.8645 95.595 19.8645C95.4636 19.8645 95.3998 19.916 95.3282 19.9992C95.2485 20.0904 95.1927 20.1577 95.1848 20.2092C95.1768 20.2647 95.2644 20.3241 95.3082 20.4351C95.3481 20.5341 95.3959 21.2117 95.4078 21.4058C94.9856 21.4534 94.6033 21.5485 94.5077 21.5485C94.3842 21.5485 94.1492 21.5128 94.0576 21.5207C93.966 21.5287 93.9501 21.6277 93.9859 21.7109C94.0218 21.7941 94.2408 22.02 94.3484 22.0992C94.5515 22.2498 95.0454 22.1309 95.2963 22.0794C95.3202 22.0755 95.356 22.0715 95.4038 22.0675C95.3999 22.4281 95.3919 22.8323 95.3879 22.9234C95.376 23.1453 95.356 23.4781 95.3441 23.6841C95.1569 23.7 94.9378 23.7198 94.6789 23.7594C94.3802 23.807 93.8903 23.906 93.7031 23.9179C93.5398 23.9258 93.3487 23.8704 93.3009 23.9536C93.277 23.9932 93.3566 24.124 93.3566 24.124C93.3566 24.124 93.5637 24.5479 93.7629 24.5559C93.8824 24.5598 94.7228 24.3102 95.7464 24.2864C96.519 24.2706 97.5586 24.5559 97.6263 24.5757C97.694 24.5955 97.8454 24.5915 97.929 24.4845C97.9768 24.4211 98.1839 24.1953 98.2317 24.1319C98.2795 24.0685 98.2994 24.0091 98.2237 23.9813V23.9774Z" fill="#231815"/>
<path d="M100.183 22.0993C100.199 22.2657 100.211 23.4544 100.135 23.7833C100.099 23.9378 99.9839 24.231 99.9839 24.3063C99.9839 24.3816 100.02 24.5044 100.095 24.6075C100.171 24.7105 100.442 25.0948 100.565 25.0948C100.689 25.0948 100.932 24.9284 101.083 24.869C101.314 24.7778 102.274 24.6312 103.457 24.5876C104.174 24.5599 105.397 24.7461 105.592 24.8016C105.791 24.8571 105.97 25.0156 106.058 25.0156C106.161 25.0156 106.233 24.9997 106.309 24.869C106.384 24.7382 106.588 24.4688 106.572 24.2469C106.556 24.0408 106.44 23.6922 106.432 23.498C106.424 23.2999 106.5 21.2633 106.536 21.1286C106.584 20.9423 106.651 20.7006 106.747 20.6174C106.862 20.5104 106.878 20.3718 106.838 20.3044C106.803 20.237 106.42 19.9161 106.313 19.8606C106.229 19.817 106.102 19.8606 106.074 19.8804C106.046 19.9003 105.815 20.0191 105.564 19.9953C105.46 19.9874 104.345 19.8844 103.13 19.928C102.37 19.9557 101.075 20.1023 100.916 20.1182C100.677 20.142 100.581 20.0469 100.506 20.0072C100.43 19.9716 100.283 19.928 100.191 20.027C100.139 20.0786 99.8644 20.4708 99.8604 20.5976C99.8565 20.764 99.9799 20.7918 100.06 20.9938C100.139 21.1959 100.151 21.7506 100.187 22.0874L100.183 22.0993ZM100.757 20.9423C100.78 20.768 100.86 20.7284 100.944 20.6848C101.031 20.6372 102.429 20.4906 103.154 20.4708C104.138 20.4431 105.616 20.5699 105.807 20.6848C105.95 20.772 105.891 21.2355 105.883 21.3306C105.875 21.4257 105.811 22.6937 105.803 22.8878C105.791 23.1414 105.791 23.7318 105.644 23.9933C105.584 24.0963 105.337 24.1874 105.13 24.1676C104.939 24.1478 104.126 24.0844 103.266 24.1122C102.274 24.1439 101.625 24.2429 101.334 24.2984C101.243 24.3142 101.008 24.3618 100.968 24.3182C100.836 24.1716 100.852 23.811 100.836 23.6525C100.82 23.494 100.8 22.9512 100.804 22.4797C100.808 21.9884 100.729 21.1127 100.753 20.9423H100.757Z" fill="#231815"/>
<path d="M101.525 21.9486C101.613 21.9447 102.27 21.8258 102.438 21.7901C102.609 21.7545 103.66 21.6832 103.82 21.6871C103.971 21.6871 104.114 21.699 104.25 21.7149C104.258 21.8734 104.266 22.0754 104.266 22.3052C104.266 22.5351 104.246 22.8956 104.146 23.0264C103.987 23.2403 103.405 23.272 103.127 23.2641C102.88 23.2562 102.505 23.2641 102.378 23.2443C102.282 23.2285 102.23 23.2602 102.254 23.3117C102.358 23.5336 102.712 23.7317 102.931 23.7871C103.409 23.91 103.943 23.9456 104.21 23.8902C104.489 23.8307 104.684 23.7158 104.728 23.5454C104.76 23.4147 104.764 23.3037 104.776 23.1056C104.783 22.9234 104.815 22.0992 104.843 21.8139C104.875 21.8218 104.907 21.8258 104.927 21.8298C105.058 21.8575 105.194 21.9605 105.313 21.9367C105.433 21.913 105.473 21.7584 105.556 21.6435C105.64 21.5326 105.747 21.3226 105.676 21.275C105.6 21.2275 105.512 21.2037 105.281 21.2354C105.249 21.2394 105.122 21.2354 104.943 21.2354C104.951 21.2037 104.963 21.18 104.971 21.1641C105.018 21.0967 104.995 20.9898 104.951 20.9501C104.823 20.8352 104.505 20.7203 104.365 20.7084C104.138 20.6886 103.895 20.7084 103.887 20.7877C103.879 20.8669 103.995 20.8986 104.047 20.9739C104.094 21.0452 104.134 21.1324 104.166 21.2196C103.859 21.2156 103.569 21.2156 103.393 21.2235C102.712 21.2592 102.091 21.3305 101.876 21.3503C101.661 21.3701 101.514 21.4018 101.187 21.386C101.119 21.386 100.952 21.3583 100.972 21.4692C100.984 21.5445 101.04 21.6832 101.111 21.7584C101.183 21.8337 101.334 21.9566 101.518 21.9447L101.525 21.9486Z" fill="#231815"/>
<path d="M102.47 22.6817C102.545 22.5589 102.78 22.2142 102.828 22.1389C102.876 22.0636 102.924 21.9804 102.88 21.9289C102.852 21.8972 102.772 21.9051 102.677 21.9289C102.629 21.9408 102.414 22.0675 102.318 22.1349C102.223 22.2023 101.952 22.3409 101.856 22.3608C101.761 22.3806 101.597 22.3528 101.585 22.4757C101.577 22.5708 101.681 22.7055 101.785 22.8006C101.888 22.8957 101.996 22.9868 102.127 22.9789C102.247 22.9709 102.39 22.8006 102.466 22.6777L102.47 22.6817Z" fill="#231815"/>
<path d="M109.276 21.4217C109.4 21.4217 109.909 21.1444 110.009 21.073C110.121 20.9938 110.507 20.7402 110.606 20.6451C110.65 20.6015 110.746 20.4747 110.71 20.447C110.674 20.4193 110.654 20.3995 110.551 20.4272C110.447 20.4549 109.965 20.5579 109.75 20.5579C109.408 20.5579 109.324 20.3519 109.208 20.3796C109.097 20.4074 109.093 20.4589 109.069 20.4946C109.045 20.5302 108.942 20.8155 108.965 21.1087C108.973 21.1919 109.228 21.4178 109.276 21.4178V21.4217Z" fill="#231815"/>
<path d="M109.24 22.9274C109.352 22.9631 109.655 22.8957 109.878 22.7016C110.021 22.5788 110.427 22.238 110.527 22.0557C110.587 21.9448 110.571 21.8774 110.527 21.8576C110.479 21.8378 110.22 21.9686 110.109 22.024C109.882 22.1429 109.448 22.2063 109.217 22.2221C109.097 22.2301 108.77 22.2142 108.739 22.238C108.699 22.2737 108.707 22.3925 108.798 22.5352C108.89 22.6778 109.125 22.8878 109.236 22.9235L109.24 22.9274Z" fill="#231815"/>
<path d="M110.483 23.2285C110.355 23.395 109.913 23.8506 109.73 23.9576C109.611 24.0289 109.439 24.0923 109.356 24.0804C109.272 24.0725 109.208 24.0091 109.145 24.0606C109.069 24.1201 109.105 24.2984 109.125 24.4172C109.141 24.5242 109.196 24.6827 109.26 24.7501C109.344 24.8412 109.838 25.1344 109.925 25.1542C110.001 25.1701 110.077 25.071 110.097 24.9838C110.117 24.8967 110.535 23.9933 110.614 23.7199C110.658 23.5653 110.746 23.2325 110.662 23.1216C110.579 23.0106 110.551 23.1334 110.483 23.2246V23.2285Z" fill="#231815"/>
<path d="M111.252 22.9155C111.308 22.9631 111.415 22.967 111.487 22.9551C111.594 22.9393 112.439 22.7451 112.921 22.6778C112.909 22.7412 112.881 22.8244 112.825 22.9155C112.718 23.0938 112.499 23.4544 112.383 23.5574C112.268 23.6604 111.917 23.8586 111.837 23.9061C111.738 23.9655 111.734 24.0448 111.742 24.1003C111.758 24.2072 111.845 24.3301 111.877 24.4093C111.981 24.647 111.937 24.7144 112.005 24.7659C112.048 24.8016 112.148 24.7223 112.236 24.7025C112.407 24.6589 112.666 24.6114 112.745 24.5955C112.925 24.5638 114.14 24.5203 114.402 24.5678C114.665 24.6193 115.056 24.8491 115.123 24.8769C115.187 24.9046 115.291 24.9165 115.354 24.8174C115.41 24.7303 115.518 24.4608 115.585 24.3855C115.653 24.3103 115.697 24.2429 115.665 24.1518C115.617 24.021 115.259 23.918 115.183 23.8031C115.111 23.6882 114.809 23.2365 114.777 23.1493C114.749 23.0701 114.534 23.0423 114.402 23.0304C114.271 23.0185 114.179 22.9353 114.12 22.9987C114.064 23.0621 113.956 23.1453 113.992 23.2404C114.028 23.3355 114.139 23.3078 114.319 23.498C114.47 23.6565 114.844 23.9061 114.749 23.9893C114.653 24.0725 114.637 24.0567 114.534 24.0369C114.43 24.017 113.598 23.9735 113.223 24.017C112.929 24.0527 112.73 24.0963 112.69 24.0487C112.682 24.0408 112.674 24.0131 112.698 23.9814C112.797 23.8387 113.128 23.5376 113.223 23.4385C113.339 23.3197 113.49 23.181 113.558 23.1453C113.626 23.1097 113.681 23.074 113.662 22.9987C113.654 22.967 113.506 22.7689 113.379 22.6421C113.777 22.6302 114.482 22.6302 114.928 22.6976C115.45 22.7768 115.653 22.9076 115.717 22.9235C115.892 22.967 116.004 22.975 116.115 22.8521C116.175 22.7848 116.366 22.4401 116.406 22.3687C116.446 22.2934 116.529 22.131 116.477 22.1112C116.35 22.0636 115.976 22.1667 115.749 22.135C115.585 22.1112 114.765 22.0399 114.056 22.02C114.04 21.8338 114.016 21.5327 114.02 21.3187C114.02 21.2712 114.02 21.2157 114.028 21.1602C114.056 21.1602 114.084 21.1602 114.104 21.1602C114.426 21.1602 115.083 21.2434 115.203 21.2633C115.326 21.2831 115.454 21.2276 115.549 21.0889C115.645 20.9502 115.753 20.8195 115.677 20.7442C115.601 20.6689 115.394 20.6848 115.291 20.6808C115.215 20.6808 114.689 20.661 114.068 20.657C114.084 20.5302 114.1 20.4312 114.112 20.3955C114.147 20.2965 114.203 20.2489 114.191 20.1736C114.175 20.0944 113.674 19.7853 113.526 19.7774C113.383 19.7695 113.148 19.924 113.104 19.9914C113.076 20.031 113.144 20.1261 113.184 20.2093C113.223 20.2885 113.315 20.5223 113.331 20.5699C113.331 20.5778 113.339 20.6174 113.339 20.6649C113.092 20.6768 112.299 20.764 112.168 20.7561C112.033 20.7482 111.909 20.6848 111.849 20.7125C111.786 20.7442 111.511 20.9463 111.451 21.0334C111.419 21.077 111.459 21.1483 111.551 21.2038C111.642 21.2593 111.905 21.4059 112.056 21.39C112.208 21.3742 112.654 21.2474 112.841 21.2236C112.992 21.2038 113.172 21.188 113.355 21.18C113.355 21.3623 113.355 21.5327 113.355 21.5961C113.347 21.7189 113.355 21.917 113.343 22.028C112.853 22.0636 112.072 22.1548 111.861 22.1944C111.634 22.2419 110.981 22.341 110.933 22.3648C110.85 22.4044 110.866 22.4995 110.949 22.5748C110.997 22.6184 111.188 22.8601 111.244 22.9076L111.252 22.9155Z" fill="#231815"/>
<path d="M125.65 24.2825C125.256 24.2904 125.076 24.2825 124.332 23.9417C124.129 23.8506 123.212 23.2919 123.101 23.2126C122.989 23.1334 122.014 22.4757 121.95 22.4123C121.838 22.3013 121.755 22.123 121.683 22.1032C121.643 22.0913 121.572 22.1032 121.516 22.123C121.599 21.9328 121.675 21.7664 121.695 21.707C121.747 21.5762 121.938 20.859 121.954 20.6292C121.966 20.3994 121.814 20.3638 121.579 20.1656C121.492 20.0904 121.309 19.9715 121.245 19.9834C121.129 20.0032 121.022 20.1577 120.878 20.3954C120.751 20.6094 120.62 20.6807 120.647 20.8234C120.663 20.9066 120.914 21.1047 120.938 21.2077C120.962 21.3107 120.978 21.6713 120.815 22.0755C120.643 22.5074 120.397 22.7174 120.233 22.9036C120.066 23.0858 119.763 23.3355 119.066 23.6089C118.66 23.7674 118.043 23.91 117.959 23.9258C117.875 23.9417 117.792 23.9655 117.768 23.9972C117.68 24.1121 117.863 24.3062 117.943 24.3617C118.27 24.5757 118.481 24.6589 118.604 24.6826C118.728 24.7064 119.014 24.6708 119.122 24.6351C119.68 24.4409 120.086 24.1517 120.289 23.9457C120.91 23.3157 121.149 22.8917 121.217 22.7689C121.221 22.7609 121.229 22.7491 121.233 22.7411C121.265 22.7649 121.337 22.7926 121.492 22.7966C121.603 22.7966 121.926 23.0264 122.185 23.2087C122.444 23.3949 123.256 24.0566 123.443 24.2587C124.483 25.3602 124.698 25.2928 124.901 25.2334C125.18 25.1502 125.554 24.8213 125.67 24.6985C125.801 24.5559 126.068 24.3379 126.036 24.2943C126 24.2428 125.841 24.2864 125.658 24.2904L125.65 24.2825Z" fill="#231815"/>
</g>
<rect x="0.5" y="0.5" width="199" height="67" stroke="#E0E0E0"/>
<defs>
<clipPath id="clip0_283_1881">
<rect width="151" height="29" fill="white" transform="translate(24.5 19.5)"/>
</clipPath>
</defs>
</svg>
