<svg width="223" height="68" viewBox="0 0 223 68" fill="none" xmlns="http://www.w3.org/2000/svg">
<rect x="0.5" y="0.5" width="222" height="67" fill="white"/>
<path d="M32.3154 25.3148C32.3038 25.077 32.0059 24.9454 31.8443 25.1209C31.7704 25.1971 31.7404 25.3957 31.6988 25.5204C31.5464 25.9683 31.3063 26.1969 30.8052 26.2916C31.2462 26.3955 31.6688 26.2477 31.9274 26.033C32.1052 25.8898 32.3269 25.6266 32.3131 25.3125L32.3154 25.3148Z" fill="#1F286F"/>
<path d="M32.1922 26.4204C32.5085 26.335 32.8064 26.0371 32.8457 25.7092C32.8665 25.5175 32.8157 25.3674 32.6379 25.3928C32.4439 25.4182 32.4185 25.7161 32.34 25.8477C32.1483 26.1641 31.8019 26.3165 31.3447 26.3696C31.4417 26.4573 31.6034 26.462 31.7396 26.462C31.8897 26.462 32.0629 26.4573 32.1945 26.4204H32.1922Z" fill="#1F286F"/>
<path d="M33.8902 44.4007C33.7308 44.3222 33.366 44.3938 33.1974 44.41C33.0473 44.4238 32.597 44.4885 32.5301 44.3684C32.5001 44.313 32.5185 44.2091 32.5301 44.119C32.5624 43.8373 32.597 43.6041 32.6409 43.3639C32.9942 43.3362 33.3568 43.2438 33.396 42.9182C33.2113 42.9852 32.9134 43.0476 32.7102 42.9529C32.7841 42.4495 32.8741 41.9369 33.0104 41.4889C33.0566 41.3434 33.0935 41.1217 33.1997 41.0871C33.2667 41.064 33.3683 41.0917 33.4653 41.094C34.1696 41.1263 34.7584 40.9855 35.0563 40.6068C34.5414 40.7084 33.7078 40.8469 33.2944 40.5652C33.1859 40.489 33.0843 40.3736 32.985 40.2719C32.6802 39.9718 32.3823 39.63 32.1445 39.2952C31.9736 39.279 31.7681 39.2952 31.5972 39.279C31.775 39.2028 31.9967 39.1682 32.2137 39.1358C32.1375 39.0065 32.0336 38.8749 31.9413 38.741C31.8466 38.6071 31.7173 38.4754 31.7011 38.3069C31.8212 38.2861 31.9066 38.3969 31.9828 38.4616C32.0636 38.5285 32.1491 38.6024 32.2322 38.6671C33.0912 39.3113 34.068 39.8794 35.1787 40.2673C35.6359 40.4267 36.137 40.5606 36.6866 40.5698C36.1739 40.3089 35.6636 40.0318 35.1972 39.7201C34.7307 39.4106 34.2666 39.0827 33.9456 38.6232C34.382 38.9303 34.8693 39.249 35.4188 39.4961C35.9638 39.7385 36.5988 39.9533 37.3216 39.9487C37.9243 39.9487 38.3838 39.787 38.7879 39.5653C37.5363 39.5815 36.6081 39.2698 36.0446 38.5955C37.2431 38.4085 38.0882 38.0667 38.8895 37.5425C39.6515 37.0414 40.3396 36.3833 40.8754 35.6236C41.4065 34.8778 41.836 33.9749 42.0069 32.848C42.0992 32.2292 42.0969 31.5941 41.9283 31.1092C41.7713 30.6543 41.4642 30.2248 41.037 30.047C40.5867 29.8623 40.1064 30.0909 40.0533 30.4834C40.0256 30.6867 40.0533 30.9014 40.0533 31.1C40.0395 32.497 39.7023 33.6655 39.2058 34.596C38.3538 36.1894 36.8875 37.2654 34.9339 37.755C34.2827 37.9189 33.523 38.0829 32.7402 38.0136C32.0082 37.9443 31.4679 37.6349 31.0453 37.2331C30.6135 36.8221 30.3202 36.321 30.1724 35.6236C30.4241 36.1224 30.7659 36.5773 31.133 36.9768C31.484 37.3578 31.9736 37.7388 32.6571 37.748C32.0775 37.4225 31.6411 36.956 31.424 36.2656C31.7427 36.8082 32.186 37.3001 32.8303 37.5425C33.5069 37.7988 34.4582 37.6834 35.0217 37.3624C33.911 37.3624 33.2136 36.9445 32.7194 36.3279C32.7264 36.3279 32.7287 36.3325 32.7356 36.3348C33.3545 36.7159 34.2158 37.18 35.2272 37.1084C36.1531 37.0391 36.7905 36.605 37.3077 36.1293C37.3401 36.0993 37.3978 36.0647 37.3862 36.0347C36.7143 36.3395 35.6013 36.411 34.6961 36.2748C34.3959 36.2286 34.1049 36.1847 33.8994 36.0439C35.1325 36.2055 36.5134 36.194 37.4116 35.7622C38.3238 35.3234 38.9149 34.5822 39.289 33.6308C39.2728 33.617 39.2243 33.6608 39.2035 33.6816C38.2522 34.5129 37.153 35.2934 35.3426 35.2057C35.9338 35.0533 36.5342 34.9309 37.0814 34.7254C38.139 34.3236 39.0419 33.707 39.4876 32.6771C39.7254 32.1299 39.8478 31.1993 39.6515 30.4858C39.5083 31.4464 39.0604 32.1737 38.5316 32.7649C37.9982 33.356 37.3216 33.8548 36.3794 34.0234C37.5271 33.4738 38.55 32.6887 39.0534 31.4718C39.3098 30.8506 39.4021 29.957 39.1989 29.2434C39.0073 28.5715 38.6309 28.0542 38.0513 27.7794C38.2083 28.1881 38.3168 28.6846 38.3168 29.218C38.3168 29.7561 38.2198 30.2802 38.0859 30.6982C37.8434 31.451 37.4417 32.0606 36.8944 32.4947C36.8159 32.5594 36.7374 32.6471 36.6288 32.6564C37.0168 32.2384 37.3631 31.7373 37.6241 31.1323C37.8758 30.5458 38.079 29.8346 38.0259 29.0079C37.9982 28.5184 37.8065 28.1004 37.5548 27.8002C37.3008 27.4954 36.9452 27.2645 36.4072 27.2691C36.4556 27.3522 36.5226 27.4215 36.578 27.5093C36.9752 28.1166 37.0491 29.1372 36.8713 30.0516C36.6889 30.9707 36.3009 31.7419 35.7975 32.3215C35.7883 32.3354 35.756 32.3516 35.7744 32.3723C35.8968 32.2292 36.1531 32.2823 36.2524 32.3977C36.5111 32.6956 36.3171 33.453 36.1578 33.7001C36.234 33.6909 36.2409 33.7116 36.2524 33.7509C36.2871 33.8779 36.1508 34.0603 36.0977 34.1458C35.8899 34.4898 35.6151 34.82 35.2826 34.9771C35.1718 35.2288 34.9639 35.4297 34.7169 35.5844C34.449 35.7552 34.1049 35.9307 33.6985 35.8938C33.6777 36.1247 33.3683 36.164 33.1743 36.194C32.7841 36.2563 32.283 36.254 31.9158 36.1847C31.7311 36.1524 31.5325 36.1085 31.394 36.0323C31.327 35.9954 31.2647 35.9076 31.1792 35.9215C31.133 35.9284 31.0961 35.9931 31.0684 36.0254C30.9114 36.2032 30.7105 36.03 30.6158 35.8615C30.4957 35.656 30.4634 35.305 30.6227 35.2103C30.625 35.2749 30.6181 35.3673 30.6227 35.4412C30.632 35.6259 30.7336 35.9815 30.9206 35.9561C31.0222 35.9423 31.0014 35.7899 31.1192 35.7737C31.0384 35.6952 31.0176 35.4735 31.0846 35.3627C31.0938 35.5289 31.1515 35.649 31.237 35.7391C31.5741 36.0901 32.6779 36.2055 33.3291 36.03C33.4168 36.0069 33.5323 35.9885 33.553 35.8938C33.4976 35.8476 33.4283 35.8638 33.3729 35.843C33.2482 35.7991 33.1443 35.7021 33.045 35.6213C32.9434 35.5359 32.8349 35.4435 32.7864 35.3211C32.9919 35.492 33.1836 35.6513 33.4815 35.716C33.9317 35.813 34.3243 35.6975 34.6037 35.5105C34.7931 35.3835 35.0032 35.2472 35.0655 35.0579C34.8092 35.1433 34.4744 35.051 34.3636 34.9193C34.5021 34.9309 34.5945 34.9794 34.733 34.9794C35.2595 34.9794 35.6451 34.5706 35.8876 34.2589C35.9846 34.1388 36.0816 33.9957 36.0931 33.8479C35.7906 34.0003 35.4396 34.2843 34.9778 34.2497C35.3034 34.0927 35.6844 34.0072 35.9638 33.7093C36.0677 33.5962 36.1531 33.4276 36.2016 33.2383C36.2755 32.9704 36.3032 32.3631 35.9546 32.3908C35.883 32.3954 35.756 32.4855 35.6821 32.534C35.4165 32.7118 35.1764 32.9057 34.9247 33.0651C34.5552 33.2983 34.1396 33.3861 33.6847 33.5269C34.1788 33.6147 34.3197 34.4644 33.9502 34.8131C33.5992 35.1756 32.6525 35.3027 32.2276 34.9332C32.1167 35.0486 31.9366 35.1318 31.7473 35.201C31.5787 35.2588 31.3109 35.3304 31.1215 35.2334C31.7404 35.1895 32.1352 34.9447 32.3223 34.4875C32.4608 34.1527 32.4285 33.7324 32.2784 33.453C32.0151 32.9542 31.2092 32.7072 30.5742 33.0512C30.2787 33.5269 30.1032 34.1204 30.0524 34.8408C29.8145 33.4807 30.5327 32.6425 31.14 31.9636C31.7842 31.2408 32.5878 30.6543 32.6987 29.4282C32.8418 29.4859 32.8834 29.6522 32.9388 29.7976C32.9665 29.8692 32.9942 29.9431 33.0173 30.0193C33.0381 30.0955 33.0404 30.1902 33.1097 30.2341C33.075 29.8831 33.1097 29.4605 33.0797 29.1118C33.0473 28.8116 32.9527 28.5899 32.8372 28.3844C32.9827 28.4398 33.052 28.6038 33.1374 28.7331C33.2044 28.8347 33.2783 28.9248 33.3614 28.9987C33.3845 29.0218 33.4053 29.0656 33.4376 29.0495C33.2852 28.7123 33.202 28.3475 33.0427 28.0311C32.9249 27.7933 32.7679 27.5947 32.597 27.4215C32.5393 27.3661 32.4654 27.3245 32.4239 27.2506C32.5947 27.2945 32.7864 27.3545 33.0081 27.3176C32.6409 27.1075 32.283 26.8904 31.8858 26.7103C31.4887 26.5302 31.0453 26.3939 30.4819 26.3847C30.4495 26.1653 30.6343 26.006 30.6112 25.8259C30.4195 25.7751 30.2417 25.8513 30.1055 25.9182C29.8076 26.0614 29.6113 26.3039 29.4705 26.5879C29.3989 26.7311 29.3781 26.9112 29.2395 27.0082C29.1587 26.9458 29.1887 26.7703 29.0687 26.768C29.0017 26.768 28.9486 26.8488 28.9324 26.8973C28.8909 27.0128 28.9139 27.1975 28.9417 27.3153C28.9624 27.4077 29.0179 27.4931 29.0271 27.5739C29.0433 27.724 29.0063 27.9249 29.0617 28.0265C28.8239 28.2297 28.7546 28.867 28.9671 29.158C29.1148 28.9779 29.168 28.5807 29.4543 28.5345C29.542 28.5184 29.646 28.5507 29.736 28.5414C29.8792 28.5299 30.0108 28.4676 30.1378 28.4144C30.5073 28.2574 30.8398 27.9988 31.2531 27.9272C31.5856 27.8695 31.7219 28.1905 31.7935 28.4237C31.9713 29.0056 31.7727 29.5575 31.5094 29.9292C31.3247 30.1948 31.1215 30.3934 30.8675 30.5897C30.3549 30.9868 29.773 31.2247 29.1887 31.5156C28.3297 31.9405 27.5654 32.527 27.1682 33.3999C27.0297 33.7001 26.9627 34.058 26.9258 34.4621C26.7595 36.2494 27.5238 37.3209 28.3551 38.1868C28.7639 38.6094 29.2465 39.0596 29.6921 39.4568C30.0339 39.7616 30.3826 40.0618 30.7105 40.3897C30.8005 40.4821 30.9783 40.6345 31.0107 40.7499C31.0453 40.8816 30.9899 41.0709 30.9668 41.2372C30.8513 42.1308 30.7382 43.0175 30.5973 43.8765C30.5558 44.1421 30.5534 44.4423 30.3502 44.5185C30.1586 44.5901 30.0039 44.4608 29.803 44.4677C29.6182 44.4746 29.5074 44.597 29.3758 44.6132C29.2903 44.6247 29.2557 44.5947 29.161 44.6132C29.0964 44.6709 29.131 44.7771 29.1264 44.8903C29.2534 44.754 29.549 44.821 29.7937 44.7933C29.96 44.7748 30.087 44.7194 30.2048 44.6986C30.0778 44.9041 29.6737 44.8579 29.3758 44.8949C29.2765 44.9087 29.1841 44.948 29.0918 44.9665C28.9347 44.9942 28.6738 44.9572 28.6045 45.0865C28.5583 45.1697 28.5768 45.3336 28.5791 45.4699C28.5814 45.6107 28.5837 45.7539 28.6322 45.8393C28.69 45.8716 28.75 45.8486 28.8008 45.8647C28.8839 45.8924 28.8909 45.9686 28.9486 46.0194C29.0086 45.9363 28.9417 45.8162 28.8978 45.7631C29.004 45.6592 28.8585 45.5391 28.907 45.4214C28.9532 45.3082 29.1795 45.3267 29.3019 45.2828C29.4127 45.2413 29.542 45.1512 29.6875 45.1096C29.8492 45.0634 30.0016 45.038 30.1078 44.9711C30.0662 45.0681 29.9554 45.0796 29.8769 45.1604C29.8399 45.1997 29.8238 45.262 29.7822 45.3059C29.676 45.4191 29.3527 45.4976 29.3204 45.6638C29.2927 45.807 29.4243 46.1049 29.482 46.1788C29.5905 46.315 29.7706 46.3058 29.9346 46.3312C29.9092 46.2942 29.8515 46.2226 29.8676 46.1349C29.8122 46.0448 29.6321 45.9479 29.6367 45.8024C29.639 45.7169 29.7891 45.62 29.8769 45.553C29.9854 45.4699 30.0731 45.4098 30.1586 45.3475C30.3618 45.1951 30.5327 45.0196 30.6989 44.911C30.8167 44.8348 30.9691 44.8117 31.0499 44.7494C31.1238 44.694 31.1423 44.567 31.2393 44.5531C31.3593 44.537 31.4332 44.6455 31.5741 44.6224C31.6757 44.6039 31.7011 44.4538 31.8142 44.4931C31.7519 44.627 31.6503 44.724 31.4702 44.7332C31.4171 44.7332 31.357 44.7055 31.2993 44.7148C31.2254 44.7286 31.1423 44.8602 31.0499 44.9203C30.9414 44.9919 30.8051 44.9872 30.7082 45.0404C30.5927 45.1027 30.5604 45.2736 30.4657 45.3729C30.4218 45.4237 30.311 45.4675 30.3041 45.5368C30.2948 45.6176 30.3803 45.7354 30.3733 45.8532C30.3687 45.9201 30.3387 45.9825 30.3456 46.0425C30.378 46.2342 30.528 46.3704 30.722 46.3866C30.6019 46.3081 30.5835 45.8578 30.7659 45.8047C30.7959 45.7954 30.8444 45.8047 30.8837 45.7954C31.0822 45.7493 31.1169 45.5068 31.3224 45.4098C31.3709 45.389 31.4309 45.389 31.4656 45.3683C31.5348 45.3267 31.5764 45.2366 31.648 45.1881C31.7404 45.1235 31.8627 45.0912 31.9482 45.0334C32.0221 44.9826 32.0636 44.8926 32.1375 44.8626C32.1006 45.0404 31.9551 45.1466 31.8004 45.2135C31.7473 45.2389 31.678 45.2551 31.648 45.2897C31.5903 45.3521 31.5972 45.4814 31.5602 45.5553C31.4956 45.6892 31.3109 45.7493 31.3039 45.8809C31.2993 45.9502 31.3617 45.9917 31.364 46.0587C31.3663 46.1187 31.3363 46.1672 31.3386 46.2226C31.3478 46.3981 31.4748 46.4697 31.6295 46.479C31.5764 46.3981 31.5233 46.2504 31.5764 46.1372C31.8604 46.1026 31.8373 45.7423 31.9713 45.5391C32.0313 45.4468 32.1814 45.3405 32.2876 45.2574C32.6086 45.0034 32.9619 44.6917 33.4953 44.7771C33.5253 44.8325 33.5092 44.9272 33.5484 44.9734C33.68 44.978 33.8463 44.9411 33.8047 45.1189C33.9017 45.1905 33.9063 45.3013 33.8463 45.3867C33.8278 45.4144 33.7932 45.4445 33.8047 45.4629C33.9964 45.4491 34.0426 45.3429 34.1234 45.232C34.165 45.1766 34.2273 45.1489 34.2342 45.0773C34.2458 44.9803 34.1973 44.9388 34.1742 44.8926C34.1072 44.754 34.0241 44.4654 33.8994 44.403L33.8902 44.4007ZM40.5613 34.1227C40.8153 33.4853 40.9631 32.7672 40.9908 31.8943C41.164 33.6886 40.469 34.9239 39.6538 35.8592C38.8318 36.8082 37.7003 37.5518 36.4072 37.9489C38.2037 37.1015 39.8062 36.0139 40.5613 34.1204V34.1227ZM31.1215 45.1904C31.0638 45.2643 31.0638 45.3221 31.0084 45.3613C30.879 45.4514 30.6458 45.3244 30.5465 45.4398C30.5765 45.3567 30.6435 45.2828 30.7428 45.2759C30.7982 45.2713 30.8467 45.3036 30.9021 45.2921C31.0222 45.269 31.1076 45.0588 31.2139 44.9734C31.4332 44.791 31.8443 44.8625 31.9482 44.5878C31.872 44.9618 31.3386 44.9041 31.1192 45.1881L31.1215 45.1904ZM32.089 44.2806C32.0359 44.3291 31.9043 44.3984 31.8166 44.3592C31.7704 44.3361 31.7865 44.2899 31.738 44.2645C31.5602 44.2645 31.3409 44.3176 31.1561 44.2991C31.11 44.2945 31.0037 44.2714 30.9853 44.2298C30.9599 44.1767 30.9922 44.0289 31.0037 43.9574C31.0361 43.6918 31.0707 43.4009 31.1123 43.1584C31.3201 43.1584 31.5949 43.1676 31.7727 43.0568C31.8627 43.0014 31.9228 42.9229 31.962 42.8259C31.6411 42.8536 31.3178 42.8328 31.1654 42.6619C31.2901 42.1562 31.3617 41.5951 31.4748 41.0778C31.8004 41.2372 32.343 41.1725 32.3638 40.7777C32.2599 40.8169 32.1837 40.8839 32.0313 40.87C31.9389 40.8631 31.8327 40.8261 31.7681 40.7661C31.6272 40.6437 31.484 40.4151 31.3455 40.2442C31.2808 40.1634 31.2092 40.0826 31.1307 39.9856C31.073 39.914 30.9714 39.7547 30.9067 39.7385C30.8167 39.7154 30.7035 39.7847 30.6089 39.7547C30.7313 39.6877 30.8513 39.6185 30.9922 39.5746C30.8536 39.346 30.6781 39.1497 30.5165 38.9419C30.3202 38.9488 30.1216 38.9534 29.9161 38.9488C30.1724 38.8495 30.4588 38.7779 30.7567 38.7179C30.7682 38.7571 30.6574 38.8218 30.6458 38.8888C31.103 39.5423 31.6849 40.0711 32.3292 40.5675C32.4008 40.6229 32.5716 40.7315 32.5878 40.7915C32.6063 40.87 32.5439 41.1356 32.5278 41.2349C32.5024 41.385 32.4608 41.5258 32.4423 41.6482C32.3084 42.5118 32.2276 43.4286 32.089 44.2783V44.2806Z" fill="#1F286F"/>
<path d="M31.3284 28.6526C31.3654 28.7912 31.3377 29.156 31.4831 29.1676C31.5293 29.1699 31.5848 29.1329 31.6102 29.0983C31.7995 28.8466 31.6286 28.1793 31.4393 28.08C31.3839 28.0499 31.3192 28.0476 31.2615 28.0523C30.8666 28.0846 30.6749 28.3709 30.3193 28.454C30.5456 28.5672 30.6265 28.775 30.6726 29.0544C30.698 29.2161 30.6957 29.4354 30.7742 29.5255C30.8481 29.6086 30.9982 29.604 31.0837 29.5417C31.2823 29.4008 31.31 28.932 31.2107 28.6434C31.1622 28.4933 31.056 28.4056 31.0236 28.3016C31.2153 28.3109 31.2823 28.4771 31.3307 28.6526H31.3284Z" fill="#1F286F"/>
<path d="M25.9571 31.1579C25.6823 32.6335 25.9178 34.3192 26.5482 35.2197C26.5944 35.2798 26.6337 35.3421 26.696 35.3814C26.6337 35.0027 26.6614 34.5662 26.7122 34.2083C26.733 34.079 26.7745 33.9497 26.7653 33.8389C26.7468 33.6911 26.6775 33.5156 26.6429 33.3262C26.6129 33.1507 26.5644 32.8921 26.6337 32.7443C26.7307 32.5388 27.0539 32.5688 27.1232 32.3241C26.6083 32.0747 26.3104 31.6059 25.9825 31.1695C25.9802 31.151 25.9709 31.151 25.9571 31.1602V31.1579Z" fill="#1F286F"/>
<path d="M42.1629 34.6665C42.1352 34.7912 42.1214 34.9551 42.1098 35.0867C42.0729 35.5209 42.059 35.9319 41.9897 36.3383C41.902 36.8763 41.7149 37.2527 41.4101 37.5876C41.1238 37.8993 40.7336 38.1464 40.468 38.4789C40.2186 38.7883 40.0939 39.3702 40.3318 39.7812C40.3364 39.7905 40.3433 39.8367 40.3756 39.8251C40.3549 39.3587 40.4726 39.0146 40.6828 38.7537C40.8952 38.4904 41.1885 38.3172 41.4263 38.0956C41.9274 37.6337 42.2461 37.0818 42.3338 36.2021C42.38 35.7633 42.3823 35.3246 42.4539 34.9251C42.5255 34.5418 42.7217 34.2601 42.8995 33.9668C43.0681 33.6851 43.2459 33.371 43.336 33.0085C43.426 32.6437 43.4376 32.1495 43.336 31.7408C43.336 31.7362 43.336 31.7292 43.3267 31.7315C43.299 32.034 43.2274 32.3273 43.1559 32.6067C43.0081 33.1771 42.7818 33.5604 42.5047 33.9945C42.3684 34.2093 42.2206 34.4194 42.1629 34.6711V34.6665Z" fill="#1F286F"/>
<path d="M26.8676 33.5649C27.0177 33.0269 27.2971 32.6158 27.6642 32.2949C27.6642 32.2856 27.6781 32.2787 27.655 32.2787C27.5649 32.3179 27.4356 32.3941 27.3109 32.3457C27.2555 32.5673 26.9392 32.5997 26.8237 32.7498C26.6667 32.9483 26.8075 33.3501 26.8676 33.5649V33.5649Z" fill="#1F286F"/>
<path d="M43.6987 32.6199C43.5625 32.9593 43.4493 33.2895 43.2877 33.5966C43.1353 33.8899 42.9505 34.167 42.7981 34.4695C42.4795 35.1068 42.5903 36.0351 42.4056 36.7994C42.2208 37.5591 41.7521 37.9563 41.281 38.402C41.0432 38.6283 40.7799 38.8107 40.6483 39.1294C40.5813 39.2933 40.549 39.4688 40.5282 39.6859C40.5098 39.8845 40.5352 40.1084 40.4844 40.3278C40.4174 40.6395 40.1218 40.9097 39.7062 40.8612C39.593 40.8474 39.436 40.785 39.339 40.7134C39.2767 40.6696 39.1474 40.5495 39.1751 40.4479C39.2005 40.3601 39.3298 40.344 39.4314 40.3717C39.6046 40.4132 39.7547 40.4294 39.7916 40.2585C39.8447 40.0138 39.533 39.8198 39.2674 39.829C39.055 39.836 38.8633 40.0138 38.8056 40.1708C38.6971 40.471 38.8841 40.7527 39.0019 40.8728C39.1751 41.0529 39.3829 41.1568 39.6531 41.1637C40.2257 41.1776 40.6506 40.8381 40.7407 40.3671C40.7845 40.1592 40.7661 39.9099 40.7869 39.6628C40.833 39.0532 41.1794 38.8222 41.5235 38.5082C41.9345 38.1295 42.3017 37.7646 42.5072 37.1897C42.6157 36.8895 42.6411 36.5616 42.678 36.2037C42.715 35.8504 42.7589 35.5017 42.8004 35.1761C42.9251 34.2016 43.7172 33.6959 43.7056 32.6245C43.7056 32.6175 43.7056 32.6152 43.6987 32.6152V32.6199Z" fill="#1F286F"/>
<path d="M32.3221 34.8227C32.8462 35.1737 33.9316 35.0075 33.9985 34.3424C34.0562 33.7767 33.6337 33.5942 33.1949 33.5019C33.5575 33.3957 34.0424 33.3033 34.4095 33.1601C34.5273 33.1116 34.7051 33.0608 34.719 32.9454C34.7398 32.763 34.5735 32.7237 34.3934 32.7422C34.0516 32.7699 33.7006 32.883 33.3219 32.9454C32.9502 33.01 32.5599 33.047 32.1396 33.0239C32.5576 33.2248 32.7331 34.1554 32.4583 34.6426C32.4214 34.7096 32.3452 34.7558 32.3221 34.8227V34.8227Z" fill="#1F286F"/>
<path d="M22.9513 36.1005C23.3392 36.8394 23.4916 37.703 23.8242 38.4881C24.1474 39.2479 24.6601 39.8321 25.3574 40.2177C25.8793 40.5087 26.4612 40.7419 27.0362 40.9797C27.3456 41.109 27.6597 41.2153 27.8583 41.4439C28.0568 41.1321 28.394 40.8874 28.7588 40.698C28.8512 40.6472 29.0544 40.5825 29.1075 40.5017C29.2645 40.2662 28.9805 40.0815 28.7727 40.0999C28.454 40.1276 28.2 40.4417 28.013 40.6287C27.9668 40.6726 27.8444 40.8296 27.7797 40.8342C27.722 40.8389 27.5719 40.7534 27.5073 40.7234C27.2186 40.6056 26.9 40.4786 26.6667 40.3816C25.9555 40.0768 25.2212 39.6843 24.7501 39.1647C24.5031 38.8922 24.3368 38.5343 24.1936 38.1441C23.9096 37.3844 23.6602 36.5623 23.2861 35.9088C23.0945 35.5786 22.889 35.283 22.6419 34.9852C22.3578 34.6365 22.0438 34.3086 21.6235 34.1377C21.7759 34.5164 22.0369 34.7958 22.3001 35.1237C22.538 35.4216 22.7735 35.7587 22.9513 36.1005V36.1005Z" fill="#1F286F"/>
<path d="M28.4744 42.6591C28.3243 42.5852 28.2181 42.4051 28.1327 42.2411C28.0403 42.0656 27.9895 41.8647 27.9018 41.7031C27.8209 41.5553 27.6939 41.4445 27.5415 41.3613C27.2252 41.1835 26.8603 41.0681 26.4955 40.9226C25.4333 40.4954 24.4704 40.0151 23.9185 39.0452C23.5328 38.3756 23.3643 37.5789 23.1241 36.8793C22.8724 36.1542 22.5584 35.5977 21.9326 35.0966C21.9326 35.0874 21.9234 35.0897 21.9257 35.1058C22.3159 35.8078 22.6784 36.3828 22.8655 37.2118C23.0571 38.0546 23.2904 38.8143 23.6968 39.4147C24.4103 40.4608 25.678 40.9803 26.9019 41.5091C27.0751 41.5853 27.276 41.6454 27.433 41.7446C27.6593 41.8832 27.747 42.1949 27.8694 42.4282C27.9895 42.6568 28.1188 42.8323 28.359 42.95C28.9155 43.2225 29.5135 42.8507 29.7191 42.4859C29.9754 42.0287 29.6821 41.5253 29.3912 41.3567C28.9593 41.0958 28.4398 41.299 28.3059 41.6731C28.2297 41.8832 28.322 42.1972 28.5968 42.2203C28.7954 42.2388 28.8924 42.0772 29.0771 42.1534C29.1533 42.1834 29.1926 42.2896 29.188 42.3866C29.1718 42.6822 28.7538 42.7953 28.4767 42.6591H28.4744Z" fill="#1F286F"/>
<path d="M41.6416 39.0444C42.011 38.6773 42.3828 38.3216 42.6438 37.8552C42.9994 37.2156 42.9693 36.2896 43.2672 35.5599C43.2672 35.553 43.2672 35.5507 43.2603 35.5507C42.9416 35.8508 42.877 36.3566 42.7523 36.8623C42.5768 37.5896 42.1496 38.1692 41.6554 38.6265C41.4153 38.8504 41.0943 39.0698 40.9719 39.3723C40.8911 39.5686 40.9142 39.8642 40.9027 40.0905C40.8911 40.3006 40.8611 40.5223 40.7826 40.6885C40.5978 41.0857 40.1452 41.4598 39.5333 41.3651C39.0553 41.2935 38.7528 40.961 38.605 40.5615C38.5935 41.0049 38.7644 41.3051 39.0253 41.4783C39.4317 41.7438 40.0506 41.6884 40.4454 41.469C40.8126 41.2658 41.1105 40.8802 41.159 40.4322C41.1867 40.1551 41.1289 39.8734 41.1844 39.6356C41.2513 39.3515 41.4522 39.2314 41.6393 39.0444H41.6416Z" fill="#1F286F"/>
<path d="M26.0016 45.2192C26.0316 44.9213 26.2718 44.7551 26.3711 44.5172C26.3919 44.4641 26.3942 44.4364 26.4034 44.3879C26.5535 43.7206 26.1101 43.2888 25.6922 43.104C25.205 42.887 24.5953 42.8061 24.3552 42.3859C24.2513 42.1965 24.2051 41.991 24.1243 41.8109C23.8656 41.2382 23.5285 40.7995 23.0944 40.3977C22.8173 40.1391 22.4917 39.8943 22.307 39.5664C22.113 39.227 21.9744 38.869 21.7251 38.5204C21.7251 38.5157 21.7251 38.5111 21.7158 38.5134C21.8636 38.9383 22.0091 39.3032 22.18 39.6426C22.3485 39.9774 22.6164 40.2476 22.875 40.5155C23.1336 40.7879 23.3807 41.035 23.577 41.3722C23.7225 41.6216 23.8449 41.894 23.9372 42.1873C23.9672 42.2843 23.9788 42.3974 24.0204 42.4944C24.1797 42.85 24.5746 43.0717 24.9302 43.231C25.3412 43.4181 25.8654 43.5381 25.9831 43.9838C26.1078 44.4687 25.6922 44.7643 25.6067 45.0714C25.5698 45.2054 25.579 45.3993 25.6391 45.5009C25.676 45.5564 25.8123 45.6834 25.9393 45.621C26.0455 45.5679 25.9854 45.3624 26.0016 45.2169V45.2192Z" fill="#1F286F"/>
<path d="M29.684 43.2941C29.9495 43.1209 30.1966 42.8161 30.3167 42.472C30.3744 42.3127 30.4252 42.0702 30.3859 41.8301C30.3629 41.6754 30.2774 41.359 30.0673 41.4352C29.9726 41.4722 29.9911 41.6962 30.0003 41.8555C30.0165 42.2273 29.9195 42.4859 29.7856 42.6845C29.6309 42.9177 29.2937 43.1625 28.9473 43.1925C28.4601 43.2341 28.1553 43.0309 27.9544 42.7976C27.7789 42.5967 27.7212 42.3381 27.5688 42.1049C27.3864 41.8278 27.0608 41.7377 26.7306 41.6061C26.144 41.3752 25.5737 41.1581 25.061 40.8533C24.3567 40.4377 23.8811 39.925 23.3823 39.2923C23.3823 39.2877 23.3823 39.2831 23.373 39.2854C23.9804 40.6363 25.0703 41.3267 26.4627 41.8647C26.719 41.9617 27.0723 42.0495 27.2455 42.2226C27.4302 42.4143 27.4856 42.7076 27.6381 42.9339C27.8251 43.2133 28.1391 43.4303 28.5132 43.5088C28.9381 43.5966 29.4046 43.4788 29.6863 43.2941H29.684Z" fill="#1F286F"/>
<path d="M25.8316 44.0899C25.8016 43.8267 25.5868 43.7274 25.3674 43.6188C24.6654 43.2655 23.975 43.0623 23.7834 42.2218C23.6425 41.6053 23.3215 41.2127 22.9682 40.7924C22.9682 40.7878 22.9682 40.7832 22.959 40.7832C23.1784 41.2381 23.3839 41.5591 23.5432 42.0163C23.5917 42.1618 23.6055 42.3211 23.654 42.5058C23.7718 42.9538 24.132 43.2263 24.4576 43.4295C24.6193 43.5311 24.8109 43.6396 25.0049 43.7482C25.185 43.8451 25.4436 43.9375 25.4852 44.1338C25.5522 44.4363 25.2566 44.5679 25.2728 44.8127C25.6237 44.9027 25.8639 44.4132 25.8293 44.0922L25.8316 44.0899Z" fill="#1F286F"/>
<path d="M43.32 41.3228C43.1791 41.5352 42.9898 41.7499 42.8235 41.9739C42.6595 42.1956 42.5095 42.415 42.2832 42.5558C42.043 42.7059 41.7636 42.7868 41.4842 42.8745C41.2048 42.9623 40.9831 43.117 40.8261 43.3363C40.6829 43.5326 40.5929 43.7612 40.4751 43.9621C40.355 44.1676 40.2142 44.357 40.0479 44.5186C39.8955 44.6687 39.7061 44.8119 39.5422 44.9897C39.3875 45.1606 39.2051 45.3846 39.1658 45.597C39.1543 45.6732 39.1496 45.7979 39.2097 45.8718C39.3459 45.8718 39.4429 45.7609 39.5283 45.6824C39.8077 45.4307 40.0317 45.1375 40.2557 44.8373C40.4035 44.6364 40.5559 44.4355 40.6644 44.2023C40.7776 43.9644 40.8769 43.7197 41.0339 43.5165C41.4034 43.0361 42.17 42.9807 42.6457 42.5997C42.6503 42.5974 42.6572 42.5882 42.6619 42.5836C42.8281 42.4196 42.939 42.2072 43.0475 42.0086C43.1606 41.8054 43.2876 41.5883 43.3384 41.3343C43.3384 41.3274 43.3292 41.3251 43.3223 41.3251L43.32 41.3228Z" fill="#1F286F"/>
<path d="M36.2106 43.9346C36.4277 43.8353 36.7117 43.8514 36.9565 43.833C37.4021 43.796 37.7462 43.6759 38.0025 43.4496C38.2357 43.2372 38.2773 42.9601 38.3535 42.5999C38.3905 42.4313 38.4413 42.2812 38.5082 42.1542C38.6075 41.9672 38.7622 41.8448 38.7645 41.5885C38.7645 41.5838 38.7645 41.5792 38.7553 41.5792C38.6629 41.6808 38.5729 41.787 38.4828 41.8794C38.3951 41.9672 38.2842 42.0341 38.2103 42.1265C38.1272 42.2281 38.0787 42.3828 38.0579 42.5214C38.0348 42.6576 38.0302 42.8146 37.9702 42.9509C37.7416 43.4566 37.1528 43.5559 36.4716 43.602C36.3238 43.6113 36.0998 43.5882 35.9474 43.6713C35.8573 43.7198 35.788 43.8376 35.7072 43.9207C35.4555 44.1701 35.1507 44.3479 34.6704 44.3502C35.1415 44.5488 35.7118 44.3664 35.9982 44.1262C36.0744 44.0639 36.1252 43.9784 36.2129 43.9369L36.2106 43.9346Z" fill="#1F286F"/>
<path d="M35.8429 43.4804C35.9953 43.4273 36.1847 43.4504 36.3486 43.4389C37.0806 43.3857 37.7226 43.238 37.8242 42.566C37.8242 42.5614 37.8242 42.5568 37.8126 42.5568C37.5309 42.887 37.1799 43.111 36.6072 43.1387C36.4318 43.1479 36.2378 43.1294 36.0323 43.1479C35.8475 43.1664 35.679 43.2241 35.5612 43.3026C35.3257 43.4527 35.2148 43.6929 34.9955 43.8083C34.4366 44.1039 33.7162 43.7691 33.6931 43.1756C33.3998 44.1709 34.6745 44.3533 35.2679 43.9469C35.4688 43.8083 35.6097 43.5636 35.8429 43.4827V43.4804Z" fill="#1F286F"/>
<path d="M26.3592 44.8888C26.5624 44.8564 26.7587 44.9049 26.8811 44.9811C26.9573 44.7364 27.0473 44.5355 27.0288 44.2099C26.9965 43.7111 26.7425 43.3024 26.4123 43.0438C26.0613 42.769 25.5695 42.665 25.0222 42.6396C25.0176 42.6396 25.013 42.642 25.0153 42.6489C25.2046 42.7505 25.4471 42.8198 25.6387 42.889C25.8304 42.9583 26.0244 43.0345 26.1791 43.1638C26.3846 43.3347 26.5809 43.6257 26.6086 43.9836C26.6317 44.2976 26.5254 44.5378 26.4285 44.7317C26.3961 44.7918 26.3546 44.8449 26.3592 44.8888V44.8888Z" fill="#1F286F"/>
<path d="M34.2818 42.7545C34.074 42.7545 33.9054 42.9508 33.9077 43.1748C33.91 43.5027 34.1594 43.6782 34.4573 43.6967C34.9307 43.729 35.06 43.378 35.3971 43.1748C35.7412 42.967 36.1499 43.0201 36.5633 42.9762C36.6856 42.9647 36.7064 42.9462 36.8196 42.8838C36.33 42.8884 35.8682 42.8238 35.4687 42.9162C35.2771 42.96 35.1408 43.0616 35.0046 43.1655C34.8707 43.2672 34.739 43.408 34.5243 43.4057C34.7714 43.1702 34.5843 42.7545 34.2818 42.7545V42.7545Z" fill="#1F286F"/>
<path d="M37.5308 44.6645C37.6901 44.7476 37.8056 44.8723 37.9418 44.9809C38.1819 44.526 38.4891 44.1426 38.9347 43.8933C38.1889 43.8055 37.9626 44.3828 37.5308 44.6645V44.6645Z" fill="#1F286F"/>
<path d="M27.0459 45.0578C27.0483 45.1179 27.1268 45.1941 27.1591 45.2472C27.2145 45.3442 27.2468 45.4481 27.2699 45.582C27.5147 45.2495 27.457 44.5383 27.1845 44.2797C27.2145 44.4505 27.1914 44.6283 27.1476 44.7784C27.1222 44.8731 27.0436 44.9909 27.0459 45.0602V45.0578Z" fill="#1F286F"/>
<path d="M26.6522 46.2504C26.9824 46.2504 27.1718 45.9433 27.1325 45.583C27.1025 45.3152 26.83 45.0519 26.5414 45.0265C26.3728 45.0104 26.2804 45.0381 26.2158 45.1374C26.4698 45.1097 26.7146 45.1697 26.7215 45.3706C26.7215 45.4306 26.7007 45.5091 26.6522 45.5599C26.5529 45.6569 26.3797 45.5784 26.2389 45.6454C26.1604 45.6846 26.128 45.8255 26.158 45.9202C26.2089 46.1072 26.4328 46.255 26.6545 46.255L26.6522 46.2504Z" fill="#1F286F"/>
<path d="M25.88 34.932C24.4691 34.4494 23.3791 33.5788 22.7118 32.3619C22.6679 32.2765 22.6425 32.1749 22.5756 32.131C22.594 32.7522 22.7349 33.2717 22.9265 33.7174C23.1251 34.1723 23.4369 34.5094 23.7925 34.8142C24.4945 35.4077 25.3904 35.8626 26.4826 36.0473C25.1018 36.0981 24.2335 35.5139 23.4923 34.9251C23.7625 35.5601 24.2474 36.0496 24.7854 36.4329C25.0602 36.6269 25.3465 36.7955 25.7022 36.8948C26.0716 36.9987 26.4919 36.9964 26.9768 37.0079C26.8544 37.1996 26.5219 37.2065 26.2333 37.2042C26.5773 37.3335 26.9837 37.4051 27.4502 37.4166C27.2493 37.068 26.9953 36.7077 26.866 36.269C26.8198 36.1212 26.8013 35.948 26.7367 35.8164C26.7089 35.761 26.6535 35.7125 26.6166 35.6617C26.3279 35.2738 26.1178 34.8512 25.9469 34.3524C25.6652 33.5072 25.5682 32.3781 25.716 31.3551C25.7322 31.2535 25.7807 31.1288 25.7668 31.0295C25.7576 30.9487 25.6513 30.824 25.6052 30.7386C25.2265 30.0412 25.0348 29.0898 25.1179 28.0415C25.1964 27.0231 25.5105 26.0648 26.1132 25.5661C26.1524 25.5314 26.2263 25.5083 26.2148 25.4714C25.6029 25.4506 25.1618 25.6815 24.827 25.9702C24.4875 26.2611 24.2358 26.6491 24.1319 27.1617C23.9426 28.0992 24.1111 29.1799 24.3467 29.9442C24.6053 30.7824 24.9494 31.4844 25.3835 32.071C24.7138 31.4429 24.1966 30.57 23.9356 29.5101C23.6747 28.4548 23.6355 26.9054 24.2358 26.1688C24.2497 26.1595 24.3074 26.1156 24.2705 26.1087C23.5639 26.3119 23.1598 26.9262 22.9935 27.6766C22.8019 28.5518 22.9312 29.4501 23.1644 30.1544C23.6331 31.5676 24.5222 32.6552 25.462 33.5442C24.7115 33.1216 24.1319 32.4935 23.6539 31.7985C23.2891 31.2697 23.0051 30.667 22.8157 29.9719C22.7487 29.7272 22.728 29.4778 22.6772 29.2192C22.6056 29.2561 22.6102 29.3554 22.594 29.4247C22.534 29.6533 22.4924 29.9096 22.4716 30.1774C22.3839 31.3713 22.8503 32.1818 23.3283 32.8237C23.9934 33.7174 24.924 34.3986 25.88 34.9389V34.932Z" fill="#1F286F"/>
<path d="M42.9163 41.0915C42.7293 41.3178 42.5584 41.5441 42.3944 41.7681C42.2097 42.0221 42.0342 42.1791 41.7433 42.3176C41.6047 42.3823 41.4662 42.4308 41.3068 42.4793C41.166 42.5232 40.9997 42.5532 40.8427 42.6248C40.6164 42.731 40.5379 42.8857 40.4132 43.0889C40.2077 43.4284 40.046 43.7401 39.7712 44.0149C39.4087 44.3774 38.9284 44.5714 38.6675 44.9916C38.5705 45.1441 38.5104 45.3426 38.4781 45.6059C38.455 45.8022 38.3881 46.2432 38.5289 46.3009C38.6467 46.3471 38.7991 46.2386 38.8291 46.1809C38.9215 46.0077 38.8337 45.786 38.8638 45.5897C38.9376 45.0956 39.4087 44.763 39.7112 44.4836C39.9514 44.2643 40.1569 44.0518 40.3231 43.7909C40.3993 43.6662 40.4778 43.523 40.561 43.3799C40.6349 43.2529 40.718 43.082 40.8173 42.9873C40.9997 42.8095 41.3369 42.7656 41.5816 42.671C41.9973 42.5047 42.3483 42.2645 42.6 41.9159C42.6831 41.7981 42.7477 41.6711 42.8239 41.5464C43.0549 41.1723 43.2673 40.8421 43.5282 40.4749C43.5306 40.4749 43.5352 40.468 43.5282 40.468C43.3135 40.6597 43.101 40.8721 42.9186 41.0915H42.9163Z" fill="#1F286F"/>
<path d="M38.8657 44.4568C38.9858 44.3668 39.1151 44.3114 39.2259 44.2352C39.5631 44.0042 39.8748 43.7087 40.0919 43.3531C40.2789 43.0413 40.4151 42.7227 40.6899 42.5218C41.1033 42.2216 41.7683 42.2631 42.1031 41.8452C42.1078 41.8452 42.1124 41.8383 42.1031 41.8383C41.736 41.956 41.3134 42.0969 40.9439 42.2147C40.7153 42.2862 40.5329 42.3278 40.3874 42.464C40.1958 42.6442 40.0549 42.9189 39.9002 43.1568C39.7455 43.3969 39.5838 43.6463 39.3691 43.808C39.1867 43.9442 38.995 44.0366 38.8288 44.1497C38.3877 44.4615 38.0968 44.8979 37.9721 45.519C37.949 45.6391 37.9282 45.7731 37.8866 45.8816C37.8289 46.0317 37.6973 46.1333 37.561 46.2049C37.4894 46.2418 37.4017 46.258 37.3901 46.3342C37.3601 46.5328 37.6811 46.6344 37.8774 46.6067C38.0436 46.5859 38.2168 46.3896 38.2538 46.2487C38.3138 46.0363 38.2538 45.6784 38.3046 45.4359C38.3854 45.0572 38.5747 44.6739 38.8611 44.4568H38.8657Z" fill="#1F286F"/>
<path d="M27.2508 43.9458C27.521 44.3522 27.8142 45.1627 27.4655 45.6754C27.4078 45.7631 27.3085 45.7977 27.26 45.8832C27.2277 45.9386 27.2208 46.0079 27.2 46.0541C27.1284 46.218 27.0176 46.3358 26.8236 46.3889C26.5996 46.4466 26.4241 46.3312 26.2671 46.2757C26.3248 46.3427 26.3756 46.4097 26.438 46.4489C26.8005 46.6683 27.3593 46.4813 27.5787 46.2596C27.8442 45.994 27.9204 45.5437 27.8766 45.0704C27.8327 44.5739 27.5625 44.149 27.2508 43.9481V43.9458Z" fill="#1F286F"/>
<path d="M37.6774 45.604C37.7144 45.3777 37.4996 45.1514 37.2825 45.1953C37.0932 45.2299 37.1024 45.5832 36.9246 45.604C36.8115 45.6201 36.7029 45.5278 36.6845 45.4354C36.6452 45.223 36.8438 45.0475 37.0124 44.9713C37.2571 44.8604 37.5342 44.932 37.7213 45.0151C37.5342 44.8189 37.2641 44.6295 36.8992 44.6734C36.5044 44.7196 36.0495 45.0775 36.0679 45.5116C36.0864 45.9319 36.6244 46.1859 37.0285 46.1443C37.3103 46.1189 37.6335 45.8765 37.6797 45.604H37.6774Z" fill="#1F286F"/>
<path d="M29.128 24.7144C29.3982 24.973 29.7838 25.0977 30.2849 25.0977C30.5435 25.0977 30.7837 25.0977 31.0054 25.0561C31.2178 25.0169 31.421 24.9545 31.6289 24.9106C32.855 24.6405 34.3583 24.4234 35.7899 24.5735C38.5748 24.8691 39.8841 26.6425 40.3829 29.2149C39.7132 27.3884 38.935 25.6934 36.9214 25.2062C36.134 25.0169 34.9933 25.1323 34.9263 25.9174C34.8894 26.3354 35.0764 26.5594 35.2866 26.6979C35.5198 26.8526 35.8107 26.9381 36.1432 26.9866C36.5058 27.0443 36.8891 27.0073 37.2309 27.0489C38.2261 27.1667 38.8426 27.8271 39.2606 28.4529C39.5238 28.8454 39.7409 29.2957 39.9303 29.7899C39.9441 29.8314 39.9995 29.9838 40.0157 29.9954C40.0573 30.0208 40.0942 29.94 40.1358 29.9007C40.4729 29.5959 41.0271 29.7368 41.3596 29.9446C41.93 30.3025 42.2094 30.8752 42.311 31.6741C42.5604 30.732 42.7728 29.7298 42.8259 28.5914C42.8791 27.4091 42.7705 26.3077 42.4749 25.3632C42.0478 24.0054 41.295 22.9479 40.1196 22.3221C39.7825 22.142 39.1613 21.8764 38.681 22.0565C38.5748 22.0981 38.4616 22.1743 38.4247 22.269C38.3069 22.5922 38.5748 22.7885 38.741 22.9479C39.9072 24.0516 40.877 25.3448 41.3273 27.1436C41.4912 27.7994 41.5836 28.536 41.519 29.3719C41.4081 27.3999 40.7777 25.9336 39.891 24.7559C39.002 23.5759 37.8613 22.6153 36.3788 22.008C35.3858 21.6016 34.1989 21.3338 32.8088 21.3984C32.5594 21.41 32.3077 21.4354 32.0838 21.47C30.9846 21.6201 30.0286 22.0057 29.4259 22.6592C29.1765 22.934 28.9433 23.225 28.8278 23.6013C28.6731 24.107 28.8648 24.4673 29.128 24.7144ZM37.531 26.3585C37.1523 26.2038 36.7228 26.1114 36.2287 26.0583C37.3186 25.9267 38.0783 26.3492 38.6256 26.8642C39.1798 27.3837 39.6278 28.0834 39.8679 28.8431C39.3368 27.7717 38.6741 26.8249 37.531 26.3585V26.3585ZM40.2027 23.4559C40.9902 23.9523 41.4728 24.8298 41.8053 25.8458C42.1286 26.8318 42.214 28.2012 42.027 29.4181C42.0801 28.088 41.9739 26.885 41.6598 25.8966C41.3458 24.906 40.8585 24.0978 40.2027 23.4559V23.4559ZM31.7836 23.1995C32.2708 23.0448 32.8273 22.9779 33.4184 22.9409C35.3166 22.8185 36.8175 23.3173 37.9352 24.0539C39.4546 25.0607 40.5006 26.5293 40.8978 28.6376C40.3367 26.6887 39.346 25.1646 37.7712 24.211C36.6212 23.5113 35.1434 23.0171 33.2499 23.0887C32.8088 23.1049 32.3747 23.1372 31.9475 23.2019C31.9083 23.2088 31.7836 23.2296 31.742 23.2342C31.6496 23.2457 31.6866 23.2296 31.7859 23.2019L31.7836 23.1995Z" fill="#1F286F"/>
<path d="M49.7056 42.5624H53.4787V34.4365V32.5499V25.4377H49.7056V42.5624Z" fill="#1F286F"/>
<path d="M126.627 42.5624H130.401V34.4365V32.5499V25.4377H126.627V42.5624Z" fill="#1F286F"/>
<path d="M74.7598 25.4374L67.0565 42.4882L59.1846 33.3947L66.47 25.4374H61.533L54.3677 33.4524L61.847 42.5621H71.1829L72.5476 39.2692H79.997L81.4056 42.5621H85.6636L77.8795 25.4351H74.7598V25.4374ZM73.8685 36.0779L76.21 30.4228L78.63 36.0779H73.8662H73.8685Z" fill="#1F286F"/>
<path d="M151.683 25.4374L143.98 42.4905L136.105 33.3947L143.391 25.4374H138.454L131.289 33.4524L138.77 42.5621H148.108L149.471 39.2692H156.922L158.333 42.5621H162.591L154.805 25.4351H151.685L151.683 25.4374ZM150.792 36.0779L153.133 30.4228L155.553 36.0779H150.792Z" fill="#1F286F"/>
<path d="M193.592 25.4377H190.472L182.734 42.5647H186.895L188.258 39.2719H195.71L197.118 42.5647H201.376L193.592 25.4377V25.4377ZM189.581 36.0783L191.922 30.4232L194.342 36.0783H189.581Z" fill="#1F286F"/>
<path d="M100.285 27.3844C99.3656 26.6985 98.2872 26.2044 97.0541 25.8973C95.821 25.5925 94.5187 25.4377 93.147 25.4377H87.4873V42.5647H93.6551C94.9297 42.5647 96.1466 42.38 97.3104 42.0105C98.4696 41.6388 99.4926 41.0938 100.382 40.3757C101.268 39.6598 101.973 38.7731 102.497 37.7155C103.019 36.6602 103.282 35.4387 103.282 34.0509C103.282 32.4876 103.012 31.1552 102.471 30.0584C101.931 28.9615 101.201 28.0702 100.282 27.3867L100.285 27.3844ZM98.8922 36.3092C98.5782 36.9789 98.1464 37.5192 97.5968 37.9303C97.0495 38.3413 96.4006 38.6369 95.6502 38.8124C94.8997 38.9902 94.0892 39.0779 93.2186 39.0779H91.2581V28.9176H93.4842C94.2762 28.9176 95.0267 29.0192 95.7471 29.2201C96.463 29.4233 97.0888 29.7235 97.6222 30.1276C98.1533 30.5294 98.5782 31.0421 98.8922 31.6632C99.2063 32.2844 99.3633 33.0141 99.3633 33.8523C99.3633 34.8198 99.2063 35.6373 98.8922 36.3069V36.3092Z" fill="#1F286F"/>
<path d="M121.45 27.4339C120.628 26.6511 119.654 26.0507 118.522 25.6304C117.393 25.2125 116.16 25.0023 114.821 25.0023C113.482 25.0023 112.248 25.2125 111.122 25.6304C109.992 26.0484 109.016 26.6511 108.194 27.4339C107.371 28.2144 106.73 29.1634 106.27 30.2741C105.811 31.3871 105.58 32.6271 105.58 33.9988C105.58 35.3704 105.811 36.6104 106.27 37.7258C106.73 38.8365 107.371 39.7855 108.194 40.566C109.016 41.3488 109.992 41.9492 111.122 42.3672C112.248 42.7874 113.484 42.9976 114.821 42.9976C116.158 42.9976 117.393 42.7874 118.522 42.3672C119.654 41.9492 120.626 41.3488 121.45 40.566C122.272 39.7855 122.914 38.8365 123.374 37.7258C123.833 36.6127 124.062 35.3704 124.062 33.9988C124.062 32.6271 123.831 31.3871 123.374 30.2741C122.914 29.1611 122.272 28.2144 121.45 27.4339V27.4339ZM119.769 36.2133C119.518 36.8829 119.162 37.4648 118.693 37.9544C118.225 38.4462 117.663 38.8295 117.012 39.102C116.359 39.3768 115.631 39.513 114.823 39.513C114.015 39.513 113.288 39.3768 112.634 39.102C111.981 38.8272 111.419 38.4462 110.953 37.9544C110.487 37.4625 110.126 36.8806 109.877 36.2133C109.625 35.5459 109.501 34.807 109.501 33.9988C109.501 33.1906 109.625 32.4747 109.877 31.7959C110.126 31.1193 110.487 30.5351 110.953 30.0432C111.419 29.5514 111.981 29.168 112.634 28.8932C113.288 28.6185 114.017 28.4822 114.823 28.4822C115.629 28.4822 116.361 28.6185 117.012 28.8932C117.666 29.168 118.225 29.5514 118.693 30.0432C119.162 30.5351 119.518 31.1193 119.769 31.7959C120.019 32.4747 120.143 33.2091 120.143 33.9988C120.143 34.7885 120.019 35.5436 119.769 36.2133V36.2133Z" fill="#1F286F"/>
<path d="M180.609 25.4377L177.73 36.7087H177.681L174.463 25.4377H170.955L167.708 36.4201H167.66L164.926 25.4377H160.815L165.893 42.5624H169.135L172.576 30.7095H172.624L176.063 42.5624H179.423L184.433 25.4377H180.609Z" fill="#1F286F"/>
<rect x="0.5" y="0.5" width="222" height="67" stroke="#E0E0E0"/>
</svg>
