<svg width="214" height="68" viewBox="0 0 214 68" fill="none" xmlns="http://www.w3.org/2000/svg">
<rect x="0.5" y="0.5" width="213" height="67" fill="white"/>
<path d="M61.4634 49.8355C62.0408 49.866 62.6838 49.8398 63.2612 49.8136C64.1798 49.8267 65.1334 49.7875 66.0607 49.7003C67.4124 49.757 68.2566 48.5054 68.939 47.4936C69.5077 48.9894 71.1961 49.9532 72.1935 48.2306C72.6747 47.402 73.1777 46.4862 73.6589 45.6533C75.1986 48.5708 78.1163 48.0736 80.7321 47.088C82.7049 46.4601 85.2026 45.7928 85.7713 43.5164C87.8534 45.4309 91.8165 43.2329 91.1035 40.4288C90.8629 39.1467 89.9356 37.9257 88.6146 37.6596C89.0257 36.565 88.1465 35.6623 87.7441 34.7247C87.2017 33.7522 86.6899 32.7666 86.1737 31.7723C85.6226 30.7868 85.1326 29.8143 84.5946 28.8243C83.8641 27.4462 82.0925 27.5902 81.0077 28.4754C80.3822 28.8941 79.6035 29.2517 79.4023 30.0367C78.0725 29.666 76.7777 30.1195 75.5661 30.6167C74.28 31.1095 72.679 31.1531 71.6773 32.1866C70.9424 31.6328 70.0676 32.0209 69.2627 32.1125C69.4114 31.9162 69.5602 31.5935 69.5864 31.345C70.0107 31.0048 70.3563 30.5469 70.5094 29.98C70.9731 29.5439 71.3011 29.1209 71.4367 28.4929C71.4367 28.5016 71.4324 28.5147 71.4324 28.5147C71.5155 28.2269 71.6248 27.782 71.5373 27.4637C71.9529 26.9447 72.106 26.247 72.0491 25.5798C72.0491 25.5885 72.0491 25.6016 72.0491 25.6016C72.071 25.3181 71.9048 24.9605 71.7954 24.7163C71.9748 23.8092 71.6248 22.8585 70.9949 22.2044H70.9993C70.9643 22.1695 70.9031 22.0997 70.8156 22.0256L70.8243 22.0343C70.7718 21.9776 70.5969 21.8337 70.4875 21.7814C70.5663 21.0225 69.9451 20.1198 69.219 19.8756C68.8953 19.6794 68.7684 19.3 68.4403 19.0819L68.4535 19.095C68.3441 18.986 68.1035 18.8377 67.9198 18.7679H67.9286C67.6355 18.6022 67.2418 18.6109 66.8831 18.6153C66.3451 18.2839 65.6977 18.1007 65.0634 18.1748C65.0765 18.1748 65.0896 18.1748 65.094 18.1748C64.8753 18.1661 64.4073 18.2664 64.206 18.3972C63.5761 18.2577 63.0337 18.3929 62.4476 18.6633L62.4607 18.6545C62.207 18.7592 61.892 19.1081 61.7783 19.3305C61.3496 19.5355 61.0784 19.6794 60.7329 20.0021C60.4923 19.8582 60.326 19.8189 60.0898 19.7143C59.4687 18.7592 58.292 18.1966 57.1634 18.4757C56.5423 18.1399 55.7068 18.0004 55.0638 18.3711C53.944 18.1269 52.8679 18.6502 52.1461 19.47C51.0919 19.9367 50.2914 21.0051 50.4008 22.1782C49.7578 22.7887 49.5347 23.7961 49.8321 24.6421C49.141 25.7455 49.4253 27.1846 50.2958 28.0917C50.2346 28.9246 50.4577 29.9189 51.1444 30.4728C51.0657 31.1792 51.4769 32.0165 52.0586 32.4178C50.2564 33.2333 50.0377 34.6985 49.6834 36.4211C49.3553 36.4168 49.001 36.6304 48.6773 36.5956C48.0343 35.9676 47.2688 35.1782 46.3283 35.187C46.8576 34.1839 47.8331 33.3728 47.9993 32.2346C47.9862 30.8391 47.0457 30.4597 45.9609 30.1719C42.9951 29.147 42.1946 28.2312 40.4493 31.4671C38.5858 29.4174 36.7049 27.0712 34.9552 30.7388C33.0786 33.5516 34.6009 33.569 36.0662 35.7757C34.5484 36.7918 32.9036 37.6029 31.167 38.1655C30.1566 38.6539 28.5731 38.4839 28.1925 39.7834C27.6676 41.7328 30.8608 42.2343 32.0725 43.1196C34.2509 44.2578 35.6726 45.1649 37.9384 43.5731C37.6497 45.4134 38.8614 46.918 40.6155 45.5791C41.0661 45.3088 41.5953 44.9599 42.024 44.6503C42.6146 44.2578 43.1963 43.8871 43.7825 43.4815C44.6399 43.0541 45.5278 42.182 45.3441 41.1092C45.5541 41.0307 45.7815 40.769 45.9915 40.6861C46.7964 41.2182 47.3169 42.1732 48.4411 42.2212C47.8593 44.3755 47.6844 46.8395 49.6178 48.3745C50.4183 49.1072 51.525 49.0897 52.5354 49.2816C53.7427 49.3383 54.985 49.5956 56.2098 49.6479C57.5877 49.7351 61.074 49.8006 61.4634 49.8224V49.8355ZM68.6941 30.6254L68.6678 30.5643L68.6984 30.6254H68.6941Z" fill="#FFB4BE"/>
<path d="M70.8863 25.8386C70.8863 25.7863 70.9126 25.734 70.9082 25.6817C70.9038 25.6293 70.9082 25.577 70.8995 25.5247C70.8907 25.4723 70.8164 25.4374 70.8032 25.3895C70.7901 25.3415 70.7945 25.2892 70.777 25.2412C70.7595 25.1932 70.7201 25.154 70.6982 25.1104C70.6764 25.0668 70.6939 24.997 70.6676 24.9534C70.6414 24.9098 70.602 24.8705 70.5758 24.8313C70.5933 24.7833 70.6195 24.7397 70.6283 24.6917C70.637 24.6437 70.6108 24.5871 70.6195 24.5391C70.6283 24.4911 70.6939 24.4475 70.6982 24.3995C70.7026 24.3516 70.6676 24.2992 70.6676 24.2469C70.6676 24.1946 70.707 24.1422 70.7026 24.0943C70.6982 24.0463 70.6545 23.9983 70.6458 23.9504C70.637 23.9024 70.5933 23.8588 70.5801 23.8108C70.567 23.7628 70.5495 23.7192 70.5364 23.6712C70.5233 23.6233 70.5539 23.5579 70.5364 23.5099C70.5189 23.4619 70.4883 23.4183 70.462 23.3747C70.4358 23.3311 70.3877 23.3006 70.3571 23.2613C70.3264 23.2221 70.3133 23.1697 70.2783 23.1305C70.2433 23.0912 70.2127 23.052 70.1777 23.0171C70.1427 22.9822 70.1121 22.9386 70.0727 22.9081C70.0334 22.8776 69.9984 22.8339 69.959 22.8078C69.9196 22.7816 69.8453 22.7991 69.8015 22.7729C69.7578 22.7467 69.7097 22.7336 69.6659 22.7118C69.6222 22.69 69.5784 22.6726 69.5303 22.6551C69.4822 22.6377 69.4428 22.6115 69.3903 22.5985C69.3378 22.5854 69.2766 22.5679 69.2285 22.5636C69.2504 22.52 69.3116 22.472 69.3291 22.4284C69.3466 22.3848 69.3553 22.3324 69.3641 22.2845C69.3728 22.2365 69.3466 22.1842 69.351 22.1318C69.3553 22.0795 69.351 22.0359 69.351 21.9879C69.351 21.9356 69.3422 21.8876 69.3378 21.8353C69.3335 21.783 69.3378 21.7306 69.3247 21.6826C69.3116 21.6347 69.351 21.5649 69.3335 21.5169C69.316 21.469 69.2241 21.4559 69.1979 21.4079C69.1716 21.3599 69.211 21.2771 69.176 21.2335C69.141 21.1899 69.0535 21.1986 69.0185 21.1637C68.9835 21.1288 68.9835 21.0459 68.9442 21.0154C68.9048 20.9849 68.8392 20.9805 68.7954 20.9544C68.7517 20.9282 68.7036 20.9108 68.6555 20.889C68.6073 20.8671 68.5723 20.8148 68.5199 20.8017C68.4674 20.7886 68.4105 20.8148 68.358 20.8105C68.3055 20.8061 68.2574 20.7756 68.2049 20.7756C68.2005 20.7756 68.2224 20.7756 68.2137 20.7756C68.2049 20.7232 68.1962 20.6753 68.1787 20.6273C68.1612 20.5793 68.1524 20.5226 68.1349 20.479C68.1174 20.4354 68.0387 20.4136 68.0124 20.37C67.9862 20.3264 67.9906 20.261 67.9599 20.2217C67.9293 20.1825 67.8812 20.1519 67.8462 20.1171C67.8112 20.0822 67.7806 20.0386 67.7412 20.008C67.7019 19.9775 67.6625 19.9383 67.6187 19.9121C67.575 19.8859 67.5269 19.8641 67.4788 19.8423C67.4307 19.8205 67.3825 19.7943 67.3344 19.7813C67.2863 19.7682 67.2207 19.8249 67.1726 19.8205C67.1245 19.8162 67.0763 19.7813 67.0238 19.7813C66.9714 19.7813 66.9189 19.7813 66.8664 19.79C66.8139 19.7987 66.7526 19.7725 66.7001 19.79C66.6477 19.8074 66.6039 19.8947 66.5558 19.9165C66.5208 19.8772 66.4946 19.8031 66.4552 19.7725C66.4158 19.742 66.3896 19.6897 66.3502 19.6592C66.3108 19.6286 66.2408 19.6374 66.1971 19.6112C66.1534 19.585 66.1227 19.5371 66.079 19.5152C66.0353 19.4934 65.9828 19.476 65.939 19.4586C65.8953 19.4411 65.8515 19.4019 65.8034 19.3844C65.7553 19.367 65.6984 19.3931 65.6459 19.3844C65.5935 19.3757 65.5497 19.3452 65.4972 19.3408C65.4447 19.3364 65.3966 19.3408 65.3441 19.3408C65.2916 19.3408 65.2348 19.3408 65.1823 19.3408C65.1298 19.3408 65.0729 19.3408 65.0204 19.3495C64.9679 19.3583 64.9111 19.3626 64.8586 19.3801C64.8061 19.3975 64.7623 19.428 64.7098 19.4498C64.6574 19.4716 64.6224 19.5109 64.5742 19.5371C64.5261 19.5632 64.4736 19.5763 64.4299 19.6068C64.3861 19.6374 64.3424 19.6853 64.303 19.7159C64.2549 19.6853 64.2199 19.6155 64.1674 19.5894C64.1149 19.5632 64.045 19.585 63.9925 19.5676C63.94 19.5501 63.8875 19.5109 63.8306 19.5022C63.7738 19.4934 63.7169 19.5283 63.6556 19.5283C63.6032 19.5283 63.5507 19.5283 63.4982 19.5327C63.4457 19.5371 63.3932 19.5458 63.3451 19.5589C63.297 19.5719 63.2488 19.5937 63.2007 19.6155C63.1526 19.6374 63.0914 19.633 63.0476 19.6592C63.0039 19.6853 62.9514 19.7071 62.9076 19.742C62.8639 19.7769 62.8464 19.8292 62.807 19.8685C62.7677 19.9077 62.7545 19.9601 62.7239 20.0037C62.6933 20.0473 62.6583 20.0822 62.6321 20.1301C62.6058 20.1781 62.5621 20.213 62.5446 20.2653C62.5271 20.3177 62.5358 20.3787 62.5227 20.431C62.5096 20.431 62.4746 20.4005 62.4615 20.4005C62.409 20.4005 62.3565 20.4092 62.304 20.418C62.2515 20.4267 62.1946 20.4223 62.1465 20.4354C62.0984 20.4485 62.059 20.5008 62.0109 20.5226C61.9628 20.5444 61.9191 20.5706 61.8753 20.6011C61.8316 20.6317 61.8009 20.6709 61.7572 20.7014C61.7135 20.732 61.6435 20.7276 61.6041 20.7668C61.5647 20.8061 61.5341 20.8453 61.5035 20.889C61.4729 20.9326 61.4729 20.9936 61.4466 21.0372C61.4204 21.0808 61.381 21.1201 61.3591 21.1681C61.3373 21.216 61.3504 21.2727 61.3373 21.325C61.3241 21.3774 61.2848 21.421 61.276 21.4733C61.2673 21.5257 61.2979 21.578 61.2979 21.6303C61.2979 21.6783 61.2585 21.6957 61.2629 21.7393C61.2192 21.7306 61.206 21.7568 61.1623 21.7524C61.1186 21.7481 61.0748 21.7393 61.0311 21.7393C60.9742 21.7393 60.9217 21.7611 60.8692 21.7699C60.8167 21.7786 60.7511 21.7524 60.6986 21.7699C60.6461 21.7873 60.5849 21.8527 60.5324 21.8789C60.528 21.8266 60.5455 21.7437 60.5324 21.6914C60.5193 21.639 60.4843 21.5954 60.4624 21.5475C60.4405 21.4995 60.4056 21.4602 60.3793 21.4123C60.3531 21.3643 60.3312 21.325 60.3006 21.2814C60.2699 21.2378 60.2437 21.1942 60.2087 21.155C60.1737 21.1157 60.1693 21.0372 60.13 21.0067C60.0906 20.9762 60.0294 20.9631 59.9812 20.9369C59.9331 20.9108 59.8763 20.9108 59.8281 20.889C59.78 20.8671 59.7407 20.8279 59.6882 20.8148C59.6357 20.8017 59.5788 20.8366 59.5263 20.8279C59.4738 20.8192 59.4257 20.8192 59.3732 20.8192C59.347 20.8192 59.312 20.7843 59.2857 20.7886C59.2682 20.7407 59.2201 20.7058 59.1982 20.6578C59.1764 20.6098 59.1808 20.5575 59.1589 20.5095C59.137 20.4616 59.1458 20.4005 59.1195 20.3569C59.0933 20.3133 59.0364 20.2871 59.0058 20.2479C58.9752 20.2086 58.9577 20.1563 58.9227 20.1171C58.8877 20.0778 58.8221 20.0735 58.7827 20.0386C58.7433 20.0037 58.7433 19.9252 58.704 19.8947C58.6646 19.8641 58.5902 19.8816 58.5465 19.8554C58.5027 19.8292 58.459 19.8031 58.4152 19.7813C58.3715 19.7595 58.3409 19.694 58.2971 19.6766C58.2534 19.6592 58.1965 19.6548 58.144 19.6417C58.0916 19.6286 58.0478 19.5981 57.9997 19.5894C57.9516 19.5807 57.8903 19.6155 57.8422 19.6112C57.7941 19.6068 57.7416 19.5981 57.6891 19.5981C57.6366 19.5981 57.5798 19.585 57.5273 19.5894C57.4748 19.5937 57.4267 19.6461 57.3742 19.6548C57.3217 19.6635 57.2692 19.6592 57.2167 19.6766C57.1642 19.694 57.1248 19.7333 57.0767 19.7551C57.0286 19.7769 56.9586 19.7987 56.9105 19.8205C56.8799 19.7813 56.8799 19.681 56.8449 19.6461C56.8099 19.6112 56.753 19.5894 56.7137 19.5632C56.6743 19.5371 56.5999 19.5545 56.5562 19.5283C56.5124 19.5022 56.4862 19.4455 56.4424 19.428C56.3987 19.4106 56.3462 19.4019 56.2981 19.3888C56.25 19.3757 56.2019 19.3626 56.1494 19.3583C56.0969 19.3539 56.0488 19.3234 56.0006 19.3234C55.9525 19.3234 55.8957 19.3321 55.8475 19.3364C55.7994 19.3408 55.7426 19.3495 55.6944 19.3626C55.6463 19.3757 55.607 19.4193 55.5588 19.4411C55.5107 19.4629 55.4626 19.4804 55.4189 19.5022C55.3751 19.524 55.3226 19.5458 55.2833 19.5763C55.2439 19.6068 55.222 19.6897 55.187 19.7246C55.1433 19.7028 55.0908 19.6504 55.0427 19.633C54.9946 19.6155 54.9552 19.5719 54.9071 19.5589C54.859 19.5458 54.8108 19.524 54.7583 19.5109C54.7059 19.4978 54.6534 19.5196 54.6009 19.5109C54.5484 19.5022 54.5003 19.5109 54.4478 19.5109C54.3953 19.5109 54.3384 19.4804 54.2903 19.4847C54.2422 19.4891 54.1897 19.5327 54.1372 19.5414C54.0847 19.5501 54.0322 19.5501 53.9841 19.5676C53.936 19.585 53.8835 19.5981 53.8354 19.6155C53.7873 19.633 53.7391 19.6548 53.691 19.681C53.6429 19.7071 53.6123 19.7507 53.5685 19.7813C53.5248 19.8118 53.4986 19.8554 53.4548 19.8903C53.4111 19.9252 53.3542 19.9295 53.3148 19.9644C53.2755 19.9993 53.2186 20.0211 53.1836 20.056C53.1486 20.0909 53.118 20.1432 53.0874 20.1825C53.0567 20.2217 53.0305 20.2697 53.0043 20.3177C52.978 20.3656 52.9605 20.4049 52.9386 20.4529C52.8862 20.4616 52.8337 20.4529 52.7812 20.4659C52.7287 20.479 52.6849 20.5226 52.6324 20.5401C52.5799 20.5575 52.5406 20.6011 52.4925 20.6273C52.4443 20.6535 52.405 20.6883 52.3612 20.7145C52.3175 20.7407 52.2519 20.745 52.2081 20.7756C52.1644 20.8061 52.1294 20.8453 52.09 20.8846C52.0507 20.9238 52.0375 20.9805 52.0025 21.0198C51.9676 21.059 51.8844 21.059 51.8494 21.1026C51.8145 21.1462 51.8276 21.2204 51.8013 21.264C51.7751 21.3076 51.692 21.325 51.6701 21.3774C51.6482 21.4297 51.6876 21.5038 51.6701 21.5518C51.6526 21.5998 51.6264 21.6478 51.6089 21.7001C51.5914 21.7524 51.5432 21.796 51.5345 21.8484C51.5257 21.9007 51.5257 21.9574 51.5214 22.0097C51.517 22.0621 51.5389 22.1187 51.5389 22.1711C51.5389 22.2234 51.5301 22.2714 51.5345 22.3193C51.5389 22.3673 51.5345 22.4197 51.5432 22.4676C51.552 22.5156 51.5826 22.5592 51.5957 22.6072C51.6089 22.6551 51.6001 22.7031 51.6176 22.7511C51.5651 22.7685 51.5389 22.8252 51.4908 22.8514C51.4426 22.8776 51.3989 22.8994 51.3552 22.9299C51.3114 22.9604 51.2545 22.9779 51.2152 23.0127C51.1758 23.0476 51.1627 23.1087 51.1277 23.1523C51.0927 23.1959 51.0358 23.2221 51.0096 23.2657C50.9833 23.3093 50.9352 23.3529 50.9133 23.4009C50.8915 23.4488 50.9308 23.523 50.9177 23.5753C50.9046 23.6276 50.8696 23.6712 50.8609 23.7279C50.8521 23.7846 50.8521 23.8326 50.8521 23.8893C50.8521 23.946 50.8259 23.9983 50.8346 24.0507C50.8434 24.103 50.8652 24.1553 50.8784 24.2076C50.8915 24.26 50.9002 24.3123 50.9221 24.3646C50.944 24.417 50.9833 24.4519 51.0096 24.4998C51.0358 24.5478 51.0577 24.5958 51.0927 24.635C51.1277 24.6743 51.1496 24.7179 51.1889 24.7571C51.1496 24.7877 51.1102 24.8095 51.0752 24.8443C51.0402 24.8792 50.9965 24.9098 50.9658 24.949C50.9352 24.9883 50.9352 25.0493 50.9046 25.0929C50.874 25.1365 50.8565 25.1801 50.8346 25.2238C50.8127 25.2674 50.7821 25.3066 50.7646 25.3546C50.7471 25.4026 50.7296 25.4462 50.7121 25.4941C50.6946 25.5421 50.6509 25.5814 50.6378 25.6293C50.6246 25.6773 50.6728 25.7383 50.664 25.7863C50.6553 25.8343 50.6028 25.8779 50.5984 25.9259C50.594 25.9738 50.6028 26.0262 50.6028 26.0741C50.6028 26.1221 50.6334 26.1744 50.6378 26.2268C50.6421 26.2791 50.5765 26.3402 50.5853 26.3881C50.594 26.4361 50.664 26.4754 50.6771 26.5277C50.6903 26.58 50.6509 26.6454 50.6684 26.6934C50.6859 26.7414 50.7646 26.7632 50.7865 26.8111C50.8084 26.8591 50.839 26.8984 50.8652 26.942C50.8915 26.9856 50.8871 27.0466 50.9177 27.0902C50.9483 27.1339 50.9921 27.1644 51.0227 27.2036C51.0533 27.2429 51.0883 27.2821 51.1233 27.317C51.1583 27.3519 51.1671 27.426 51.2064 27.4566C51.2458 27.4871 51.3202 27.4784 51.3639 27.5089C51.4076 27.5394 51.4514 27.5612 51.4951 27.5874C51.5389 27.6136 51.5782 27.6528 51.622 27.6703C51.5957 27.7182 51.5389 27.7575 51.5214 27.8054C51.5039 27.8534 51.5345 27.9276 51.5214 27.9799C51.5083 28.0322 51.4514 28.0758 51.4383 28.1325C51.4251 28.1892 51.482 28.2503 51.4776 28.307C51.4733 28.3636 51.4339 28.4116 51.4339 28.4683C51.4339 28.5206 51.412 28.573 51.4164 28.6209C51.4208 28.6689 51.4558 28.7169 51.4645 28.7692C51.4733 28.8216 51.4908 28.8652 51.5039 28.9131C51.517 28.9611 51.5432 29.0047 51.5607 29.0527C51.5782 29.1007 51.5389 29.1704 51.5607 29.214C51.5826 29.2576 51.622 29.2969 51.6439 29.3405C51.6657 29.3841 51.6788 29.4408 51.7095 29.4801C51.7401 29.5193 51.7795 29.5586 51.8101 29.5934C51.8407 29.6283 51.9107 29.6371 51.9457 29.6763C51.9807 29.7155 52.0244 29.733 52.0638 29.7679C52.1032 29.8028 52.1338 29.8377 52.1731 29.8682C52.2125 29.8987 52.2431 29.9467 52.2869 29.9685C52.3306 29.9903 52.3481 30.0252 52.3962 30.0426C52.3744 30.0862 52.3919 30.1298 52.3744 30.1735C52.3569 30.2171 52.3656 30.2738 52.3525 30.3217C52.3394 30.3697 52.2912 30.4089 52.2869 30.4613C52.2825 30.5136 52.2825 30.5616 52.2825 30.6095C52.2825 30.6575 52.2563 30.7186 52.2606 30.7709C52.265 30.8232 52.3219 30.8668 52.335 30.9148C52.3481 30.9628 52.3744 31.0108 52.3919 31.0587C52.4094 31.1067 52.4094 31.1634 52.4356 31.207C52.4618 31.2506 52.4793 31.3029 52.51 31.3466C52.5406 31.3902 52.58 31.425 52.6149 31.4643C52.6499 31.5035 52.7024 31.5254 52.7418 31.5559C52.7812 31.5864 52.8249 31.6169 52.8687 31.6431C52.9124 31.6693 52.9474 31.7172 52.9955 31.739C53.0436 31.7608 53.1049 31.739 53.153 31.7565C53.2011 31.7739 53.2536 31.7739 53.3061 31.7783C53.3586 31.7826 53.4067 31.8088 53.4592 31.8088C53.4767 31.8088 53.5029 31.8175 53.5204 31.8132C53.5204 31.8437 53.516 31.8742 53.516 31.9048C53.516 31.9571 53.516 32.0094 53.5204 32.0618C53.5248 32.1141 53.5335 32.1664 53.5423 32.2187C53.551 32.2711 53.5335 32.3278 53.551 32.3801C53.5685 32.4324 53.621 32.4673 53.6385 32.5197C53.656 32.572 53.6954 32.6069 53.7173 32.6548C53.7391 32.7028 53.7304 32.7639 53.761 32.8075C53.7916 32.8511 53.7916 32.9165 53.8222 32.9557C53.8529 32.995 53.9316 33.0037 53.9666 33.043C54.0016 33.0822 54.041 33.1127 54.076 33.152C54.111 33.1912 54.1547 33.2174 54.1941 33.2523C54.2334 33.2872 54.2641 33.3308 54.3078 33.357C54.3515 33.3831 54.3778 33.4442 54.4259 33.4703C54.474 33.4965 54.544 33.4616 54.5921 33.4834C54.6402 33.5052 54.6796 33.5445 54.7321 33.5619C54.7846 33.5794 54.8283 33.6143 54.8808 33.623C54.9333 33.6317 54.9858 33.6317 55.0383 33.6361C55.0908 33.6404 55.1433 33.623 55.1958 33.623C55.2264 33.623 55.2789 33.6186 55.3095 33.6186C55.3095 33.6709 55.3051 33.7364 55.3095 33.7843C55.3139 33.8323 55.2745 33.8934 55.2833 33.9457C55.292 33.998 55.3532 34.0329 55.3664 34.0809C55.3795 34.1288 55.3795 34.1855 55.4014 34.2291C55.4232 34.2728 55.4757 34.3076 55.4976 34.3513C55.5195 34.3949 55.5107 34.4603 55.537 34.5039C55.5632 34.5475 55.6113 34.5737 55.6463 34.6173C55.6813 34.6609 55.6944 34.7132 55.7251 34.7481C55.7557 34.783 55.8169 34.8004 55.8519 34.8353C55.8869 34.8702 55.9219 34.9095 55.9613 34.94C56.0006 34.9705 56.0488 34.9923 56.0925 35.0185C56.1362 35.0447 56.1931 35.0447 56.2369 35.0665C56.2806 35.0883 56.32 35.1231 56.3681 35.1406C56.4162 35.158 56.4599 35.1886 56.5081 35.2016C56.5562 35.2147 56.5999 35.254 56.6524 35.2627C56.7049 35.2714 56.7574 35.2627 56.8055 35.2627C56.8536 35.2627 56.9061 35.2889 56.9586 35.2889C57.0111 35.2889 57.0592 35.2714 57.1117 35.2671C57.1642 35.2627 57.2079 35.2191 57.2561 35.2104C57.3042 35.2016 57.3742 35.1929 57.4267 35.1755C57.4354 35.2235 57.4398 35.2976 57.4529 35.3456C57.466 35.3935 57.4442 35.4546 57.4617 35.4982C57.4792 35.5418 57.5054 35.5898 57.5273 35.6377C57.5491 35.6857 57.5623 35.7337 57.5885 35.7773C57.6148 35.8209 57.6629 35.8514 57.6891 35.8907C57.7154 35.9299 57.7241 35.991 57.7547 36.0302C57.7854 36.0695 57.8072 36.1218 57.8378 36.1567C57.8685 36.1916 57.921 36.2178 57.9603 36.2526C57.9997 36.2875 58.0216 36.3399 58.0653 36.3704C58.1091 36.4009 58.1703 36.4009 58.214 36.4271C58.2578 36.4532 58.2928 36.4969 58.3365 36.5187C58.3803 36.5405 58.4327 36.5579 58.4765 36.5754C58.5202 36.5928 58.5771 36.5972 58.6252 36.6102C58.6733 36.6233 58.7258 36.6277 58.7739 36.6364C58.8221 36.6451 58.8702 36.6582 58.9227 36.6626C58.9752 36.6669 59.0233 36.6408 59.0758 36.6408C59.137 36.6408 59.1982 36.68 59.2551 36.6757C59.312 36.6713 59.3688 36.6364 59.4257 36.6233C59.4826 36.6102 59.5482 36.5928 59.6051 36.571C59.6269 36.6233 59.6357 36.6887 59.6663 36.7323C59.6969 36.776 59.745 36.8108 59.78 36.8545C59.815 36.8981 59.8456 36.9417 59.885 36.9809C59.9244 37.0202 59.9506 37.0725 59.9944 37.1074C60.0381 37.1423 60.0731 37.1902 60.1212 37.2164C60.1693 37.2426 60.2481 37.2121 60.2962 37.2295C60.3443 37.2469 60.3924 37.2687 60.4449 37.2818C60.4974 37.2949 60.5368 37.3734 60.5936 37.3821C60.6505 37.3909 60.7074 37.3429 60.7599 37.3429C60.8124 37.3429 60.8648 37.356 60.9173 37.3472C60.9698 37.3385 61.0223 37.3298 61.0748 37.3167C61.1273 37.3036 61.1929 37.3254 61.241 37.308C61.2892 37.2905 61.3154 37.2164 61.3635 37.1902C61.4116 37.1641 61.4598 37.1466 61.5035 37.1161C61.5472 37.0856 61.5691 37.0333 61.6085 36.994C61.6478 36.9548 61.6785 36.9199 61.7091 36.8763C61.7397 36.8326 61.7835 36.8021 61.8141 36.7585C61.8447 36.7149 61.8797 36.6757 61.9016 36.6277C61.9234 36.5797 61.9322 36.5274 61.9497 36.475C61.9672 36.4227 61.9803 36.3573 61.989 36.305C62.0415 36.3268 62.1115 36.3399 62.1684 36.3573C62.2253 36.3747 62.2777 36.3878 62.3346 36.3966C62.3915 36.4053 62.444 36.4314 62.5008 36.4358C62.5577 36.4402 62.6146 36.4663 62.6714 36.4663C62.7239 36.4663 62.7764 36.4402 62.8289 36.4358C62.8814 36.4314 62.9383 36.4663 62.9908 36.4576C63.0432 36.4489 63.0782 36.3747 63.1307 36.3617C63.1832 36.3486 63.2532 36.3966 63.3013 36.3791C63.3494 36.3617 63.4019 36.3399 63.4501 36.3181C63.4982 36.2962 63.52 36.2265 63.5638 36.2003C63.6075 36.1741 63.6775 36.1829 63.7213 36.1523C63.765 36.1218 63.7912 36.0651 63.8306 36.0346C63.87 36.0041 63.9094 35.9648 63.9443 35.9256C63.9793 35.8863 64.01 35.8427 64.045 35.8035C64.08 35.7642 64.1412 35.7468 64.1718 35.7032C64.2024 35.6595 64.1981 35.5941 64.2243 35.5462C64.2505 35.4982 64.2637 35.4502 64.2855 35.4023C64.3074 35.3543 64.3205 35.3063 64.338 35.2583C64.3555 35.2104 64.3818 35.1668 64.3993 35.1144C64.4168 35.0621 64.478 35.0272 64.4868 34.9749C64.4955 34.9225 64.478 34.8659 64.4868 34.8135C64.4955 34.7612 64.4868 34.6958 64.4911 34.6434C64.5436 34.6609 64.6092 34.6783 64.6661 34.6871C64.723 34.6958 64.7755 34.7437 64.8367 34.7437C64.8892 34.7437 64.9417 34.7132 64.9942 34.7045C65.0467 34.6958 65.0948 34.6696 65.1429 34.6565C65.191 34.6434 65.2435 34.6347 65.2916 34.6173C65.3397 34.5998 65.3922 34.5867 65.4404 34.5606C65.4885 34.5344 65.5278 34.5039 65.5716 34.4734C65.6153 34.4428 65.6284 34.3818 65.6634 34.3425C65.6984 34.3033 65.7509 34.2815 65.7815 34.2422C65.8122 34.203 65.8034 34.1376 65.8297 34.0896C65.8559 34.0416 65.8909 34.0111 65.9084 33.9631C65.9259 33.9152 65.9915 33.8803 66.0046 33.8323C66.0178 33.7843 65.9915 33.7146 66.0003 33.6622C66.0528 33.6535 66.1009 33.6186 66.1534 33.6055C66.2059 33.5924 66.2627 33.6055 66.3108 33.5881C66.359 33.5706 66.4114 33.5532 66.4552 33.527C66.4989 33.5009 66.5427 33.4703 66.582 33.4355C66.6214 33.4006 66.6302 33.3395 66.6695 33.3003C66.7089 33.261 66.7395 33.2305 66.7701 33.1869C66.8008 33.1433 66.8139 33.0953 66.8401 33.0517C66.8664 33.0081 66.897 32.9688 66.9189 32.9209C66.9407 32.8729 67.002 32.838 67.0151 32.79C67.0282 32.7421 67.002 32.681 67.0107 32.6287C67.0195 32.5763 67.0457 32.5284 67.0457 32.476C67.0457 32.4237 67.0195 32.367 67.0151 32.3147C67.0676 32.3103 67.1201 32.2754 67.1682 32.2667C67.2163 32.258 67.2732 32.2754 67.3213 32.2624C67.3694 32.2493 67.4132 32.2187 67.4613 32.2013C67.5094 32.1839 67.5619 32.1795 67.61 32.1577C67.6581 32.1359 67.715 32.1359 67.7587 32.1097C67.8025 32.0836 67.8243 32.0225 67.8637 31.992C67.9031 31.9614 67.9599 31.9484 67.9993 31.9135C68.0387 31.8786 68.0474 31.8175 68.0824 31.7826C68.1174 31.7478 68.1612 31.7172 68.1918 31.6736C68.2224 31.63 68.2661 31.5995 68.2924 31.5559C68.3186 31.5123 68.358 31.4774 68.3842 31.4294C68.4105 31.3814 68.428 31.3335 68.4499 31.2855C68.4717 31.2375 68.4236 31.1678 68.4411 31.1198C68.4586 31.0718 68.4849 31.0282 68.498 30.9802C68.5111 30.9323 68.5286 30.8843 68.533 30.832C68.5374 30.7796 68.5417 30.7229 68.5417 30.6706C68.5898 30.6575 68.6423 30.6314 68.6905 30.6095C68.7386 30.5877 68.7823 30.5703 68.8261 30.5398C68.8698 30.5092 68.9004 30.4744 68.9398 30.4438C68.9792 30.4133 69.0185 30.3828 69.0535 30.3479C69.0885 30.313 69.1235 30.2738 69.1541 30.2345C69.1847 30.1953 69.1935 30.1429 69.2197 30.095C69.246 30.047 69.281 30.0165 69.3028 29.9685C69.3247 29.9205 69.3772 29.8856 69.3903 29.8333C69.4035 29.781 69.3597 29.7243 69.3685 29.6719C69.3772 29.6196 69.4297 29.576 69.4297 29.5237C69.4297 29.4757 69.3816 29.4146 69.3772 29.3667C69.4253 29.3449 69.4691 29.3056 69.5172 29.2795C69.5653 29.2533 69.6134 29.2446 69.6528 29.214C69.6922 29.1835 69.7534 29.1792 69.7928 29.1486C69.8321 29.1181 69.8453 29.057 69.8803 29.0178C69.9152 28.9785 69.959 28.9524 69.9896 28.9131C70.0202 28.8739 70.029 28.8172 70.0552 28.7736C70.0815 28.73 70.1777 28.73 70.1996 28.6864C70.2214 28.6428 70.1821 28.5643 70.1996 28.5163C70.2171 28.4683 70.2433 28.4291 70.2608 28.3811C70.2783 28.3331 70.3221 28.2939 70.3352 28.2459C70.3483 28.1979 70.3702 28.15 70.3789 28.0976C70.3877 28.0453 70.3571 27.993 70.3614 27.9406C70.3658 27.8883 70.4314 27.8403 70.4314 27.7924C70.4314 27.7444 70.3877 27.6921 70.3833 27.6441C70.3789 27.5961 70.392 27.5394 70.3833 27.4915C70.3745 27.4435 70.3833 27.3868 70.3702 27.3388C70.3571 27.2909 70.3089 27.2516 70.2914 27.2036C70.3308 27.1731 70.3789 27.1469 70.4139 27.1121C70.4489 27.0772 70.4708 27.0248 70.5014 26.9856C70.532 26.9463 70.5583 26.9027 70.5845 26.8635C70.6108 26.8242 70.6589 26.7937 70.6851 26.7457C70.7114 26.6978 70.7289 26.6542 70.7464 26.6062C70.7639 26.5582 70.7989 26.519 70.8164 26.471C70.8339 26.423 70.8732 26.3794 70.8863 26.3314C70.8995 26.2835 70.9038 26.2311 70.9126 26.1788C70.9213 26.1265 70.882 26.0741 70.8863 26.0218C70.8907 25.9695 70.8951 25.9215 70.8951 25.8735L70.8863 25.8386Z" fill="white"/>
<path d="M62.5304 30.3132C62.5566 30.4092 62.596 30.5095 62.596 30.6229C62.596 30.7232 62.5785 30.8278 62.561 30.9325C62.5435 31.0372 62.4779 31.12 62.4473 31.2247C62.4166 31.3293 62.4035 31.4253 62.3598 31.5212C62.316 31.6172 62.2679 31.7044 62.211 31.7916C62.1542 31.8788 62.1104 31.9704 62.0448 32.0489C61.9792 32.1274 61.9267 32.2233 61.848 32.2931C61.7692 32.3629 61.6686 32.3978 61.5812 32.4545C61.4937 32.5112 61.4237 32.6027 61.3231 32.6376C61.2225 32.6725 61.1087 32.6376 61.0037 32.6551C60.9031 32.6725 60.8069 32.7292 60.7019 32.7292C60.5969 32.7292 60.5007 32.6812 60.4045 32.6594C60.3039 32.6376 60.2033 32.6245 60.1114 32.5809C60.0195 32.5373 59.9408 32.4719 59.8621 32.4109C59.7833 32.3498 59.6871 32.3062 59.6171 32.2321C59.5471 32.1579 59.4771 32.0838 59.4159 32.0009C59.3546 31.9181 59.3196 31.8178 59.2715 31.7349C59.2234 31.6521 59.1359 31.5779 59.0922 31.4863C59.0441 31.3904 59.0178 31.2901 58.9828 31.2029C58.9435 31.0982 58.926 30.9979 58.9041 30.9107C58.8691 30.7799 58.8735 30.6796 58.8735 30.6185C58.8735 30.5051 58.8647 30.4048 58.891 30.3132H62.5347H62.5304Z" fill="#A05A2D"/>
<path d="M62.7993 31.0854C62.7993 31.0854 62.7862 31.0723 62.7862 31.0026C62.7862 30.9328 62.7862 31.02 62.7862 30.9328C62.7862 30.8499 62.7862 30.9241 62.7862 30.8499C62.7862 30.8107 62.7862 30.7932 62.7862 30.7845C62.7862 30.7758 62.7775 30.7627 62.7731 30.7365C62.7381 30.6144 62.7425 30.6406 62.7381 30.6144C62.69 30.4182 62.5675 30.4836 62.5675 30.4836L61.6445 31.0156L61.7889 31.3558L61.8108 31.4212C61.8239 31.4605 61.8676 31.5172 61.9201 31.5782L61.9988 31.648L62.0338 31.6698L62.0601 31.696L62.1126 31.7483L62.1651 31.7614L62.2044 31.7832C62.2044 31.7832 62.2176 31.8137 62.3007 31.853C62.4013 31.9009 62.41 31.8835 62.41 31.8835L62.515 31.9445C62.5763 31.9794 62.6069 31.9271 62.6375 31.8791C62.6375 31.8791 62.6812 31.853 62.7119 31.7527C62.7425 31.6524 62.7294 31.7221 62.7425 31.6524C62.7556 31.5826 62.7425 31.6872 62.7556 31.5826C62.7731 31.4779 62.7687 31.5215 62.7731 31.4779V31.4343L62.7775 31.4038L62.7906 31.2468L62.7818 31.177L62.795 31.1247L62.8081 31.0898L62.7993 31.0854Z" fill="#F0DCBE"/>
<path d="M58.8012 31.875C58.8012 31.875 58.7794 31.8358 58.7662 31.827C58.7531 31.8183 58.7662 31.7006 58.7662 31.7006L58.7444 31.67C58.7225 31.6395 58.705 31.5087 58.6919 31.4651C58.6787 31.4215 58.6919 31.3212 58.6919 31.3212L58.7181 31.1424V30.9505C58.7181 30.9505 58.7094 30.9156 58.6962 30.9025C58.6831 30.8894 58.7269 30.7237 58.7269 30.7237L58.7356 30.449L59.8248 30.8197L59.6105 31.3473L59.5142 31.4476C59.5142 31.4476 59.4967 31.4476 59.418 31.5043C59.3699 31.5872 59.2868 31.6919 59.2212 31.7485L59.0593 31.8881L58.9368 31.9404C58.8843 31.9579 58.8187 31.9055 58.7968 31.8706L58.8012 31.875Z" fill="#F0DCBE"/>
<path d="M63.9497 26.1401C63.9979 26.1881 64.0722 26.2055 64.1291 26.2448C64.186 26.284 64.2428 26.3145 64.3041 26.3451C64.3653 26.3756 64.4178 26.4279 64.479 26.4454C64.5403 26.4628 64.6146 26.4715 64.6802 26.4846C64.7459 26.4977 64.8158 26.4977 64.8815 26.4977C64.9383 26.4977 64.9296 26.5718 64.8815 26.6198C64.8421 26.6721 64.7984 26.7245 64.7634 26.7855C64.7327 26.8422 64.724 26.9163 64.6977 26.9774C64.6715 27.0385 64.6453 27.1039 64.6321 27.1693C64.619 27.2347 64.654 27.3045 64.6496 27.3699C64.6453 27.4353 64.6146 27.5051 64.6321 27.5705C64.6496 27.6359 64.6934 27.6882 64.724 27.7493C64.7546 27.806 64.7896 27.854 64.8377 27.9063C64.8815 27.9543 64.9033 28.0284 64.9602 28.0676C65.0127 28.1069 65.0739 28.1331 65.1395 28.1636C65.1964 28.1941 65.2577 28.2203 65.3233 28.2421C65.402 28.2726 65.4939 28.3598 65.4632 28.4907C65.4501 28.5561 65.4807 28.6302 65.4676 28.6956C65.4545 28.761 65.4064 28.8177 65.3889 28.8831C65.3714 28.9486 65.3583 29.014 65.3364 29.075C65.3145 29.1361 65.3189 29.2102 65.2883 29.2713C65.2577 29.3323 65.2139 29.3847 65.1833 29.4457C65.1527 29.5068 65.1002 29.5504 65.0608 29.6071C65.0214 29.6638 64.9821 29.7161 64.9383 29.7641C64.8946 29.812 64.8596 29.8731 64.8115 29.9211C64.7634 29.969 64.7152 30.0126 64.6584 30.0562C64.6059 30.0955 64.5446 30.126 64.4834 30.1609C64.4265 30.1914 64.3609 30.2132 64.2997 30.2438C64.2428 30.2699 64.1816 30.3092 64.1203 30.331C64.0591 30.3528 63.9804 30.331 63.9147 30.3528C63.8535 30.3702 63.7923 30.3964 63.7267 30.4138C63.6654 30.4313 63.5998 30.4487 63.5342 30.4618C63.4686 30.4749 63.4073 30.4923 63.3373 30.5011C63.2717 30.5098 63.2061 30.5011 63.1361 30.5141C63.0705 30.5229 63.0093 30.5621 62.9393 30.5665C62.8693 30.5708 62.8037 30.5534 62.7337 30.5621C62.6768 30.5839 62.6068 30.6188 62.5543 30.6755C62.5106 30.7191 62.4669 30.7714 62.4187 30.8281C62.3794 30.8761 62.3356 30.9284 62.2875 30.9808C62.2438 31.0287 62.2088 31.0898 62.1607 31.1378C62.1169 31.1857 62.0907 31.2555 62.0382 31.3035C61.9901 31.3471 61.9244 31.3733 61.8632 31.4125C61.8107 31.4474 61.7407 31.4648 61.6751 31.4954C61.6182 31.5259 61.5526 31.539 61.487 31.5608C61.4258 31.5826 61.3689 31.6218 61.2989 31.6349C61.2333 31.648 61.1721 31.6829 61.1021 31.6916C61.0365 31.7003 60.9665 31.7091 60.8965 31.7134C60.8309 31.7134 60.7653 31.6654 60.6953 31.6611C60.6209 31.6611 60.5553 31.6524 60.4897 31.6436C60.4153 31.6349 60.3453 31.648 60.2797 31.6349C60.2097 31.6218 60.1485 31.5826 60.0829 31.5608C60.0129 31.539 59.9341 31.5521 59.8729 31.5259C59.8073 31.4997 59.7461 31.4561 59.6892 31.4212C59.6236 31.3863 59.5667 31.3471 59.5098 31.3078C59.4486 31.2642 59.3874 31.2337 59.3349 31.1901C59.278 31.1421 59.2299 31.0942 59.1818 31.0462C59.1293 30.9982 59.1118 30.9154 59.0637 30.8674C59.0112 30.8194 58.9368 30.7932 58.8843 30.7496C58.8275 30.706 58.7706 30.6711 58.7093 30.6406C58.6481 30.6101 58.5912 30.5578 58.5213 30.5447C58.4513 30.5316 58.3725 30.5665 58.3069 30.5534C58.2369 30.5403 58.1757 30.4793 58.1101 30.4662C58.0401 30.4531 57.9657 30.4662 57.9001 30.4487C57.8301 30.4357 57.7645 30.4051 57.6989 30.392C57.6289 30.3746 57.5589 30.3746 57.4933 30.3572C57.4233 30.3397 57.3577 30.3135 57.2921 30.2961C57.2221 30.2743 57.1521 30.2699 57.0865 30.2481C57.0165 30.2263 56.964 30.1696 56.9028 30.1435C56.8372 30.1173 56.7628 30.1086 56.7015 30.078C56.6359 30.0432 56.5922 29.9821 56.5397 29.9472C56.4785 29.908 56.4041 29.8905 56.356 29.8426C56.3122 29.751 56.1854 29.5591 56.1635 29.4893C56.1416 29.4195 56.0848 29.3236 56.0804 29.2146C56.0804 29.1099 56.0279 29.0838 55.971 28.9704C55.9142 28.857 55.9098 28.8046 55.9011 28.7C55.8967 28.6084 55.9754 28.4732 56.0629 28.4078C56.1241 28.3729 56.1635 28.3119 56.216 28.2682C56.2685 28.2246 56.3385 28.1941 56.3822 28.1461C56.426 28.0982 56.4697 28.0371 56.5091 27.9848C56.5484 27.9325 56.6009 27.8758 56.6316 27.8191C56.6622 27.7624 56.6972 27.697 56.7234 27.6315C56.7497 27.5661 56.7409 27.492 56.7584 27.4266C56.7759 27.3612 56.7715 27.2914 56.7803 27.226C56.789 27.1606 56.824 27.0908 56.824 27.0254C56.824 26.96 56.789 26.8902 56.7803 26.8248C56.7715 26.7594 56.8109 26.6242 56.7934 26.5588C56.7803 26.4018 56.7978 26.4454 56.9071 26.4192C56.9815 26.4061 57.0427 26.3756 57.1084 26.3581C57.1783 26.3407 57.2571 26.3494 57.3183 26.3233C57.3883 26.2971 57.4321 26.2273 57.4889 26.1968C57.5502 26.1575 57.6027 26.1183 57.6508 26.0703C57.7033 26.0224 57.747 25.97 57.7864 25.9177C57.8301 25.861 57.8914 25.813 57.9176 25.7563C57.9482 25.6909 57.9832 25.6255 58.0007 25.5601C58.0182 25.486 58.0095 25.3115 58.0138 25.2548C58.0051 25.1196 58.0663 25.1676 58.1844 25.1981C58.2588 25.2199 58.3463 25.2679 58.4119 25.281C58.4863 25.2941 58.5606 25.281 58.6262 25.281C58.7006 25.281 58.775 25.2853 58.8406 25.2766C58.9149 25.2635 58.9893 25.2635 59.0549 25.2374C59.1205 25.2112 59.1643 25.1371 59.2211 25.0978C59.278 25.0586 59.3436 25.0281 59.3917 24.9714C59.4399 24.9147 59.4967 24.8711 59.5361 24.8144C59.5755 24.7577 59.593 24.6835 59.6236 24.6181C59.6454 24.5789 59.6673 24.544 59.6892 24.5091C59.7067 24.4786 59.7373 24.4742 59.7635 24.496C59.7898 24.5178 59.816 24.5309 59.8467 24.5614C59.8948 24.605 59.9341 24.653 59.9866 24.6879C60.0391 24.7228 60.096 24.7489 60.1529 24.7795C60.2097 24.81 60.2753 24.8056 60.3366 24.8231C60.3978 24.8405 60.4459 24.8972 60.5116 24.9103C60.5772 24.9234 60.6384 24.9234 60.704 24.9234C60.7784 24.9234 60.844 24.9234 60.9052 24.9147C60.9796 24.9059 61.0365 24.8536 61.0933 24.8405C61.1633 24.8231 61.2377 24.8405 61.2945 24.81C61.3558 24.7795 61.4039 24.7315 61.4564 24.6879C61.5089 24.6443 61.5395 24.5876 61.5833 24.5353C61.6051 24.5091 61.6357 24.4917 61.662 24.4698C61.7057 24.4393 61.7539 24.4742 61.802 24.5701C61.8326 24.6312 61.8807 24.6835 61.9244 24.7271C61.9682 24.7751 62.0207 24.8231 62.0732 24.8623C62.1257 24.9016 62.2 24.9103 62.2569 24.9408C62.3138 24.9714 62.375 24.9932 62.4362 25.015C62.4975 25.0368 62.55 25.1022 62.6112 25.1153C62.6725 25.1284 62.7468 25.1153 62.8124 25.124C62.878 25.1327 62.9437 25.0978 63.0093 25.0935C63.0749 25.0891 63.1405 25.1022 63.2061 25.0935C63.2717 25.0847 63.333 25.0673 63.3986 25.0542C63.4292 25.0499 63.4554 25.0455 63.4861 25.0411C63.5561 25.0281 63.5736 25.0237 63.5736 25.1153C63.5604 25.2156 63.5648 25.2853 63.5736 25.3377C63.5823 25.39 63.5998 25.4336 63.5954 25.486C63.5911 25.5383 63.626 25.6386 63.6654 25.6909C63.7048 25.7432 63.7485 25.8654 63.7748 25.909C63.801 25.9526 63.9235 26.0747 63.9629 26.1052L63.9497 26.1401Z" fill="#AA6E46"/>
<path d="M57.7597 27.809C57.7771 27.8657 57.7903 27.9268 57.8165 27.9791C57.8428 28.0358 57.8603 28.0968 57.8909 28.1448C57.9215 28.1971 57.9915 28.2189 58.0309 28.2669C58.0702 28.3105 58.1008 28.3629 58.1446 28.4021C58.1883 28.4414 58.2408 28.4675 58.2933 28.5024C58.3458 28.5329 58.3983 28.5591 58.4508 28.5853C58.5033 28.6114 58.5558 28.6463 58.6126 28.6638C58.6695 28.6812 58.7307 28.6856 58.792 28.6943C58.8488 28.703 58.9101 28.7074 58.9713 28.7074C59.0326 28.7074 59.0938 28.7248 59.155 28.7161C59.2163 28.7074 59.2688 28.6638 59.3256 28.6463C59.3825 28.6289 59.4394 28.6114 59.4919 28.5853C59.5487 28.5591 59.6056 28.5417 59.6537 28.5111C59.7062 28.4806 59.7543 28.4457 59.7981 28.4065C59.8418 28.3672 59.8812 28.3192 59.9205 28.2756C59.9599 28.232 59.9862 28.1753 60.0168 28.1274C60.0474 28.075 60.0955 28.0358 60.1218 27.9791C60.148 27.9268 60.1568 27.8657 60.1699 27.8047C60.1874 27.748 60.1918 27.6913 60.2005 27.6302C60.2093 27.5735 60.2442 27.5125 60.2442 27.4514C60.2442 27.3904 60.2442 27.3293 60.2355 27.2683C60.2268 27.2072 60.183 27.1549 60.1699 27.0982C60.1524 27.0415 60.1305 26.9892 60.1043 26.9325C60.078 26.8758 60.0562 26.8234 60.0255 26.7711C59.9949 26.7188 59.973 26.6577 59.9337 26.6141C59.8943 26.5705 59.8593 26.5138 59.8156 26.4746C59.7718 26.4353 59.7062 26.4179 59.6537 26.3873C59.6012 26.3568 59.5444 26.3394 59.4919 26.3132C59.4394 26.287 59.3825 26.2696 59.3256 26.2521C59.2688 26.2347 59.2119 26.2216 59.1507 26.2129C59.0938 26.2042 59.0326 26.1824 58.9713 26.1824C58.9101 26.1824 58.8488 26.1824 58.792 26.1911C58.7307 26.1998 58.6783 26.2434 58.6214 26.2609C58.5645 26.2783 58.4945 26.2652 58.442 26.2914C58.3852 26.3176 58.3283 26.3437 58.2802 26.3743C58.2277 26.4048 58.1752 26.4397 58.1315 26.4789C58.0877 26.5182 58.044 26.5661 58.0046 26.6097C57.9652 26.6534 57.9346 26.71 57.904 26.7624C57.8734 26.8147 57.8384 26.867 57.8165 26.9194C57.7903 26.9717 57.7903 27.0371 57.7728 27.0938C57.7553 27.1505 57.7422 27.2072 57.7334 27.2683C57.7247 27.3249 57.7334 27.386 57.7334 27.4471C57.7334 27.5081 57.7028 27.5692 57.7115 27.6302C57.7203 27.6913 57.7509 27.748 57.7684 27.8047L57.7597 27.809Z" fill="white"/>
<path d="M61.316 27.8177C61.3335 27.8744 61.351 27.931 61.3773 27.9834C61.4035 28.0357 61.4429 28.0793 61.4735 28.1273C61.5041 28.1753 61.5216 28.2363 61.561 28.2799C61.6004 28.3235 61.6528 28.3541 61.6966 28.3933C61.7403 28.4326 61.7753 28.4849 61.8278 28.5154C61.8759 28.5459 61.9459 28.5459 61.9984 28.5677C62.0509 28.5939 62.0903 28.655 62.1471 28.6724C62.204 28.6899 62.2696 28.6637 62.3309 28.6724C62.3877 28.6811 62.4446 28.6899 62.5058 28.6899C62.5671 28.6899 62.6239 28.6768 62.6808 28.668C62.7377 28.6593 62.7989 28.668 62.8558 28.6506C62.9126 28.6332 62.9651 28.607 63.0176 28.5808C63.0701 28.5547 63.1357 28.5503 63.1838 28.5154C63.232 28.4849 63.2582 28.4151 63.3019 28.3802C63.3457 28.341 63.4113 28.3235 63.4507 28.2799C63.49 28.2363 63.5163 28.1796 63.5469 28.1316C63.5775 28.0837 63.5906 28.0226 63.6169 27.9703C63.6431 27.918 63.6606 27.8656 63.6781 27.8089C63.6956 27.7522 63.7394 27.7043 63.7481 27.6432C63.7569 27.5865 63.7481 27.5255 63.7481 27.4644C63.7481 27.4034 63.7306 27.3467 63.7219 27.29C63.7131 27.2333 63.6956 27.1766 63.6781 27.1199C63.6606 27.0632 63.6344 27.0152 63.6081 26.9585C63.5819 26.9062 63.5819 26.8408 63.5513 26.7885C63.5207 26.7405 63.4638 26.7056 63.4244 26.662C63.3851 26.6184 63.3588 26.5617 63.3151 26.5225C63.2713 26.4832 63.2232 26.4483 63.1707 26.4178C63.1226 26.3873 63.0745 26.3437 63.022 26.3175C62.9695 26.2913 62.9039 26.2913 62.847 26.2782C62.7902 26.2608 62.7333 26.2608 62.6721 26.2521C62.6152 26.2434 62.5583 26.2041 62.4971 26.2041C62.4358 26.2041 62.3833 26.2521 62.3221 26.2608C62.2652 26.2695 62.204 26.2608 62.1471 26.2782C62.0903 26.2957 62.0465 26.3349 61.9897 26.3611C61.9372 26.3873 61.8672 26.3829 61.8191 26.4134C61.7709 26.444 61.7403 26.505 61.6966 26.5443C61.6528 26.5835 61.6047 26.614 61.5654 26.662C61.526 26.7056 61.4691 26.7361 61.4341 26.7841C61.4035 26.8321 61.386 26.8931 61.3598 26.9455C61.3335 26.9978 61.3335 27.0589 61.316 27.1155C61.2985 27.1722 61.2723 27.2246 61.2635 27.2856C61.2548 27.3423 61.2329 27.4034 61.2329 27.4601C61.2329 27.5168 61.2504 27.5778 61.2592 27.6389C61.2679 27.6956 61.2898 27.7522 61.3073 27.8089L61.316 27.8177Z" fill="white"/>
<path d="M61.8799 27.853C61.8318 27.8312 61.7837 27.8007 61.7531 27.7614C61.7312 27.7353 61.7312 27.696 61.7443 27.6611C61.7706 27.5739 61.7356 27.4736 61.7443 27.3777C61.7837 27.3079 61.8493 27.2338 61.8274 27.1509C61.823 27.1335 61.8274 27.1029 61.8405 27.0811C61.8712 27.0288 61.8624 26.9547 61.9193 26.9198C62.0811 26.8674 62.2167 26.7323 62.4048 26.7759C62.5142 26.7628 62.6017 26.8282 62.7067 26.8326C62.781 26.8151 62.886 26.8151 62.9604 26.8587C63.0041 26.8892 63.0741 26.9547 63.1266 27.0375C63.1528 27.0811 63.1791 27.1291 63.2097 27.1727C63.2228 27.1945 63.2228 27.2207 63.2228 27.2512C63.2228 27.3253 63.3147 27.3646 63.3365 27.4387C63.3497 27.5783 63.2622 27.6873 63.2753 27.8312C63.2141 27.9533 63.0522 28.0013 62.9735 28.1234C62.9166 28.167 62.8335 28.1539 62.7679 28.1801C62.7198 28.2063 62.6935 28.2193 62.6017 28.2281C62.5011 28.2368 62.4005 28.2281 62.3086 28.2019C62.2342 28.2848 62.1511 28.1539 62.0724 28.1452C62.0111 28.0798 61.9018 28.0187 61.9193 27.9272C61.928 27.8966 61.9105 27.8748 61.8843 27.8617L61.8799 27.853Z" fill="#282828"/>
<path d="M59.7116 27.9187C59.6898 27.9666 59.6766 28.019 59.6329 28.0495C59.6154 28.1018 59.5542 28.1367 59.5104 28.1716C59.4361 28.1891 59.3486 28.1236 59.2961 28.2109C59.1955 28.2501 59.0861 28.2719 58.9811 28.237C58.8805 28.1673 58.7712 28.3112 58.6793 28.2109H58.6487C58.5437 28.0888 58.3294 28.0844 58.2681 27.9405C58.2594 27.923 58.255 27.8838 58.2681 27.862C58.29 27.8315 58.2681 27.7879 58.2725 27.753C58.1456 27.6875 58.2419 27.5175 58.1369 27.4433C58.0625 27.2776 58.3818 27.2166 58.2375 27.0727C58.2156 27.0508 58.2069 27.0029 58.2375 26.9636C58.3031 26.8677 58.43 26.8284 58.5043 26.7281C58.5393 26.7194 58.5743 26.6627 58.6181 26.6496C58.7099 26.6496 58.7974 26.6409 58.8674 26.6845C58.9549 26.654 59.0642 26.6409 59.1648 26.654C59.2786 26.6453 59.248 26.7805 59.3267 26.8197C59.4273 26.8066 59.5017 26.8502 59.5892 26.8764C59.6373 26.9113 59.611 26.9767 59.6416 27.0203C59.7073 27.0465 59.7116 27.1337 59.786 27.1424C59.821 27.1904 59.786 27.2471 59.7641 27.2907C59.7423 27.3605 59.821 27.4215 59.8122 27.5C59.8866 27.6352 59.7423 27.6963 59.7335 27.814C59.7335 27.8402 59.7248 27.8794 59.716 27.9056L59.7116 27.9187Z" fill="#282828"/>
<path d="M59.7804 29.7584C59.7585 29.8674 59.706 29.9634 59.6929 30.0767C59.7235 30.2817 59.741 30.5303 59.9422 30.6524C60.0559 30.7876 60.2222 30.8879 60.384 30.9533C60.524 30.9184 60.5808 31.0972 60.7252 31.0231C60.8346 31.058 60.9264 31.0231 61.0227 30.9882C61.2632 30.9533 61.3726 30.7004 61.5607 30.5477C61.6744 30.4082 61.7882 30.2555 61.7838 30.0767C61.8231 29.8805 61.6657 29.7322 61.5432 29.5927C61.482 29.5229 61.3813 29.536 61.307 29.5055C61.2107 29.4619 61.1058 29.4531 61.0008 29.4182C60.9308 29.4357 60.8652 29.3703 60.7733 29.3921C60.6727 29.4313 60.5109 29.4313 60.4059 29.427C60.2834 29.4531 60.1697 29.4967 60.0647 29.5534C59.9466 29.5709 59.8591 29.6712 59.7804 29.754V29.7584Z" fill="#282828"/>
<path d="M57.9087 29.9177C57.9437 29.8567 57.9656 29.7869 57.983 29.7215C58.0005 29.6561 57.9962 29.5863 57.9962 29.5122C57.9962 29.438 57.9918 29.3726 57.9743 29.3072C57.9568 29.2374 57.9306 29.1764 57.8956 29.1153C57.8606 29.0543 57.8212 28.9976 57.7731 28.9496C57.725 28.9016 57.6681 28.8624 57.6069 28.8275C57.55 28.7926 57.4844 28.7708 57.4188 28.7533C57.3532 28.7359 57.2875 28.6967 57.2175 28.6967C57.1476 28.6967 57.0776 28.7141 57.012 28.7315C56.9463 28.749 56.8764 28.7752 56.8195 28.81C56.7583 28.8449 56.7145 28.9016 56.6664 28.954C56.6183 29.0019 56.5614 29.0455 56.5264 29.1066C56.4914 29.1676 56.4695 29.2374 56.4477 29.3028C56.4302 29.3682 56.4302 29.4424 56.4302 29.5122C56.4302 29.5819 56.4477 29.6517 56.4652 29.7171C56.4827 29.7869 56.4914 29.8567 56.5264 29.9177C56.5614 29.9788 56.6183 30.0224 56.6664 30.0704C56.7145 30.1183 56.7539 30.1837 56.8151 30.2186C56.872 30.2535 56.9463 30.2579 57.012 30.2753C57.0776 30.2928 57.1432 30.3233 57.2132 30.3233C57.2832 30.3233 57.3488 30.2971 57.4144 30.2797C57.48 30.2622 57.5456 30.2404 57.6025 30.2055C57.6637 30.1707 57.7075 30.1183 57.7556 30.0704C57.8037 30.0224 57.8649 29.9831 57.8999 29.9221L57.9087 29.9177Z" fill="#FFB4BE"/>
<path d="M64.9556 29.9177C64.9906 29.8567 65.0124 29.7869 65.0299 29.7215C65.0474 29.6561 65.043 29.5863 65.043 29.5122C65.043 29.438 65.0387 29.3726 65.0212 29.3072C65.0037 29.2374 64.9774 29.1764 64.9424 29.1153C64.9074 29.0543 64.8681 28.9976 64.82 28.9496C64.7718 28.9016 64.715 28.8624 64.6537 28.8275C64.5969 28.7926 64.5313 28.7708 64.4656 28.7533C64.4 28.7359 64.3344 28.6967 64.2644 28.6967C64.1944 28.6967 64.1244 28.7141 64.0588 28.7315C63.9932 28.749 63.9232 28.7752 63.8664 28.81C63.8051 28.8449 63.7614 28.9016 63.7133 28.954C63.6651 29.0019 63.6083 29.0455 63.5733 29.1066C63.5383 29.1676 63.5164 29.2374 63.4945 29.3028C63.4771 29.3682 63.4771 29.4424 63.4771 29.5122C63.4771 29.5819 63.4945 29.6517 63.512 29.7171C63.5295 29.7869 63.5383 29.8567 63.5733 29.9177C63.6083 29.9788 63.6651 30.0224 63.7133 30.0704C63.7614 30.1183 63.8008 30.1837 63.862 30.2186C63.9189 30.2535 63.9932 30.2579 64.0588 30.2753C64.1244 30.2928 64.1901 30.3233 64.26 30.3233C64.33 30.3233 64.3957 30.2971 64.4613 30.2797C64.5269 30.2622 64.5925 30.2404 64.6494 30.2055C64.7106 30.1707 64.7543 30.1183 64.8025 30.0704C64.8506 30.0224 64.9118 29.9831 64.9468 29.9221L64.9556 29.9177Z" fill="#FFB4BE"/>
<path d="M57.9772 23.9526C57.9247 23.9395 57.8766 23.9177 57.8241 23.9133C57.7629 23.9046 57.6973 23.8828 57.6317 23.8828C57.5661 23.8828 57.5048 23.9264 57.4436 23.9351C57.378 23.9438 57.3124 23.922 57.2511 23.9351C57.1899 23.9482 57.133 23.9787 57.0718 24.0005C57.0105 24.0223 56.9624 24.0659 56.9055 24.0921C56.8487 24.1183 56.7962 24.1488 56.7393 24.1837C56.6868 24.2186 56.6343 24.2535 56.5862 24.2927C56.5381 24.332 56.4856 24.3669 56.4375 24.4105C56.3938 24.4541 56.3238 24.4802 56.2844 24.5282C56.245 24.5762 56.2319 24.646 56.1969 24.7026C56.1794 24.7288 56.1663 24.755 56.1532 24.7811C56.14 24.8029 56.1182 24.8117 56.0963 24.7811L55.9738 24.5326C55.9301 24.4628 55.9738 24.3058 55.9738 24.2099C55.9738 24.1139 55.9301 24.0659 55.8863 23.9395C55.8557 23.8348 55.8776 23.6865 55.8951 23.6168L55.9038 22.6399L55.8032 22.23C55.8032 22.23 55.7988 21.9291 55.8163 21.7808C55.8338 21.6325 55.8382 21.5104 55.8951 21.4145C55.9519 21.3185 55.9519 21.1877 56.0001 21.1354C56.0132 21.1223 56.0263 21.1048 56.0394 21.0874H56.0482L56.1663 21.1397L56.3106 21.2357L56.5075 21.3665C56.595 21.4363 56.5775 21.5061 56.6518 21.5409C56.7787 21.6064 56.9143 21.6587 56.9668 21.7415L57.098 21.964L57.3605 22.182C57.3605 22.182 57.5048 22.2387 57.5179 22.3477C57.5354 22.4567 57.6317 22.5832 57.6317 22.5832C57.6317 22.5832 57.6404 22.6399 57.7542 22.7097C57.8723 22.7751 58.0779 23.0542 58.0779 23.0542C58.1216 23.1414 58.1303 23.2156 58.3228 23.499C58.3272 23.5077 58.3359 23.5121 58.3403 23.5165C58.3491 23.5252 58.3534 23.5339 58.3622 23.547C58.3491 23.5557 58.3403 23.5688 58.3272 23.5775C58.2834 23.6211 58.2484 23.6778 58.2091 23.7258C58.1697 23.7738 58.1128 23.813 58.0779 23.8653C58.0691 23.8828 58.056 23.9002 58.0472 23.9177C58.0385 23.9395 58.0122 23.9569 57.9729 23.9482L57.9772 23.9526Z" fill="#F0DCBE"/>
<path d="M59.2498 23.0879L59.2236 23.0399C59.2061 23.005 59.158 22.9963 59.1055 22.9701C59.1055 22.9701 59.0092 22.9003 58.9655 22.8218C58.9218 22.7433 58.8255 22.691 58.8255 22.691L58.7468 22.6038C58.7468 22.6038 58.6899 22.5645 58.6462 22.5471C58.6024 22.5296 58.4756 22.4032 58.3837 22.2811C58.2962 22.159 57.9113 22.0063 57.9113 22.0063C57.9113 22.0063 57.8019 21.8799 57.7844 21.8711C57.7669 21.8624 57.6357 21.7229 57.5307 21.6793C57.4301 21.6313 57.2814 21.5572 57.2377 21.483C57.1939 21.4045 57.0802 21.3391 56.8965 21.2344C56.7127 21.1298 56.6734 21.1211 56.5334 21.0644C56.389 21.0077 56.3453 21.0862 56.2316 21.0164C56.1441 20.9641 56.0916 21.0338 56.0479 21.0905H56.0566L56.1747 21.1429L56.3191 21.2388L56.5159 21.3696C56.6034 21.4394 56.5859 21.5092 56.6603 21.5441C56.7871 21.6095 56.9227 21.6618 56.9752 21.7447L57.1064 21.9671L57.3689 22.1851C57.3689 22.1851 57.5132 22.2418 57.5264 22.3508C57.5439 22.4599 57.6401 22.5863 57.6401 22.5863C57.6401 22.5863 57.6488 22.643 57.7626 22.7128C57.8807 22.7782 58.0863 23.0573 58.0863 23.0573C58.13 23.1445 58.1388 23.2187 58.3312 23.5021C58.3356 23.5109 58.3444 23.5152 58.3487 23.5196C58.3575 23.5283 58.3618 23.537 58.3706 23.5501C58.4056 23.5152 58.4406 23.4847 58.4756 23.4542C58.5237 23.4149 58.5762 23.3757 58.6331 23.3451C58.6855 23.3103 58.738 23.271 58.7949 23.2448C58.8518 23.2187 58.9218 23.2187 58.983 23.1969C59.0442 23.1751 59.1055 23.162 59.1667 23.1533C59.2105 23.1489 59.2673 23.114 59.2542 23.0879H59.2498Z" fill="#AA6E46"/>
<path d="M65.6683 21.6459C65.6639 21.5412 65.6114 21.5282 65.5852 21.3145C65.5808 21.2665 65.5721 21.236 65.5633 21.2054C65.3752 21.2839 65.3665 21.2752 65.3315 21.3363C65.2921 21.3973 65.2309 21.4453 65.139 21.4889C65.0515 21.5325 65.034 21.5761 64.999 21.6241C64.9641 21.6721 64.8153 21.6852 64.776 21.7244C64.7366 21.7636 64.5397 21.8683 64.5135 21.9512C64.4873 22.0384 64.3954 22.1561 64.286 22.1997C64.1767 22.2434 64.0367 22.3306 64.0323 22.4309C64.0323 22.5312 63.8792 22.6097 63.8792 22.6097C63.8792 22.6097 63.7086 22.7231 63.6343 22.8059C63.5599 22.8888 63.4374 23.0327 63.4156 23.0894C63.3937 23.1417 63.3281 23.2769 63.2887 23.3031C63.2493 23.3292 63.2012 23.351 63.175 23.4339L63.1181 23.5516L63.105 23.5865C63.105 23.5865 63.1181 23.6083 63.1269 23.6171C63.1662 23.665 63.2143 23.7086 63.2493 23.7653C63.2843 23.8177 63.3149 23.8744 63.3456 23.931C63.3718 23.9877 63.3981 24.0488 63.4199 24.1055C63.4287 24.136 63.4418 24.1622 63.4549 24.1927C63.4812 24.2886 63.5555 24.293 63.5862 24.2581C63.6168 24.2232 63.643 24.184 63.6824 24.1665C63.7393 24.1404 63.8049 24.1229 63.8661 24.1055C63.9273 24.0837 63.993 24.0968 64.0586 24.0837C64.1198 24.0706 64.1767 24.0314 64.2423 24.027C64.3035 24.0183 64.3691 24.0139 64.4348 24.0139C64.5004 24.0139 64.5616 24.0575 64.6229 24.0619C64.6885 24.0706 64.7585 24.0357 64.8197 24.0488C64.8809 24.0619 64.9422 24.0924 64.999 24.1142C65.0603 24.136 65.1215 24.1578 65.1784 24.184C65.2353 24.2102 65.2746 24.2668 65.3315 24.3017C65.3534 24.3148 65.3752 24.3235 65.3971 24.3323C65.4365 24.3497 65.4671 24.3541 65.4758 24.3192L65.5152 24.0662C65.5371 23.9485 65.5152 23.8656 65.524 23.7435V23.556C65.524 23.556 65.6202 23.0501 65.6639 22.9629C65.7077 22.8757 65.6421 22.7972 65.6377 22.4876C65.6377 22.3044 65.6946 21.8247 65.6946 21.659L65.6683 21.6459Z" fill="#F0DCBE"/>
<path d="M63.1741 23.4246C63.2003 23.3417 63.2528 23.3199 63.2878 23.2938C63.3228 23.2676 63.3928 23.1368 63.4147 23.0801C63.4365 23.0278 63.559 22.8795 63.6334 22.7966C63.7077 22.7138 63.8783 22.6004 63.8783 22.6004C63.8783 22.6004 64.0271 22.5262 64.0314 22.4216C64.0314 22.3213 64.1758 22.2341 64.2851 22.1905C64.3945 22.1468 64.4864 22.0247 64.5126 21.9419C64.5389 21.8547 64.7401 21.75 64.7751 21.7151C64.8144 21.6759 64.9632 21.6628 64.9982 21.6148C65.0332 21.5668 65.0506 21.5276 65.1381 21.4796C65.2256 21.436 65.2912 21.388 65.3306 21.327C65.37 21.2659 65.3743 21.2746 65.5624 21.1962C65.5274 21.0871 65.4531 21.074 65.3437 21.0261C65.2037 20.965 65.1163 20.9955 65.1163 20.9955L64.8363 21.1351L64.5826 21.1918C64.482 21.2267 64.4164 21.2703 64.3858 21.3052C64.3551 21.3401 64.1977 21.4753 64.1977 21.4753C64.1977 21.4753 64.0446 21.6279 63.8958 21.6628C63.7471 21.6933 63.4015 21.9811 63.4015 21.9811C63.3534 22.0204 63.2747 22.0727 63.2397 22.1338C63.2003 22.1948 63.1347 22.3038 62.9729 22.3562C62.8723 22.3911 62.4654 22.7181 62.1811 22.958C62.1636 22.9711 62.1549 23.0016 62.1811 23.0103C62.2424 23.0234 62.3123 23.0103 62.3736 23.0321C62.4348 23.0539 62.4873 23.0932 62.5442 23.1237C62.601 23.1499 62.6579 23.1804 62.7104 23.2153C62.7629 23.2502 62.8154 23.2894 62.8635 23.3287C62.9116 23.3679 62.9685 23.4028 63.0166 23.4464C63.0516 23.4813 63.0735 23.5336 63.1041 23.5772L63.1172 23.5424L63.1741 23.4246V23.4246Z" fill="#AA6E46"/>
<path d="M89.9789 40.6456C89.957 40.5409 89.9351 40.4363 89.9045 40.3403C89.8695 40.2356 89.8301 40.1353 89.7908 40.0481C89.7514 39.9609 89.7077 39.8606 89.6508 39.7647C89.5983 39.6774 89.5414 39.5859 89.4758 39.503C89.4015 39.4027 89.3183 39.3198 89.2396 39.2413C89.1521 39.1541 89.0603 39.08 88.964 39.0189C88.859 38.9535 88.7541 38.9012 88.6491 38.8619C88.5441 38.8227 88.4304 38.7791 88.3079 38.7616C88.1985 38.7442 88.076 38.7442 87.9536 38.7529C87.8398 38.7573 87.7261 38.7704 87.6036 38.8009C87.4986 38.8227 87.3937 38.8532 87.2974 38.8838C87.1924 38.9186 87.0875 38.9492 87 38.9884C86.9081 39.0277 86.8206 39.0887 86.7244 39.1454C86.6369 39.1977 86.545 39.2544 86.4619 39.3198C86.3613 39.394 86.2651 39.4681 86.1864 39.551C86.0989 39.6426 86.0332 39.7385 85.972 39.8344C85.9064 39.9391 85.8495 40.0438 85.8102 40.1528C85.7664 40.2618 85.7402 40.3752 85.7183 40.4973C85.7008 40.6107 85.6921 40.7284 85.6964 40.8505C85.6964 40.9639 85.7052 41.0817 85.7314 41.2038C85.7533 41.3084 85.7795 41.4131 85.8102 41.5091C85.8452 41.6137 85.8801 41.714 85.9239 41.8056C85.9633 41.8928 86.0158 41.9888 86.0726 42.0847C86.1251 42.1719 86.182 42.2591 86.2476 42.3464C86.322 42.4467 86.3963 42.5382 86.4794 42.6167C86.5669 42.704 86.6631 42.7737 86.7594 42.8348C86.8644 42.9002 86.9737 42.9438 87.0787 42.9874C87.1837 43.0267 87.2974 43.0703 87.4199 43.0877C87.5293 43.1052 87.6517 43.1095 87.7742 43.1008C87.8879 43.0964 88.0017 43.079 88.1285 43.0528C88.2335 43.031 88.3385 43.0049 88.4347 42.9743C88.5397 42.9394 88.636 42.8958 88.7278 42.8566C88.8197 42.8173 88.9115 42.765 89.0078 42.7083C89.0953 42.656 89.1871 42.6037 89.2746 42.5339C89.3752 42.4597 89.4671 42.3812 89.5458 42.2984C89.6333 42.2068 89.7077 42.1152 89.7689 42.0193C89.8345 41.9146 89.887 41.8056 89.9264 41.7009C89.9701 41.5919 89.9964 41.4785 90.0139 41.3564C90.0313 41.243 90.0488 41.1253 90.0445 41.0032C90.0445 40.8898 90.0139 40.7764 89.992 40.6499L89.9789 40.6456Z" fill="#FF6478"/>
<path d="M59.9632 46.6498C60.0244 46.5277 60.0988 46.4143 60.1381 46.2878C60.1819 46.1613 60.1906 46.0218 60.2169 45.8953C60.2431 45.7645 60.2606 45.6337 60.2737 45.4985C60.2781 45.2891 60.3087 45.2891 60.3131 45.0798C60.3131 44.8705 60.2825 44.8705 60.2825 44.6612C60.2825 44.4518 60.3087 44.4518 60.3131 44.2469C60.3131 44.0375 60.3306 44.0375 60.335 43.8282C60.335 43.6189 60.3394 43.6189 60.3437 43.4096C60.3437 43.2002 60.3437 43.2002 60.3437 42.9909C60.3437 42.7816 60.3219 42.7816 60.3262 42.5723C60.3262 42.3629 60.3262 42.3629 60.3262 42.1536C60.3262 41.9443 60.3656 41.9443 60.37 41.735C60.37 41.5256 60.335 41.5256 60.3394 41.3163C60.3394 41.107 60.3612 41.107 60.3656 40.8976C60.3656 40.6883 60.37 40.6883 60.3744 40.479C60.3744 40.2697 60.3744 40.2697 60.3744 40.0603C60.3744 39.851 60.3962 39.851 60.4006 39.6417C60.4006 39.4324 60.4006 39.4324 60.405 39.223C60.405 39.0137 60.3875 39.0137 60.3918 38.8044C60.3918 38.5951 60.4093 38.5951 60.4093 38.3857C60.4093 38.1764 60.4093 38.1764 60.4137 37.9671C60.4137 37.7578 60.405 37.7578 60.4093 37.5484C60.4093 37.3391 60.405 37.3391 60.4093 37.1298C60.4093 36.9204 60.4268 36.9204 60.4268 36.7111C60.4268 36.5018 60.4487 36.5018 60.4531 36.2925C60.4531 36.0831 60.4312 36.0831 60.4312 35.8738C60.4312 35.7343 60.405 35.5947 60.37 35.4552C60.335 35.32 60.3219 35.1717 60.2519 35.0409C60.1863 34.9144 60.1031 34.7923 60.0157 34.6789C59.9282 34.5655 59.8232 34.4609 59.7182 34.3649C59.6132 34.2646 59.5082 34.16 59.3858 34.0858C59.2633 34.0073 59.1189 33.9681 58.9877 33.9201C58.8477 33.8678 58.7121 33.8329 58.5721 33.8242C58.4365 33.8154 58.2966 33.8242 58.1522 33.8111C58.0166 33.8024 57.881 33.7631 57.7367 33.7544C57.6011 33.7457 57.4611 33.7631 57.3167 33.7544C57.1811 33.7457 57.0411 33.7151 56.9012 33.7021C56.7656 33.689 56.6256 33.6802 56.4856 33.6628C56.35 33.6497 56.2144 33.6323 56.0701 33.6192C55.9344 33.6061 55.7945 33.5974 55.6545 33.5799C55.5189 33.5625 55.3789 33.5669 55.2346 33.5494C55.099 33.532 54.9634 33.4884 54.8234 33.4666C54.6878 33.4491 54.5522 33.4055 54.4122 33.3837C54.2766 33.3619 54.1366 33.3445 53.9966 33.3226C53.861 33.3008 53.7254 33.2747 53.5811 33.2485C53.4499 33.2267 53.3143 33.2616 53.183 33.2703C53.0518 33.2834 52.9162 33.2834 52.7893 33.3226C52.6625 33.3619 52.5531 33.436 52.435 33.4971C52.3213 33.5581 52.1857 33.5974 52.0807 33.6759C51.9757 33.7544 51.9014 33.8721 51.8095 33.9637C51.7176 34.0597 51.5995 34.1338 51.5208 34.2385C51.4421 34.3475 51.3721 34.4609 51.3108 34.5786C51.2496 34.6964 51.2146 34.8272 51.1752 34.9493C51.1271 35.1499 51.1184 35.1455 51.0746 35.3461C51.0309 35.5467 51.0265 35.5467 50.9828 35.743C50.939 35.9436 50.9653 35.9479 50.9215 36.1486C50.8778 36.3492 50.8515 36.3448 50.8122 36.5454C50.7684 36.746 50.764 36.746 50.7203 36.9466C50.6766 37.1472 50.6897 37.1472 50.6459 37.3478C50.6022 37.5484 50.6109 37.5484 50.5672 37.749C50.5235 37.9496 50.5366 37.9496 50.4928 38.1502C50.4637 38.284 50.4345 38.4177 50.4054 38.5514C50.3616 38.7521 50.3354 38.7477 50.2916 38.9439C50.2479 39.1445 50.2785 39.1489 50.2348 39.3495C50.191 39.5501 50.1779 39.5457 50.1341 39.7464C50.0904 39.947 50.1035 39.9513 50.0598 40.1519C50.016 40.3525 50.0029 40.3482 49.9592 40.5488C49.9154 40.7494 49.9023 40.745 49.8586 40.9456C49.8148 41.1462 49.8367 41.1506 49.793 41.3512C49.7492 41.5518 49.7361 41.5474 49.6923 41.748C49.6486 41.9486 49.6399 41.9486 49.6005 42.1492C49.5567 42.3498 49.5655 42.3499 49.5261 42.5505C49.4824 42.7511 49.4999 42.7554 49.4561 42.956C49.4124 43.1566 49.3861 43.1523 49.3468 43.3529C49.303 43.5535 49.338 43.5622 49.2943 43.7628C49.2593 43.8936 49.2155 44.0245 49.1937 44.1597C49.1718 44.2948 49.1718 44.43 49.1674 44.5696C49.1587 44.7048 49.1281 44.8443 49.1368 44.9795C49.1412 45.1147 49.1587 45.2543 49.1806 45.3894C49.1981 45.5246 49.2505 45.6555 49.2855 45.7863C49.3205 45.9215 49.3643 46.048 49.4124 46.1744C49.4605 46.3052 49.513 46.4274 49.5786 46.5495C49.6442 46.6716 49.7098 46.7893 49.7886 46.8983C49.8673 47.0117 49.9329 47.1338 50.0292 47.2341C50.1254 47.3301 50.2391 47.4086 50.3529 47.4914C50.4622 47.5743 50.5672 47.6615 50.6941 47.7269C50.8122 47.788 50.9478 47.8229 51.0834 47.8665C51.2102 47.9101 51.3414 47.9581 51.4814 47.9842C51.6214 48.0017 51.757 47.9842 51.8839 47.9973C52.0195 48.0147 52.1551 48.0322 52.2819 48.0453C52.4175 48.0627 52.5444 48.1194 52.6756 48.1369C52.8068 48.1543 52.9424 48.1456 53.0737 48.163C53.2049 48.1805 53.3361 48.1935 53.4717 48.211C53.603 48.2241 53.7342 48.2241 53.8698 48.2372C53.9966 48.2502 54.1279 48.2808 54.2635 48.2939C54.3903 48.3069 54.5216 48.3157 54.6615 48.3331C54.7884 48.3462 54.9196 48.368 55.0596 48.3811C55.1864 48.3942 55.3177 48.416 55.4577 48.429C55.5845 48.4421 55.7201 48.4421 55.8557 48.4552C55.9826 48.4683 56.1182 48.477 56.2538 48.4901C56.3938 48.5032 56.525 48.525 56.6562 48.525C56.7962 48.525 56.9274 48.4814 57.0586 48.4683C57.1986 48.4596 57.3298 48.4421 57.4567 48.4203C57.5923 48.3985 57.7323 48.4072 57.8591 48.3723C57.9904 48.3375 58.1216 48.2938 58.2441 48.2459C58.3709 48.1935 58.4847 48.1194 58.6028 48.054C58.7209 47.9886 58.8477 47.9319 58.9527 47.8534C59.0621 47.7749 59.167 47.6833 59.2633 47.5961C59.3639 47.5045 59.447 47.3955 59.5301 47.2952C59.6176 47.1905 59.7051 47.0902 59.7794 46.9768C59.8538 46.8635 59.9019 46.737 59.9588 46.6149L59.9632 46.6498ZM56.4506 39.4411C56.4287 39.6373 56.4419 39.6373 56.42 39.8336C56.3981 40.0298 56.42 40.0298 56.3981 40.2261C56.3763 40.4223 56.3544 40.4179 56.3325 40.6142C56.3106 40.8104 56.3456 40.8148 56.3281 41.0067C56.3063 41.2029 56.2888 41.1986 56.2669 41.3948C56.245 41.591 56.2581 41.591 56.2406 41.7873C56.2188 41.9835 56.1882 41.9792 56.1707 42.1754C56.1488 42.3717 56.1532 42.3717 56.1357 42.5679C56.1138 42.7641 56.14 42.7685 56.1182 42.9647C56.0963 43.1087 56.0701 43.2613 56.0219 43.4052C55.9738 43.5448 55.8995 43.6843 55.812 43.8064C55.7245 43.9242 55.6108 44.0332 55.4751 44.1117C55.357 44.1858 55.2083 44.212 55.0465 44.2381C54.9109 44.26 54.7665 44.2861 54.6003 44.2687C54.4428 44.2512 54.316 44.1858 54.1935 44.1117C54.0666 44.0375 53.9485 43.9547 53.861 43.8326C53.7779 43.7192 53.7254 43.5796 53.6773 43.4357C53.6292 43.3005 53.5636 43.161 53.5505 43.0127C53.5373 42.8688 53.5505 42.7162 53.5723 42.5723C53.5986 42.3586 53.6161 42.3586 53.6467 42.1449C53.6773 41.9312 53.6817 41.9312 53.7123 41.7175C53.7429 41.5038 53.7167 41.4995 53.7473 41.2858C53.7779 41.0721 53.7998 41.0764 53.8304 40.8628C53.861 40.6491 53.8654 40.6491 53.8917 40.4354C53.9223 40.2217 53.9092 40.2217 53.9398 40.008C53.9704 39.7943 53.9616 39.7943 53.9879 39.5763C54.0185 39.3626 54.0054 39.3582 54.036 39.1445C54.0535 39.0137 54.0929 38.8829 54.1497 38.7651C54.2066 38.6474 54.3072 38.5514 54.3947 38.4555C54.4822 38.3596 54.5697 38.2505 54.6834 38.1851C54.7971 38.1154 54.9284 38.0805 55.0552 38.0499C55.1821 38.0194 55.3133 37.9976 55.4489 38.015C55.5801 38.0325 55.6982 38.0848 55.812 38.1459C55.9257 38.2069 56.0176 38.2942 56.105 38.3857C56.1925 38.4773 56.2844 38.5733 56.3413 38.6866C56.3981 38.8 56.4287 38.9265 56.4506 39.053C56.4725 39.1794 56.4681 39.3059 56.4506 39.4324V39.4411Z" fill="#FF6478"/>
<path d="M84.7382 42.0275C84.7163 41.8966 84.6988 41.7658 84.6638 41.635C84.6288 41.5085 84.5457 41.3951 84.4976 41.273C84.4495 41.1509 84.4188 41.0201 84.362 40.9023C84.2745 40.7192 84.2876 40.7148 84.2001 40.5316C84.117 40.3485 84.1083 40.3528 84.0208 40.1697C83.9377 39.9865 83.942 39.9822 83.8589 39.799C83.7758 39.6158 83.7539 39.6246 83.6664 39.4414C83.5833 39.2582 83.579 39.2582 83.4915 39.0751C83.4084 38.8919 83.4434 38.8745 83.3559 38.6913C83.2728 38.5082 83.2465 38.5169 83.1634 38.3337C83.0803 38.1506 83.0934 38.1462 83.0059 37.963C82.9228 37.7799 82.9316 37.7755 82.8485 37.5924C82.7653 37.4092 82.761 37.4092 82.6779 37.226C82.5948 37.0429 82.5598 37.056 82.4766 36.8728C82.3935 36.6896 82.3979 36.6853 82.3148 36.5021C82.2317 36.319 82.2492 36.3102 82.1661 36.1271C82.083 35.9439 82.0567 35.957 81.9692 35.7695C81.8861 35.5863 81.9124 35.5732 81.8292 35.3901C81.7461 35.2069 81.7286 35.2156 81.6455 35.0325C81.5624 34.8493 81.5843 34.8406 81.4968 34.6531C81.4137 34.4699 81.4093 34.4699 81.3262 34.2867C81.2431 34.1036 81.2431 34.1036 81.16 33.9161C81.0769 33.7329 81.0463 33.746 80.9631 33.5628C80.88 33.3797 80.8932 33.3709 80.8057 33.1878C80.7226 33.0046 80.7182 33.0046 80.6351 32.8215C80.552 32.6383 80.5695 32.6296 80.482 32.4421C80.3989 32.2589 80.377 32.2676 80.2851 32.0845C80.2195 31.9667 80.1583 31.8402 80.0664 31.7399C79.9789 31.6396 79.8652 31.5524 79.7558 31.4696C79.6465 31.3911 79.5371 31.3082 79.4103 31.2471C79.2922 31.1905 79.1566 31.1425 79.0253 31.1032C78.8985 31.0683 78.7585 31.0727 78.6185 31.0553C78.4873 31.0378 78.3517 31.0291 78.2117 31.0335C78.0805 31.0335 77.9405 31.0335 77.8049 31.0596C77.6737 31.0814 77.5468 31.1338 77.4112 31.173C77.2756 31.221 77.14 31.2341 77.0175 31.2777C76.8819 31.3256 76.7595 31.3823 76.637 31.4259C76.5057 31.4739 76.3745 31.5044 76.2477 31.5481C76.1164 31.5917 76.0027 31.6702 75.8758 31.7094C75.749 31.753 75.6134 31.7705 75.4822 31.8097C75.3553 31.849 75.2285 31.8838 75.0928 31.9231C74.9704 31.9623 74.8435 32.006 74.7079 32.0496C74.5854 32.0888 74.4542 32.1193 74.3186 32.163C74.1961 32.1978 74.0693 32.2458 73.9293 32.2894C73.8068 32.3243 73.6712 32.3461 73.5356 32.3897C73.4131 32.4246 73.2863 32.4813 73.1507 32.5205C73.0194 32.5685 72.897 32.6296 72.7876 32.7037C72.6739 32.7822 72.5733 32.8738 72.4858 32.9741C72.3983 33.0744 72.337 33.1965 72.2758 33.3186C72.2146 33.4364 72.149 33.5585 72.1096 33.6893C72.0746 33.8201 72.0615 33.9553 72.0483 34.0905C72.0352 34.2257 72.0221 34.3609 72.0352 34.4961C72.0483 34.6313 72.0615 34.7664 72.0965 34.9016C72.1446 35.1022 72.149 35.0979 72.1971 35.2985C72.2452 35.4991 72.2758 35.4904 72.3239 35.691C72.372 35.8916 72.3414 35.8959 72.3939 36.0965C72.442 36.2971 72.4508 36.2928 72.4989 36.4934C72.547 36.694 72.5339 36.694 72.5864 36.8946C72.6345 37.0952 72.6389 37.0952 72.687 37.2914C72.7351 37.4921 72.7614 37.4833 72.8138 37.6839C72.862 37.8845 72.8663 37.8802 72.9188 38.0808C72.9669 38.2814 72.9538 38.2857 73.0019 38.482C73.0501 38.6826 73.0413 38.6826 73.0894 38.8832C73.1375 39.0838 73.1332 39.0838 73.1813 39.2844C73.2294 39.485 73.225 39.485 73.2731 39.6856C73.3213 39.8862 73.3344 39.8819 73.3869 40.0825C73.435 40.2831 73.4394 40.2831 73.4875 40.4837C73.5356 40.6843 73.5487 40.6799 73.5968 40.8805C73.645 41.0811 73.6143 41.0899 73.6625 41.2861C73.7106 41.4867 73.7368 41.478 73.7849 41.6786C73.8331 41.8792 73.8156 41.8835 73.8637 42.0842C73.9118 42.2848 73.9337 42.2804 73.9818 42.481C74.0299 42.6816 74.0168 42.686 74.0649 42.8866C74.113 43.0872 74.1349 43.0828 74.183 43.2834C74.2311 43.484 74.2049 43.4927 74.253 43.6933C74.3011 43.894 74.3405 43.8852 74.3886 44.0858C74.4367 44.2864 74.4105 44.2952 74.4586 44.4958C74.4936 44.6266 74.5198 44.7618 74.5679 44.8839C74.6161 45.0104 74.6904 45.1237 74.756 45.2415C74.8216 45.3592 74.8873 45.477 74.966 45.586C75.0447 45.695 75.1541 45.7779 75.2459 45.8738C75.3378 45.9698 75.4165 46.0875 75.5215 46.1704C75.6265 46.2532 75.7621 46.2925 75.8802 46.3623C75.994 46.4277 76.1033 46.5105 76.2302 46.5585C76.3526 46.6065 76.4839 46.6326 76.6195 46.6675C76.7463 46.6981 76.8819 46.7111 77.0175 46.7242C77.1488 46.7373 77.28 46.7722 77.42 46.7678C77.5512 46.7678 77.6868 46.7504 77.8224 46.7329C77.9536 46.7155 78.0849 46.685 78.2205 46.6501C78.3561 46.6108 78.4829 46.5629 78.6098 46.528C78.741 46.4887 78.8766 46.4669 79.0035 46.4277C79.1347 46.3884 79.2615 46.3448 79.3884 46.3099C79.5196 46.2707 79.6377 46.2096 79.769 46.1704C79.8958 46.1311 80.0314 46.1137 80.1626 46.0744C80.2895 46.0352 80.4164 45.9916 80.5476 45.948C80.6701 45.9087 80.7969 45.8564 80.9281 45.8128C81.0506 45.7735 81.1862 45.7474 81.3175 45.6994C81.4399 45.6558 81.5668 45.6122 81.698 45.5642C81.8205 45.5206 81.9517 45.4813 82.083 45.4334C82.2054 45.3898 82.3323 45.3418 82.4635 45.2938C82.586 45.2458 82.7085 45.1892 82.8397 45.1412C82.9666 45.0845 83.0759 45.0104 83.1897 44.9493C83.3121 44.8839 83.4302 44.8272 83.5352 44.7574C83.649 44.6789 83.7627 44.6092 83.8589 44.5263C83.9639 44.4391 84.0383 44.3257 84.1214 44.2297C84.2132 44.1294 84.292 44.0248 84.362 43.9158C84.4363 43.8024 84.5063 43.6933 84.5588 43.5756C84.6157 43.4535 84.6507 43.327 84.6857 43.2006C84.7207 43.0741 84.7775 42.9476 84.7906 42.8168C84.8038 42.686 84.7906 42.5508 84.7906 42.4199C84.7906 42.2891 84.7775 42.1539 84.7556 42.0231L84.7382 42.0275ZM80.0183 40.9677C79.9964 41.1073 79.9439 41.2425 79.8739 41.3602C79.8083 41.4736 79.699 41.5608 79.5852 41.6481C79.4846 41.7222 79.3753 41.8007 79.2353 41.853C79.1041 41.8923 78.9772 41.9228 78.8547 41.9272C78.7191 41.9272 78.601 41.8792 78.4829 41.8399C78.3648 41.7963 78.2555 41.7396 78.1549 41.6568C78.0586 41.5826 77.9711 41.4911 77.888 41.3864C77.8137 41.2905 77.7349 41.1902 77.6737 41.0724C77.6168 40.9634 77.5818 40.8413 77.5293 40.7192C77.4593 40.5142 77.4593 40.5142 77.3937 40.3092C77.3281 40.1043 77.2975 40.113 77.2319 39.908C77.1663 39.7031 77.1925 39.6943 77.1269 39.4894C77.0613 39.2844 77.0525 39.2844 76.9869 39.0794C76.9213 38.8745 76.9344 38.8701 76.8688 38.6652C76.8032 38.4602 76.7988 38.4602 76.7332 38.2552C76.6676 38.0503 76.6413 38.059 76.5757 37.8497C76.5101 37.6403 76.5057 37.6447 76.4358 37.4397C76.392 37.3176 76.3789 37.1824 76.3658 37.0516C76.3526 36.9208 76.3658 36.7899 76.3876 36.6635C76.4095 36.5326 76.4533 36.4105 76.5145 36.2971C76.5757 36.1838 76.6588 36.0922 76.7638 36.005C76.8601 35.9265 76.965 35.8567 77.1006 35.8174C77.2406 35.7738 77.3719 35.752 77.4987 35.7477C77.6431 35.7477 77.7787 35.752 77.9011 35.7956C78.0324 35.8392 78.1286 35.9352 78.2336 36.018C78.3386 36.1009 78.4436 36.1794 78.5223 36.2928C78.5967 36.4018 78.6448 36.5283 78.6973 36.6547C78.7673 36.851 78.7847 36.8423 78.8547 37.0385C78.9204 37.2348 78.9072 37.2391 78.9772 37.4354C79.0428 37.6316 79.0647 37.6229 79.1303 37.8191C79.1959 38.0154 79.1697 38.0241 79.2353 38.2203C79.3009 38.4166 79.3403 38.4035 79.4059 38.5997C79.4715 38.796 79.4453 38.8047 79.5153 39.0009C79.5852 39.1972 79.5677 39.2016 79.6334 39.3978C79.699 39.594 79.7121 39.5897 79.7865 39.7859C79.8389 39.9167 79.8783 40.0476 79.9133 40.174C79.9527 40.3136 80.0052 40.4401 80.0183 40.5665C80.0314 40.7104 80.0402 40.8456 80.0183 40.9721V40.9677Z" fill="#FF6478"/>
<path d="M49.325 40.3015C49.3687 40.1052 49.3775 40.1052 49.4212 39.909C49.4649 39.7127 49.4606 39.7084 49.5043 39.5121C49.5481 39.3159 49.5349 39.3115 49.5787 39.1153C49.6224 38.9147 49.618 38.9147 49.6618 38.7184C49.7055 38.5178 49.7187 38.5222 49.7624 38.3216C49.8061 38.121 49.7886 38.1166 49.8324 37.9204C49.8936 37.6892 49.8936 37.5061 49.6093 37.5846C49.4693 37.6282 49.3425 37.6674 49.2244 37.6936C49.08 37.7241 48.9488 37.7328 48.8263 37.7372C48.6776 37.7416 48.5463 37.7372 48.4282 37.711C48.2926 37.6805 48.1702 37.6238 48.0608 37.5584C47.9471 37.4886 47.8552 37.3971 47.7546 37.3055C47.6627 37.2183 47.5665 37.1223 47.4703 37.0264C47.3784 36.9348 47.2778 36.8519 47.1728 36.7603C47.0766 36.6775 46.9804 36.5903 46.8622 36.5118C46.7485 36.4333 46.6173 36.394 46.4861 36.3679C46.3592 36.3373 46.2236 36.3243 46.0836 36.333C45.9524 36.3417 45.8168 36.3591 45.6812 36.394C45.55 36.4289 45.4231 36.4682 45.2963 36.5205C45.1694 36.5728 45.0469 36.6339 44.9288 36.6993C44.8063 36.7647 44.697 36.8476 44.592 36.9217C44.4739 37.0046 44.3689 37.0918 44.277 37.1746C44.1546 37.288 44.0583 37.4145 44.0146 37.5628C43.9708 37.7023 43.9752 37.8593 44.0146 38.0294C44.0715 38.2169 44.0846 38.2126 44.1458 38.4001C44.2071 38.5876 44.1983 38.592 44.2552 38.7795C44.3164 38.967 44.312 38.967 44.3733 39.1545C44.4345 39.342 44.4345 39.342 44.4958 39.5296C44.557 39.7171 44.5614 39.7171 44.6182 39.9046C44.662 40.0965 44.7538 40.1924 44.9507 40.0224C45.0469 39.9439 45.1607 39.8523 45.2875 39.7738C45.4056 39.704 45.5325 39.6429 45.6681 39.5993C45.7993 39.5601 45.9393 39.5426 46.0836 39.5557C46.2149 39.5645 46.3461 39.6081 46.4861 39.6735C46.6129 39.7345 46.7223 39.7912 46.8185 39.861C46.9322 39.9395 47.0285 40.0224 47.1116 40.1052C47.2078 40.1968 47.2953 40.2884 47.3784 40.38C47.4659 40.4759 47.5534 40.5631 47.6452 40.6503C47.7371 40.7332 47.829 40.8204 47.9427 40.8858C48.0433 40.9469 48.157 41.0036 48.2883 41.0428C48.3976 41.0777 48.5245 41.0908 48.6645 41.1082C48.8263 41.1213 48.9444 41.0908 49.0319 41.0254C49.1413 40.9382 49.1894 40.8073 49.2244 40.6983C49.2725 40.5021 49.2681 40.5021 49.3118 40.3015H49.325Z" fill="#FF6478"/>
<path d="M86.2607 38.164C86.3701 38.1073 86.4838 38.0463 86.5932 37.9896C86.7113 37.9285 86.8163 37.8587 86.9213 37.802C87.0525 37.7323 87.1706 37.6843 87.2581 37.6363C87.4112 37.5535 87.503 37.3921 87.5468 37.2264C87.5949 37.0432 87.5687 36.8514 87.503 36.7336C87.436 36.6115 87.3704 36.4894 87.3062 36.3673C87.21 36.1841 87.21 36.1841 87.1094 35.9966C87.0131 35.8134 87.0131 35.8091 86.9169 35.6259C86.8206 35.4428 86.8294 35.4384 86.7288 35.2509C86.6326 35.0677 86.6194 35.0721 86.5232 34.8889C86.427 34.7058 86.4313 34.7014 86.3351 34.5139C86.2389 34.3307 86.2301 34.3351 86.1295 34.1476C86.0333 33.9644 86.0333 33.9644 85.9327 33.7769C85.8685 33.6548 85.8029 33.5312 85.7358 33.4062C85.6396 33.223 85.6396 33.2187 85.5434 33.0355C85.4471 32.8523 85.4515 32.848 85.3553 32.6648C85.259 32.4817 85.259 32.4817 85.1628 32.2941C85.0666 32.111 85.0709 32.1066 84.9703 31.9235C84.8741 31.7403 84.8522 31.749 84.756 31.5659C84.6597 31.3827 84.6554 31.3827 84.5548 31.1995C84.4585 31.0164 84.4629 31.012 84.3667 30.8245C84.2704 30.6413 84.2748 30.637 84.1786 30.4538C84.078 30.2707 84.0736 30.2707 83.973 30.0875C83.8724 29.9043 83.8855 29.8956 83.7849 29.7124C83.6843 29.5293 83.6799 29.5293 83.5793 29.3461C83.5268 29.2458 83.4393 29.1542 83.33 29.0801C83.2337 29.0103 83.12 28.958 82.9975 28.9275C82.8838 28.9013 82.7569 28.8926 82.6301 28.9188C82.5163 28.9406 82.4026 28.9885 82.2889 29.0627C82.1752 29.115 82.0396 29.176 81.8996 29.2589C81.7815 29.3287 81.6546 29.4115 81.5321 29.49C81.4053 29.5685 81.2828 29.6558 81.1691 29.7299C81.0291 29.8215 80.9066 29.9087 80.806 29.9654C80.6835 30.0439 80.5829 30.1529 80.526 30.2881C80.4692 30.4146 80.4429 30.5628 80.4604 30.7155C80.4736 30.8507 80.5435 30.9815 80.6267 31.1123C80.7316 31.2868 80.7185 31.2955 80.8191 31.4743C80.9197 31.6531 80.9154 31.6531 81.016 31.8319C81.1166 32.0107 81.1122 32.0107 81.2172 32.1895C81.2843 32.3087 81.3513 32.4264 81.4184 32.5427C81.519 32.7215 81.5234 32.7172 81.6284 32.8916C81.729 33.0704 81.7377 33.0617 81.8427 33.2405C81.9433 33.4193 81.9302 33.4236 82.0308 33.6024C82.1314 33.7812 82.1402 33.7725 82.2451 33.9513C82.3457 34.1301 82.3326 34.1345 82.4332 34.3133C82.5338 34.4921 82.5513 34.479 82.6563 34.6578C82.7569 34.8366 82.7438 34.8409 82.8444 35.0197C82.945 35.1985 82.945 35.1985 83.0456 35.373C83.1462 35.5518 83.1506 35.5474 83.2556 35.7262C83.3562 35.905 83.3431 35.9094 83.4437 36.0882C83.5443 36.267 83.5618 36.2539 83.6624 36.4327C83.763 36.6115 83.763 36.6115 83.8636 36.7903C83.9642 36.9691 83.9467 36.9778 84.0517 37.1523C84.1523 37.3311 84.1567 37.3267 84.2573 37.5055C84.3579 37.6843 84.371 37.6756 84.476 37.8544C84.5766 38.0332 84.5854 38.0288 84.686 38.2076C84.7341 38.3079 84.8172 38.3864 84.931 38.4475C85.0316 38.5042 85.1453 38.5609 85.2634 38.5696C85.3903 38.5827 85.5127 38.5609 85.6133 38.5085C85.7096 38.4649 85.8277 38.4082 85.9502 38.3472C86.0551 38.2948 86.1645 38.2251 86.2782 38.164H86.2607Z" fill="#FF6478"/>
<path d="M66.1566 37.5708C66.0866 37.5402 66.0166 37.5141 65.951 37.4835C65.8198 37.4269 65.6929 37.3745 65.5661 37.3222C65.4348 37.2699 65.308 37.2175 65.1768 37.1652C65.0455 37.1129 64.9143 37.0693 64.7831 37.0213C64.6518 36.9733 64.5294 36.9035 64.3981 36.8599C64.2625 36.812 64.1357 36.764 64.0044 36.7204C63.8688 36.6768 63.7332 36.6506 63.602 36.6114C63.4664 36.5677 63.3352 36.5198 63.204 36.4849C63.0683 36.4456 62.924 36.4326 62.7928 36.3977C62.6528 36.3584 62.5303 36.293 62.3991 36.2581C62.2591 36.2232 62.1235 36.1971 61.9923 36.1665C61.8523 36.1316 61.7123 36.1229 61.5811 36.0924C61.428 36.0619 61.323 36.0924 61.2399 36.1622C61.1568 36.2363 61.0824 36.341 61.0824 36.4892C61.0824 36.6855 61.1087 36.6855 61.1087 36.8817C61.1087 37.078 61.0868 37.078 61.0868 37.2742C61.0868 37.4705 61.1087 37.4705 61.1087 37.6667C61.1087 37.863 61.078 37.863 61.078 38.0592C61.078 38.2554 61.0912 38.2554 61.0912 38.4517C61.0912 38.6479 61.078 38.6479 61.078 38.8442C61.078 39.0404 61.0868 39.0404 61.0824 39.2367C61.0737 39.4503 61.2093 39.6117 61.4105 39.6728C61.5417 39.712 61.6686 39.76 61.7954 39.8036C61.9267 39.8472 62.0579 39.8821 62.1804 39.9301C62.3072 39.9737 62.4341 40.0304 62.5566 40.0783C62.6834 40.1263 62.8103 40.1743 62.9327 40.2266C63.0596 40.2789 63.1865 40.3182 63.3089 40.3749C63.4314 40.4316 63.5539 40.4926 63.672 40.5493C63.7945 40.6104 63.9257 40.6496 64.0438 40.715C64.1663 40.7761 64.28 40.8546 64.3938 40.92C64.5119 40.9854 64.6343 41.0421 64.7525 41.1119C64.9012 41.1947 64.9449 41.2296 64.8706 41.391C64.8137 41.5131 64.8181 41.5436 64.7568 41.6657C64.6956 41.7878 64.6212 41.9012 64.56 42.0233C64.4944 42.1454 64.4506 42.2719 64.385 42.394C64.3194 42.5117 64.2319 42.6208 64.1619 42.7385C64.0919 42.8563 64.0219 42.9696 63.9476 43.0874C63.8776 43.2051 63.8032 43.3185 63.7289 43.4319C63.6545 43.5453 63.6108 43.6805 63.5364 43.7939C63.462 43.9073 63.3789 44.0163 63.3046 44.1297C63.2258 44.243 63.134 44.3434 63.0509 44.4524C62.9721 44.5614 62.8978 44.6791 62.8146 44.7882C62.7315 44.8972 62.6397 44.9975 62.5566 45.1065C62.4734 45.2155 62.3728 45.3071 62.2854 45.4118C62.1979 45.5165 62.1279 45.6342 62.0404 45.7389C61.9529 45.8435 61.861 45.9438 61.7736 46.0485C61.6817 46.1488 61.6117 46.2709 61.5199 46.3712C61.428 46.4715 61.3099 46.5456 61.2137 46.6459C61.1218 46.7462 61.0431 46.8596 60.9468 46.9556C60.8506 47.0515 60.7456 47.1387 60.645 47.2347C60.5488 47.3306 60.4656 47.444 60.3694 47.5356C60.2732 47.6315 60.1726 47.7231 60.072 47.8147C59.9714 47.9063 59.8489 47.976 59.7439 48.0633C59.6302 48.1679 59.5733 48.338 59.6039 48.4645C59.6302 48.5778 59.7351 48.6782 59.9407 48.7C60.0807 48.7 60.2163 48.6912 60.3519 48.6912C60.4919 48.6912 60.6275 48.7174 60.7631 48.7174C60.9031 48.7174 61.0387 48.7 61.1787 48.7C61.3186 48.7 61.4542 48.6825 61.5942 48.6825C61.7342 48.6825 61.8698 48.7218 62.0054 48.7218C62.1454 48.7218 62.281 48.7174 62.4166 48.7174C62.5566 48.7174 62.6922 48.6825 62.8278 48.6825C62.9677 48.6825 63.1033 48.6738 63.2389 48.6738C63.3745 48.6738 63.5145 48.6607 63.6501 48.6563C63.7857 48.6563 63.9257 48.6869 64.0613 48.6825C64.1969 48.6825 64.3369 48.6694 64.4725 48.6651C64.6081 48.6607 64.7437 48.6345 64.8837 48.6302C65.0193 48.6258 65.1593 48.6171 65.2949 48.6084C65.4305 48.5997 65.5704 48.5953 65.706 48.5866C65.8416 48.5778 65.9772 48.556 66.1172 48.5473C66.2747 48.5386 66.3972 48.5168 66.5065 48.4775C66.6465 48.4252 66.769 48.3729 66.8609 48.29C66.9658 48.1984 67.0402 48.0894 67.1321 47.9935C67.2195 47.8888 67.2983 47.7798 67.3814 47.6708C67.4645 47.5661 67.5476 47.4571 67.6264 47.3481C67.7051 47.239 67.8013 47.1387 67.8757 47.0253C67.9501 46.912 68.0157 46.7942 68.0857 46.6765C68.1556 46.5631 68.2125 46.4366 68.2825 46.3189C68.3481 46.2011 68.4443 46.1008 68.5056 45.9787C68.5712 45.861 68.6893 45.5993 68.7505 45.4772C68.8074 45.3289 68.9036 45.2853 68.978 45.3987C69.0524 45.5121 69.1355 45.6168 69.2098 45.7301C69.2842 45.8435 69.3455 45.9613 69.4154 46.079C69.4854 46.1924 69.5817 46.2927 69.6517 46.4104C69.7216 46.5238 69.7741 46.6503 69.8441 46.768C69.9097 46.8814 69.971 47.0035 70.041 47.1213C70.1066 47.239 70.1984 47.3437 70.2641 47.4614C70.3297 47.5792 70.3953 47.6969 70.4609 47.819C70.5134 47.9281 70.6446 47.9978 70.789 47.9935C70.9158 47.9935 71.0339 47.9324 71.1127 47.7972C71.2133 47.6272 71.2176 47.6272 71.3139 47.4571C71.4101 47.2826 71.4232 47.2914 71.5195 47.1169C71.6157 46.9425 71.5982 46.9338 71.6944 46.7593C71.7907 46.5892 71.7907 46.5892 71.8913 46.4148C71.9554 46.2985 72.0211 46.1837 72.0881 46.0703C72.1844 45.9002 72.2106 45.9133 72.3068 45.7389C72.4031 45.5688 72.3856 45.5557 72.4818 45.3856C72.578 45.2155 72.5868 45.2199 72.683 45.0455C72.7793 44.8754 72.7836 44.8754 72.8799 44.7053C72.9761 44.5352 72.963 44.5265 73.0592 44.3521C73.1555 44.182 73.1686 44.1864 73.2648 44.0163C73.361 43.8462 73.3742 43.8506 73.4704 43.6805C73.5316 43.5715 73.5666 43.3883 73.5535 43.2139C73.5404 43.0525 73.4792 42.8911 73.3742 42.7821C73.2823 42.6775 73.1904 42.5728 73.0986 42.4681C73.0067 42.3635 72.9149 42.2544 72.823 42.1541C72.7268 42.0538 72.6349 41.9492 72.5343 41.8489C72.4337 41.7486 72.3375 41.6526 72.2369 41.5567C72.1362 41.4608 72.0269 41.3692 71.9263 41.2732C71.8213 41.1773 71.7076 41.0988 71.6026 41.0072C71.4976 40.9156 71.3882 40.8284 71.2833 40.7368C71.1783 40.6452 71.0864 40.5362 70.9771 40.449C70.8677 40.3618 70.6927 40.2353 70.5834 40.1525C70.5571 40.1307 70.5221 40.087 70.5396 40.026C70.5659 39.8952 70.6359 39.5812 70.6621 39.4503C70.6884 39.3152 70.7234 39.1887 70.7496 39.0535C70.7758 38.9183 70.8021 38.7875 70.824 38.6566C70.8458 38.5215 70.8458 38.3863 70.8677 38.2511C70.8896 38.1159 70.9158 37.9851 70.9333 37.8499C70.9552 37.7147 70.9596 37.5795 70.9771 37.4443C70.9946 37.3091 71.0339 37.1783 71.0514 37.0431C71.0689 36.9079 71.0602 36.7727 71.0777 36.6375C71.0952 36.5023 71.1127 36.3671 71.1302 36.2363C71.1477 36.1011 71.1783 35.9703 71.1914 35.8351C71.2045 35.6999 71.2264 35.5647 71.2395 35.4295C71.2526 35.2943 71.2833 35.1592 71.292 35.0283C71.3051 34.8931 71.3183 34.7579 71.3314 34.6228C71.3445 34.4876 71.3445 34.3524 71.3532 34.2172C71.362 34.082 71.3576 33.9468 71.3664 33.8116C71.3882 33.6677 71.3489 33.5325 71.2876 33.406C71.2264 33.2752 71.1345 33.1706 71.0164 33.1008C70.8939 33.0266 70.7583 32.9961 70.6184 33.031C70.4871 33.0572 70.3472 33.0659 70.2028 33.0921C70.0716 33.1182 69.936 33.1618 69.7916 33.1836C69.656 33.2054 69.516 33.2142 69.3717 33.236C69.2317 33.2578 69.0961 33.297 68.9561 33.3145C68.8162 33.3363 68.6718 33.3363 68.5362 33.3537C68.3919 33.3755 68.2519 33.3886 68.1163 33.406C67.9719 33.4235 67.8319 33.4409 67.6963 33.4584C67.5476 33.4758 67.4033 33.4889 67.2764 33.502C67.0971 33.5281 66.9527 33.6066 66.8434 33.7026C66.7296 33.8029 66.6771 33.9512 66.6334 34.1169C66.5984 34.2564 66.5678 34.4091 66.5722 34.5835C66.5722 34.7187 66.5459 34.8539 66.5372 34.9891C66.5284 35.1243 66.559 35.2638 66.5459 35.399C66.5372 35.5342 66.4978 35.6694 66.4847 35.8046C66.4715 35.9398 66.4584 36.075 66.4409 36.2101C66.4234 36.3453 66.4147 36.4805 66.3928 36.6157C66.3709 36.7509 66.3228 36.8817 66.3009 37.0126C66.2747 37.1478 66.2703 37.2829 66.2441 37.4181C66.2353 37.453 66.231 37.4835 66.2222 37.5184C66.2178 37.5533 66.1872 37.562 66.1522 37.5533L66.1566 37.5708Z" fill="#FF6478"/>
<path d="M40.5494 33.2197C40.6369 33.1151 40.7419 33.0279 40.825 32.9188C40.9081 32.8098 40.9737 32.6877 41.0525 32.583C41.1356 32.474 41.2099 32.365 41.2887 32.2516C41.3674 32.1426 41.4637 32.0423 41.5424 31.9333C41.6168 31.8199 41.6867 31.7021 41.7567 31.5887C41.8311 31.4753 41.8792 31.3445 41.9492 31.2268C42.0192 31.109 42.0936 30.9956 42.1592 30.8779C42.2379 30.7427 42.3166 30.625 42.4129 30.5421C42.531 30.4418 42.6666 30.3938 42.7934 30.3677C42.9334 30.3371 43.0778 30.3459 43.209 30.3895C43.3271 30.4374 43.4627 30.4854 43.6027 30.5421C43.7295 30.5901 43.8476 30.6686 43.9876 30.7209C44.1145 30.7689 44.2588 30.7907 44.3944 30.8386C44.5257 30.8866 44.6569 30.9346 44.7925 30.9826C44.9281 31.0305 45.0637 31.0698 45.1949 31.1178C45.3305 31.1657 45.4618 31.2181 45.593 31.2617C45.733 31.3053 45.8642 31.3532 45.9954 31.3925C46.1354 31.4361 46.2754 31.4753 46.4022 31.5146C46.5422 31.5495 46.6472 31.6498 46.7172 31.7719C46.7872 31.8896 46.8528 32.0292 46.844 32.1731C46.8353 32.3083 46.7784 32.4566 46.6909 32.57C46.6166 32.6833 46.5116 32.7749 46.4328 32.8927C46.3585 33.006 46.3104 33.1369 46.236 33.2546C46.1616 33.368 46.0654 33.4683 45.991 33.5861C45.9167 33.6994 45.8423 33.8128 45.7636 33.9262C45.6892 34.0396 45.6367 34.1704 45.558 34.2838C45.4793 34.3972 45.4005 34.5062 45.3218 34.6196C45.243 34.7286 45.1599 34.842 45.0812 34.951C45.0025 35.0601 44.9018 35.156 44.8187 35.2694C44.74 35.3784 44.6788 35.5049 44.6 35.6183C44.5169 35.7273 44.4076 35.8189 44.3244 35.9279C44.2413 36.0369 44.1626 36.1503 44.0795 36.2593C43.9964 36.3684 43.9176 36.4817 43.8301 36.5864C43.747 36.6954 43.6727 36.8132 43.5896 36.9178C43.5064 37.0225 43.4015 37.1184 43.314 37.2231C43.2265 37.3278 43.1653 37.4542 43.0778 37.5589C43.0559 37.5894 43.0428 37.6505 43.0646 37.6984C43.1171 37.8249 43.1871 37.947 43.2396 38.0735C43.2921 38.2 43.314 38.3395 43.3665 38.4703C43.4146 38.5968 43.489 38.7189 43.5371 38.8497C43.5852 38.9806 43.6027 39.1201 43.6464 39.251C43.6902 39.3818 43.7295 39.5126 43.7689 39.6478C43.8083 39.7786 43.8695 39.9051 43.9045 40.0403C43.9439 40.1711 43.9658 40.3107 44.0007 40.4415C44.0357 40.5767 44.0795 40.7075 44.1145 40.8427C44.1451 40.9779 44.1626 41.1131 44.1932 41.2526C44.2326 41.4009 44.1932 41.5579 44.1232 41.7062C44.0489 41.8675 43.957 42.0202 43.8476 42.0856C43.6683 42.2033 43.6683 42.199 43.489 42.3167C43.314 42.4345 43.3096 42.4257 43.1303 42.5435C42.9553 42.6612 42.9553 42.6656 42.7803 42.779C42.6053 42.8967 42.5966 42.888 42.4216 43.0014C42.2467 43.1191 42.2598 43.1409 42.0848 43.2587C41.9098 43.3764 41.888 43.3459 41.713 43.4636C41.538 43.5814 41.5468 43.5945 41.3718 43.7122C41.1968 43.83 41.2012 43.8387 41.0262 43.9564C40.8513 44.0742 40.8469 44.0698 40.6719 44.1876C40.5553 44.2661 40.4386 44.3431 40.322 44.4187C40.147 44.5364 40.1382 44.5234 39.9589 44.6367C39.7839 44.7545 39.7883 44.7589 39.609 44.8722C39.4777 44.9507 39.3553 44.9682 39.259 44.9246C39.1409 44.8722 39.0665 44.7458 39.0709 44.6237C39.0709 44.4841 39.0709 44.3489 39.0709 44.2094C39.0709 44.0698 39.0578 43.9346 39.0578 43.7951C39.0578 43.6555 39.0928 43.516 39.0884 43.3808C39.0884 43.2412 39.0534 43.106 39.0491 42.9665C39.0491 42.8269 39.0359 42.6918 39.0316 42.5566C39.0272 42.417 39.0316 42.2818 39.0228 42.1423C39.0141 42.0027 39.0097 41.7716 39.0009 41.68C38.9834 41.5579 38.9047 41.6059 38.8216 41.6495C38.7428 41.6931 38.6816 41.728 38.6072 41.7803C38.4935 41.8588 38.406 41.9722 38.2923 42.0507C38.1786 42.1292 38.0561 42.1946 37.9424 42.2687C37.8242 42.3429 37.6974 42.3908 37.5793 42.4606C37.4612 42.5304 37.3431 42.5958 37.2206 42.6612C37.0981 42.7266 36.9931 42.8182 36.8707 42.8749C36.7482 42.936 36.6126 42.9752 36.4901 43.0275C36.3632 43.0842 36.2451 43.154 36.1183 43.202C35.9958 43.2456 35.8689 43.2848 35.7333 43.3197C35.6109 43.3503 35.4796 43.3546 35.3309 43.3372C35.2128 43.3241 35.0903 43.2805 34.9503 43.2194C34.8235 43.1627 34.701 43.106 34.5742 43.0494C34.4473 42.9927 34.3117 42.9621 34.1892 42.9054C34.0667 42.8488 33.9486 42.7703 33.8262 42.7136C33.7037 42.6569 33.5724 42.6133 33.45 42.5566C33.3275 42.4955 33.2137 42.4214 33.0869 42.3603C32.9644 42.2993 32.8463 42.2339 32.7238 42.1728C32.6013 42.1117 32.4745 42.0594 32.352 41.994C32.2295 41.9329 32.1158 41.8544 31.9933 41.789C31.8708 41.728 31.744 41.6713 31.6215 41.6102C31.499 41.5492 31.3853 41.475 31.2628 41.414C31.1403 41.3529 31.0135 41.2962 30.891 41.2352C30.7685 41.1698 30.6329 41.1393 30.5104 41.0738C30.388 41.0084 30.2742 40.9343 30.1517 40.8689C30.0293 40.8035 29.9068 40.7468 29.7843 40.6813C29.6662 40.6159 29.5437 40.5505 29.4212 40.4851C29.2506 40.3717 29.2375 40.2322 29.2725 40.1188C29.3075 39.9967 29.4125 39.8746 29.5656 39.8353C29.6968 39.8048 29.8324 39.7699 29.9637 39.7394C30.0949 39.7045 30.2261 39.6652 30.3573 39.626C30.4886 39.5911 30.6198 39.5562 30.751 39.517C30.8823 39.4777 31.0179 39.4516 31.1447 39.4079C31.2759 39.3643 31.394 39.3033 31.5253 39.2597C31.6521 39.2161 31.7877 39.1855 31.9146 39.1419C32.0414 39.094 32.1639 39.0373 32.2908 38.9893C32.4176 38.9413 32.5576 38.9195 32.6801 38.8715C32.8069 38.8192 32.9207 38.7364 33.0432 38.684C33.17 38.6317 33.2969 38.5837 33.4193 38.527C33.5418 38.4703 33.6818 38.4529 33.8043 38.3918C33.9268 38.3351 34.0449 38.261 34.1673 38.2043C34.2898 38.1433 34.3992 38.0604 34.5173 37.995C34.6398 37.9339 34.7666 37.886 34.8847 37.8206C35.0028 37.7551 35.1297 37.6984 35.2478 37.633C35.3659 37.5676 35.484 37.4978 35.6021 37.4281C35.7202 37.3583 35.8296 37.2798 35.9477 37.21C36.0614 37.1402 36.1839 37.0705 36.2976 36.9963C36.4114 36.9222 36.5338 36.8568 36.6432 36.7826C36.7569 36.7085 36.8532 36.6082 36.9625 36.5297C37.0719 36.4512 37.19 36.3771 37.295 36.2986C37.3518 36.255 37.4087 36.207 37.4656 36.159C37.5049 36.1285 37.5224 36.0282 37.4787 35.9671C37.4524 35.9235 37.4218 35.8799 37.3956 35.832C37.3256 35.7142 37.2862 35.579 37.2118 35.4613C37.1375 35.3435 37.0587 35.2345 36.98 35.1168C36.9056 35.0034 36.8313 34.8856 36.7482 34.7722C36.6694 34.6632 36.5645 34.5673 36.4813 34.4583C36.3982 34.3492 36.3151 34.2402 36.2276 34.1312C36.1401 34.0265 36.0658 33.9088 35.9739 33.8041C35.8821 33.7038 35.7858 33.6035 35.6896 33.5032C35.5977 33.4029 35.5059 33.3026 35.4096 33.2023C35.3615 33.1325 35.2347 33.0017 35.2084 32.8229C35.1909 32.6964 35.2303 32.5481 35.3222 32.4042C35.4271 32.2254 35.4228 32.2254 35.5277 32.0466C35.6327 31.8678 35.6459 31.8766 35.7465 31.6978C35.8514 31.519 35.8296 31.5102 35.9346 31.3314C36.0395 31.1526 36.0614 31.1657 36.1664 30.9913C36.2714 30.8125 36.2408 30.795 36.3457 30.6206C36.4507 30.4418 36.477 30.4592 36.5776 30.2804C36.6782 30.106 36.8094 30.0144 36.9581 29.9883C37.1112 29.9621 37.2687 30.0057 37.4262 30.1278C37.5268 30.215 37.6449 30.2892 37.7499 30.3851C37.8505 30.4723 37.9424 30.577 38.043 30.6773C38.1436 30.7689 38.2486 30.8605 38.3492 30.9564C38.4454 31.048 38.546 31.1439 38.6466 31.2442C38.7428 31.3402 38.8478 31.4317 38.9441 31.5364C39.0403 31.6323 39.1278 31.7414 39.224 31.846C39.3159 31.9463 39.399 32.0597 39.4909 32.1644C39.5827 32.2647 39.6789 32.365 39.7708 32.4696C39.8583 32.5743 39.9283 32.6964 40.0158 32.8054C40.1033 32.9101 40.2082 33.0017 40.2957 33.1107C40.3876 33.2067 40.4095 33.2328 40.4269 33.2546C40.4444 33.2764 40.5013 33.2852 40.5363 33.2415L40.5494 33.2197Z" fill="#FF6478"/>
<path d="M174.624 37.712V26.5828H166.286V42.8492L185.865 41.772V37.0927L174.624 37.712Z" fill="#282828"/>
<path d="M160.498 26.5828H140.166V29.7445H160.498V26.5828Z" fill="#282828"/>
<path d="M139.454 34.8684H146.422L144.782 42.5829H153.202L154.838 34.8684H161.212V31.7067H139.454V34.8684Z" fill="#282828"/>
<path d="M115.154 26.5828H106.734L103.632 31.9598L95.7192 29.195V32.5311L102.031 34.7378L97.4996 42.5832H105.92L109.035 37.1843L116.952 39.9535V36.613L110.64 34.4063L115.154 26.5828Z" fill="#282828"/>
<path d="M125.591 31.755C123.907 31.755 121.204 33.3642 121.204 33.3642L121.217 37.071C121.217 37.071 123.903 35.7933 125.499 35.7933C127.096 35.7933 128.653 37.4853 130.726 37.4853C132.384 37.4853 134.856 36.0942 134.856 36.0942V32.3132C134.856 32.3132 132.244 33.591 131.124 33.591C129.62 33.591 127.284 31.7594 125.595 31.7594L125.591 31.755Z" fill="#282828"/>
<rect x="0.5" y="0.5" width="213" height="67" stroke="#E0E0E0"/>
</svg>
